<svg width="236" height="79" viewBox="0 0 236 79" fill="none" xmlns="http://www.w3.org/2000/svg">
<path d="M216.555 0.000196382H18.994C18.2739 0.000196382 17.5624 0.000196382 16.844 0.00412403C16.2429 0.00805168 15.6465 0.0194419 15.0395 0.0290646C13.7208 0.0445762 12.4052 0.160581 11.1041 0.376072C9.80491 0.596255 8.54638 1.01137 7.37111 1.60739C6.19732 2.20847 5.12481 2.98951 4.19247 3.92215C3.25523 4.8521 2.47395 5.927 1.87869 7.10551C1.28177 8.28179 0.867875 9.54228 0.651299 10.8435C0.432648 12.1429 0.314991 13.4574 0.299381 14.775C0.281118 15.3771 0.279154 15.9812 0.269531 16.5835V61.9757C0.279154 62.5855 0.281118 63.1762 0.299381 63.7864C0.315005 65.1039 0.432663 66.4182 0.651299 67.7176C0.867293 69.0195 1.28121 70.2806 1.87869 71.4573C2.47367 72.632 3.25505 73.7027 4.19247 74.6275C5.12128 75.5643 6.19449 76.3458 7.37111 76.9422C8.54637 77.5399 9.80477 77.9575 11.1041 78.181C12.4054 78.3948 13.7209 78.5109 15.0395 78.5282C15.6463 78.5416 16.2429 78.5492 16.8442 78.5492C17.5624 78.5532 18.2739 78.5532 18.994 78.5532H216.555C217.261 78.5532 217.978 78.5532 218.684 78.5492C219.282 78.5492 219.896 78.5416 220.494 78.5282C221.81 78.5118 223.123 78.3957 224.422 78.181C225.725 77.9559 226.988 77.5384 228.169 76.9422C229.345 76.3455 230.417 75.5639 231.345 74.6275C232.28 73.699 233.063 72.6292 233.666 71.4573C234.258 70.2797 234.668 69.0187 234.881 67.7176C235.1 66.418 235.222 65.1039 235.246 63.7862C235.254 63.1762 235.254 62.5855 235.254 61.9757C235.269 61.2623 235.269 60.5528 235.269 59.8277V18.7276C235.269 18.0083 235.269 17.295 235.254 16.5835C235.254 15.9812 235.254 15.3771 235.246 14.7748C235.222 13.4571 235.1 12.1429 234.881 10.8433C234.668 9.54298 234.258 8.28272 233.666 7.10571C232.453 4.7433 230.531 2.82031 228.169 1.60719C226.988 1.01264 225.725 0.597631 224.422 0.375876C223.123 0.159469 221.81 0.0434558 220.494 0.0288682C219.896 0.0192455 219.282 0.00765892 218.684 0.00392765C217.978 0 217.261 0.000196382 216.555 0.000196382Z" fill="black"/>
<path d="M16.8536 76.8345C16.2552 76.8345 15.6714 76.8268 15.0777 76.8135C13.8479 76.7975 12.6211 76.6905 11.4071 76.4934C10.2752 76.2984 9.17861 75.9357 8.15363 75.4172C7.13803 74.9031 6.21171 74.229 5.41017 73.4208C4.59697 72.6221 3.91993 71.6957 3.40589 70.6783C2.88624 69.6543 2.52662 68.5568 2.33954 67.4239C2.13757 66.2065 2.02833 64.9756 2.01275 63.7417C2.00019 63.3275 1.98389 61.9487 1.98389 61.9487V16.583C1.98389 16.583 2.00117 15.2252 2.01275 14.8262C2.02772 13.5943 2.13637 12.3653 2.33777 11.1499C2.52522 10.0138 2.88515 8.91311 3.40511 7.8858C3.91717 6.86913 4.59036 5.94201 5.39859 5.14037C6.20595 4.33113 7.13527 3.65356 8.15265 3.13236C9.1753 2.61568 10.2698 2.25562 11.3994 2.06424C12.6174 1.86515 13.8486 1.75756 15.0826 1.74237L16.8546 1.71802H218.674L220.467 1.74296C221.69 1.75749 222.91 1.86423 224.117 2.06228C225.258 2.25611 226.364 2.61874 227.398 3.13826C229.436 4.18858 231.095 5.8503 232.141 7.89051C232.653 8.91079 233.007 10.0026 233.192 11.1289C233.396 12.3542 233.51 13.5928 233.533 14.8348C233.539 15.391 233.539 15.9883 233.539 16.583C233.555 17.3194 233.555 18.0203 233.555 18.7271V59.8272C233.555 60.5407 233.555 61.2368 233.539 61.9387C233.539 62.5773 233.539 63.1624 233.531 63.7645C233.508 64.9844 233.396 66.2009 233.196 67.4044C233.012 68.5455 232.655 69.6516 232.135 70.684C231.618 71.6903 230.945 72.6087 230.141 73.4053C229.339 74.2179 228.411 74.8959 227.393 75.4133C226.361 75.9357 225.257 76.2996 224.117 76.493C222.903 76.6913 221.676 76.7983 220.446 76.8133C219.859 76.827 219.271 76.834 218.684 76.8343L216.555 76.8382L16.8536 76.8345Z" fill="white"/>
<path d="M50.4511 38.1704C50.473 36.4658 50.9258 34.7946 51.7672 33.312C52.6087 31.8295 53.8114 30.5839 55.2636 29.6911C54.3411 28.3736 53.1241 27.2893 51.7092 26.5244C50.2943 25.7595 48.7206 25.335 47.113 25.2847C43.6837 24.9248 40.3592 27.3369 38.6116 27.3369C36.8304 27.3369 34.1397 25.3205 31.2423 25.3802C29.3683 25.4407 27.5419 25.9857 25.9411 26.962C24.3403 27.9383 23.0197 29.3126 22.108 30.9509C18.1583 37.789 21.1045 47.8385 24.8878 53.366C26.7805 56.0726 28.9927 59.0959 31.8874 58.9887C34.72 58.8712 35.7782 57.1823 39.1972 57.1823C42.5848 57.1823 43.5773 58.9887 46.5307 58.9205C49.5703 58.8712 51.4854 56.202 53.3118 53.4697C54.6718 51.5411 55.7184 49.4096 56.4126 47.1541C54.6468 46.4072 53.1398 45.1571 52.0797 43.5595C51.0196 41.9619 50.4531 40.0877 50.4511 38.1704ZM44.8726 21.6497C46.53 19.6601 47.3465 17.1029 47.1487 14.521C44.6168 14.787 42.278 15.9971 40.5984 17.9104C39.7771 18.845 39.1481 19.9323 38.7473 21.1102C38.3465 22.288 38.1818 23.5334 38.2626 24.7749C39.5291 24.788 40.782 24.5135 41.927 23.9721C43.072 23.4307 44.079 22.6368 44.8726 21.6497ZM84.4352 52.4087H75.1397L72.9074 59.0001H68.9699L77.7747 34.6133H81.8654L90.67 59.0001H86.6658L84.4352 52.4087ZM76.1023 49.3669H83.4706L79.8383 38.6696H79.7366L76.1023 49.3669ZM109.685 50.1112C109.685 55.6362 106.728 59.186 102.265 59.186C101.135 59.2452 100.01 58.9847 99.0209 58.4346C98.0316 57.8845 97.2171 57.0668 96.6709 56.0753H96.5864V64.8819H92.9366V41.2202H96.4694V44.1775H96.5365C97.1079 43.1907 97.9361 42.3773 98.933 41.8238C99.9299 41.2703 101.058 40.9974 102.198 41.0342C106.71 41.0342 109.685 44.6015 109.685 50.1112ZM105.934 50.1112C105.934 46.5115 104.073 44.1449 101.235 44.1449C98.4465 44.1449 96.5711 46.5612 96.5711 50.111C96.5711 53.6936 98.4465 56.0928 101.235 56.0928C104.073 56.0928 105.934 53.7437 105.934 50.1112ZM129.255 50.1112C129.255 55.6362 126.297 59.186 121.834 59.186C120.704 59.2452 119.579 58.9847 118.59 58.4346C117.601 57.8845 116.786 57.0668 116.24 56.0753H116.156V64.8819H112.506V41.2202H116.038V44.1775H116.106C116.677 43.1907 117.505 42.3773 118.502 41.8238C119.499 41.2703 120.627 40.9974 121.767 41.0342C126.28 41.0342 129.255 44.6015 129.255 50.1112ZM125.503 50.1112C125.503 46.5115 123.643 44.1449 120.804 44.1449C118.016 44.1449 116.14 46.5612 116.14 50.111C116.14 53.6936 118.016 56.0928 120.804 56.0928C123.643 56.0928 125.503 53.7437 125.503 50.1112ZM142.187 52.2054C142.457 54.6237 144.807 56.2116 148.017 56.2116C151.093 56.2116 153.306 54.6237 153.306 52.443C153.306 50.5501 151.971 49.4168 148.811 48.6401L145.65 47.8787C141.172 46.797 139.093 44.7028 139.093 41.3044C139.093 37.0967 142.76 34.2068 147.965 34.2068C153.12 34.2068 156.653 37.0967 156.772 41.3044H153.088C152.867 38.8709 150.855 37.4017 147.915 37.4017C144.975 37.4017 142.964 38.8881 142.964 41.0513C142.964 42.7755 144.248 43.79 147.392 44.5665L150.078 45.2264C155.082 46.4096 157.159 48.4196 157.159 51.9865C157.159 56.549 153.527 59.4066 147.746 59.4066C142.338 59.4066 138.687 56.616 138.451 52.2052L142.187 52.2054ZM165.039 37.0127V41.2202H168.42V44.1103H165.039V53.9122C165.039 55.4349 165.716 56.1445 167.203 56.1445C167.604 56.1375 168.005 56.1093 168.403 56.06V58.9331C167.735 59.0579 167.056 59.1143 166.376 59.1016C162.776 59.1016 161.372 57.7497 161.372 54.3014V44.1103H158.787V41.2202H161.372V37.0127H165.039ZM170.377 50.1112C170.377 44.5168 173.671 41.0016 178.809 41.0016C183.964 41.0016 187.244 44.5168 187.244 50.1112C187.244 55.7207 183.981 59.2206 178.809 59.2206C173.639 59.2206 170.377 55.7207 170.377 50.1112ZM183.525 50.1112C183.525 46.2737 181.766 44.0086 178.809 44.0086C175.852 44.0086 174.093 46.2908 174.093 50.1112C174.093 53.964 175.852 56.2116 178.809 56.2116C181.766 56.2116 183.525 53.964 183.525 50.1112ZM190.252 41.2202H193.733V44.2464H193.818C194.053 43.3013 194.607 42.466 195.386 41.881C196.165 41.296 197.121 40.997 198.095 41.0342C198.515 41.0327 198.935 41.0784 199.345 41.1703V44.584C198.814 44.4218 198.26 44.3473 197.705 44.3635C197.175 44.342 196.646 44.4354 196.156 44.6375C195.665 44.8395 195.224 45.1454 194.863 45.534C194.501 45.9226 194.228 46.3848 194.063 46.8889C193.897 47.3929 193.842 47.9269 193.902 48.4541V59.0001H190.252V41.2202ZM216.172 53.7779C215.681 57.0056 212.537 59.2206 208.516 59.2206C203.343 59.2206 200.133 55.7552 200.133 50.1954C200.133 44.6186 203.361 41.0016 208.362 41.0016C213.281 41.0016 216.375 44.3808 216.375 49.7717V51.022H203.817V51.2426C203.759 51.8969 203.841 52.5561 204.057 53.1764C204.274 53.7967 204.62 54.3638 205.072 54.8402C205.524 55.3165 206.073 55.6911 206.681 55.9392C207.29 56.1872 207.944 56.303 208.6 56.2788C209.463 56.3596 210.328 56.1598 211.068 55.7092C211.808 55.2586 212.382 54.5812 212.706 53.7779H216.172ZM203.834 48.4714H212.723C212.756 47.883 212.667 47.2943 212.461 46.742C212.256 46.1897 211.938 45.6859 211.529 45.2622C211.119 44.8385 210.627 44.5039 210.082 44.2796C209.537 44.0553 208.952 43.9461 208.362 43.9587C207.768 43.9552 207.179 44.0694 206.629 44.2947C206.079 44.52 205.579 44.8521 205.158 45.2716C204.737 45.6911 204.403 46.1899 204.176 46.7391C203.949 47.2883 203.833 47.8771 203.834 48.4714ZM75.6459 16.2572C76.4111 16.2023 77.1789 16.3179 77.894 16.5956C78.609 16.8734 79.2535 17.3064 79.781 17.8634C80.3084 18.4204 80.7057 19.0875 80.9441 19.8167C81.1825 20.5458 81.2561 21.3187 81.1596 22.0798C81.1596 25.8232 79.1363 27.9752 75.6459 27.9752H71.4133V16.257L75.6459 16.2572ZM73.2334 26.3179H75.4427C75.9894 26.3505 76.5365 26.2609 77.0443 26.0554C77.552 25.85 78.0075 25.5339 78.3776 25.1302C78.7478 24.7265 79.0232 24.2454 79.184 23.7218C79.3448 23.1982 79.3867 22.6454 79.3069 22.1035C79.381 21.5638 79.3347 21.0144 79.1715 20.4946C79.0083 19.9749 78.7321 19.4977 78.3628 19.0972C77.9935 18.6967 77.5402 18.3829 77.0353 18.1782C76.5305 17.9735 75.9866 17.8829 75.4427 17.9131H73.2334V26.3179ZM83.2155 23.5497C83.1599 22.9685 83.2264 22.3822 83.4106 21.8283C83.5949 21.2743 83.8929 20.765 84.2856 20.333C84.6782 19.901 85.1568 19.5558 85.6907 19.3196C86.2246 19.0834 86.8019 18.9614 87.3857 18.9614C87.9695 18.9614 88.5468 19.0834 89.0807 19.3196C89.6146 19.5558 90.0932 19.901 90.4858 20.333C90.8785 20.765 91.1765 21.2743 91.3608 21.8283C91.545 22.3822 91.6115 22.9685 91.5559 23.5497C91.6127 24.1315 91.5471 24.7188 91.3634 25.2737C91.1797 25.8287 90.8819 26.3391 90.4891 26.772C90.0964 27.205 89.6173 27.551 89.0829 27.7878C88.5484 28.0246 87.9703 28.1469 87.3857 28.1469C86.8011 28.1469 86.223 28.0246 85.6885 27.7878C85.1541 27.551 84.675 27.205 84.2823 26.772C83.8895 26.3391 83.5917 25.8287 83.408 25.2737C83.2243 24.7188 83.1587 24.1315 83.2155 23.5497ZM89.7609 23.5497C89.7609 21.6328 88.8998 20.5118 87.3886 20.5118C85.8716 20.5118 85.0183 21.6328 85.0183 23.5497C85.0183 25.4819 85.8718 26.5942 87.3886 26.5942C88.8998 26.5942 89.7609 25.4742 89.7609 23.5497ZM102.643 27.975H100.832L99.0047 21.4621H98.8666L97.0467 27.975H95.2536L92.8161 19.1319H94.5861L96.1703 25.8796H96.3007L98.1188 19.1319H99.7929L101.611 25.8796H101.749L103.325 19.1319H105.071L102.643 27.975ZM107.121 19.1321H108.801V20.5368H108.931C109.152 20.0322 109.526 19.6092 109.999 19.3268C110.472 19.0444 111.021 18.9166 111.57 18.9612C112 18.9289 112.433 18.9938 112.834 19.151C113.236 19.3083 113.597 19.554 113.891 19.8699C114.185 20.1858 114.404 20.5637 114.532 20.9758C114.66 21.3878 114.694 21.8234 114.631 22.2502V27.9748H112.886V22.6885C112.886 21.2675 112.268 20.5607 110.978 20.5607C110.685 20.5472 110.394 20.5969 110.123 20.7065C109.852 20.8162 109.607 20.9831 109.407 21.196C109.206 21.4088 109.054 21.6625 108.961 21.9397C108.867 22.2168 108.835 22.5109 108.866 22.8017V27.975H107.121V19.1321ZM117.412 15.6798H119.157V27.975H117.412V15.6798ZM121.583 23.5497C121.527 22.9685 121.594 22.3821 121.778 21.828C121.962 21.274 122.26 20.7646 122.653 20.3326C123.046 19.9005 123.525 19.5553 124.059 19.3191C124.592 19.0828 125.17 18.9608 125.754 18.9608C126.338 18.9608 126.915 19.0828 127.449 19.3191C127.983 19.5553 128.462 19.9005 128.854 20.3326C129.247 20.7646 129.545 21.274 129.729 21.828C129.914 22.3821 129.98 22.9685 129.924 23.5497C129.981 24.1314 129.915 24.7185 129.731 25.2733C129.547 25.8281 129.25 26.3383 128.857 26.7711C128.464 27.2039 127.985 27.5497 127.451 27.7864C126.916 28.023 126.338 28.1453 125.754 28.1453C125.169 28.1453 124.591 28.023 124.057 27.7864C123.522 27.5497 123.043 27.2039 122.651 26.7711C122.258 26.3383 121.96 25.8281 121.776 25.2733C121.592 24.7185 121.526 24.1314 121.583 23.5497ZM128.128 23.5497C128.128 21.6328 127.267 20.5118 125.756 20.5118C124.239 20.5118 123.386 21.6328 123.386 23.5497C123.386 25.4819 124.239 26.5942 125.756 26.5942C127.267 26.5942 128.128 25.4742 128.128 23.5497ZM131.762 25.4742C131.762 23.8824 132.947 22.9647 135.051 22.8343L137.446 22.6962V21.9329C137.446 20.9989 136.829 20.4716 135.636 20.4716C134.661 20.4716 133.986 20.8292 133.793 21.4545H132.103C132.281 19.9355 133.71 18.9614 135.716 18.9614C137.933 18.9614 139.184 20.0651 139.184 21.9329V27.975H137.503V26.7323H137.365C137.085 27.178 136.692 27.5414 136.225 27.7853C135.758 28.0293 135.235 28.145 134.709 28.1207C134.338 28.1593 133.963 28.1197 133.608 28.0044C133.253 27.8891 132.926 27.7008 132.648 27.4514C132.371 27.2021 132.148 26.8973 131.996 26.5568C131.843 26.2162 131.763 25.8475 131.762 25.4742ZM137.446 24.7185V23.9792L135.287 24.1172C134.069 24.1987 133.516 24.6131 133.516 25.3925C133.516 26.1885 134.207 26.6517 135.156 26.6517C135.434 26.6799 135.715 26.6518 135.982 26.5692C136.249 26.4865 136.497 26.351 136.711 26.1706C136.925 25.9902 137.1 25.7687 137.226 25.5193C137.352 25.2698 137.427 24.9975 137.446 24.7185ZM141.477 23.5497C141.477 20.7554 142.914 18.9854 145.148 18.9854C145.701 18.9599 146.249 19.0922 146.729 19.367C147.209 19.6417 147.602 20.0474 147.86 20.5368H147.99V15.6797H149.735V27.9748H148.063V26.5775H147.925C147.647 27.0635 147.241 27.4642 146.752 27.7362C146.262 28.0082 145.708 28.1411 145.148 28.1205C142.898 28.1205 141.477 26.3505 141.477 23.5497ZM143.28 23.5497C143.28 25.4251 144.164 26.5539 145.643 26.5539C147.113 26.5539 148.023 25.409 148.023 23.5571C148.023 21.7143 147.104 20.5531 145.643 20.5531C144.174 20.5531 143.28 21.6893 143.28 23.5497ZM156.956 23.5497C156.9 22.9685 156.967 22.3822 157.151 21.8283C157.335 21.2743 157.633 20.765 158.026 20.333C158.418 19.901 158.897 19.5558 159.431 19.3196C159.965 19.0834 160.542 18.9614 161.126 18.9614C161.71 18.9614 162.287 19.0834 162.821 19.3196C163.355 19.5558 163.833 19.901 164.226 20.333C164.619 20.765 164.917 21.2743 165.101 21.8283C165.285 22.3822 165.352 22.9685 165.296 23.5497C165.353 24.1315 165.287 24.7188 165.104 25.2737C164.92 25.8287 164.622 26.3391 164.229 26.772C163.837 27.205 163.358 27.551 162.823 27.7878C162.289 28.0246 161.711 28.1469 161.126 28.1469C160.541 28.1469 159.963 28.0246 159.429 27.7878C158.894 27.551 158.415 27.205 158.023 26.772C157.63 26.3391 157.332 25.8287 157.148 25.2737C156.964 24.7188 156.899 24.1315 156.956 23.5497ZM163.501 23.5497C163.501 21.6328 162.64 20.5118 161.129 20.5118C159.612 20.5118 158.759 21.6328 158.759 23.5497C158.759 25.4819 159.612 26.5942 161.129 26.5942C162.64 26.5942 163.501 25.4742 163.501 23.5497ZM167.638 19.1321H169.318V20.5368H169.448C169.669 20.0322 170.043 19.6092 170.516 19.3268C170.989 19.0444 171.538 18.9166 172.087 18.9612C172.517 18.9289 172.95 18.9938 173.351 19.151C173.753 19.3083 174.114 19.554 174.408 19.8699C174.702 20.1858 174.921 20.5637 175.049 20.9758C175.177 21.3878 175.211 21.8234 175.148 22.2502V27.9748H173.403V22.6885C173.403 21.2675 172.785 20.5607 171.495 20.5607C171.202 20.5472 170.911 20.5969 170.64 20.7065C170.369 20.8162 170.124 20.9831 169.924 21.196C169.723 21.4088 169.571 21.6625 169.478 21.9397C169.384 22.2168 169.352 22.5109 169.383 22.8017V27.975H167.638L167.638 19.1321ZM185.009 16.9304V19.1723H186.925V20.6422H185.009V25.1893C185.009 26.1156 185.391 26.5213 186.26 26.5213C186.482 26.5206 186.704 26.5071 186.925 26.4809V27.9347C186.612 27.9908 186.294 28.0206 185.976 28.0239C184.035 28.0239 183.262 27.341 183.262 25.6362V20.6422H181.858V19.1721H183.262V16.9306L185.009 16.9304ZM189.309 15.6798H191.039V20.5531H191.177C191.409 20.0438 191.792 19.6184 192.275 19.3349C192.757 19.0514 193.316 18.9236 193.873 18.9689C194.301 18.9456 194.729 19.017 195.127 19.1782C195.524 19.3393 195.881 19.5861 196.171 19.901C196.462 20.2159 196.68 20.5911 196.809 20.9999C196.939 21.4086 196.976 21.8409 196.919 22.2657V27.975H195.172V22.6962C195.172 21.2836 194.514 20.5684 193.281 20.5684C192.981 20.5438 192.679 20.5851 192.397 20.6893C192.114 20.7935 191.858 20.9581 191.646 21.1716C191.434 21.3851 191.271 21.6424 191.169 21.9255C191.067 22.2085 191.028 22.5105 191.054 22.8103V27.975H189.309V15.6798ZM207.095 25.5871C206.858 26.3954 206.344 27.0945 205.643 27.5622C204.943 28.0299 204.1 28.2364 203.263 28.1456C202.68 28.161 202.101 28.0494 201.566 27.8186C201.031 27.5878 200.553 27.2433 200.164 26.8091C199.775 26.3748 199.486 25.8611 199.315 25.3038C199.145 24.7464 199.098 24.1586 199.178 23.5813C199.1 23.0022 199.148 22.4131 199.318 21.8541C199.488 21.295 199.776 20.7789 200.162 20.3408C200.549 19.9028 201.025 19.5528 201.559 19.3148C202.092 19.0768 202.671 18.9562 203.255 18.9612C205.716 18.9612 207.2 20.6422 207.2 23.4191V24.0281H200.956V24.1259C200.929 24.4504 200.969 24.777 201.076 25.0848C201.182 25.3927 201.351 25.6749 201.573 25.9134C201.795 26.1519 202.064 26.3415 202.363 26.4699C202.662 26.5983 202.985 26.6628 203.311 26.6592C203.728 26.7093 204.151 26.6342 204.526 26.4433C204.901 26.2524 205.21 25.9544 205.415 25.5871H207.095ZM200.956 22.7374H205.422C205.444 22.4407 205.404 22.1426 205.304 21.8623C205.204 21.582 205.046 21.3258 204.841 21.11C204.636 20.8943 204.388 20.7238 204.114 20.6096C203.839 20.4953 203.543 20.4398 203.246 20.4466C202.944 20.4428 202.644 20.4995 202.365 20.6133C202.085 20.7271 201.831 20.8957 201.618 21.1092C201.404 21.3227 201.236 21.5767 201.122 21.8564C201.008 22.136 200.952 22.4356 200.956 22.7374Z" fill="black"/>
</svg>
