<svg width="14" height="16" viewBox="0 0 14 16" fill="none" xmlns="http://www.w3.org/2000/svg">
<path d="M9.43507 3.86458C9.03082 3.86458 8.65488 3.92656 8.30723 4.05053C7.95958 4.1745 7.64292 4.29712 7.35725 4.41839C7.07159 4.53967 6.82365 4.6003 6.61344 4.6003C6.39245 4.6003 6.14721 4.54236 5.87772 4.42648C5.60822 4.31059 5.31851 4.19606 5.00859 4.08287C4.69867 3.96968 4.36854 3.91309 4.01819 3.91309C3.35523 3.91309 2.71652 4.09365 2.10207 4.45478C1.48762 4.8159 0.983662 5.3495 0.590197 6.05558C0.196732 6.76166 0 7.63214 0 8.667C0 9.3138 0.075459 9.96059 0.226377 10.6074C0.377295 11.2542 0.579417 11.8659 0.832744 12.4426C1.08607 13.0194 1.36635 13.5287 1.67357 13.9707C2.07243 14.5259 2.46185 15.0029 2.84184 15.4017C3.22183 15.8006 3.66246 16 4.16372 16C4.4925 16 4.77817 15.9461 5.02072 15.8383C5.26326 15.7305 5.52063 15.6214 5.79282 15.5109C6.06502 15.4004 6.40593 15.3451 6.81556 15.3451C7.12818 15.3451 7.38959 15.3775 7.5998 15.4421C7.81001 15.5068 8.0027 15.5809 8.17787 15.6645C8.35304 15.748 8.53765 15.8221 8.73168 15.8868C8.92572 15.9515 9.16018 15.9838 9.43507 15.9838C9.79619 15.9838 10.1209 15.8882 10.4093 15.6968C10.6977 15.5055 10.9645 15.2589 11.2097 14.957C11.4549 14.6552 11.6934 14.3399 11.9252 14.0111C12.1785 13.6392 12.3847 13.2821 12.5437 12.9399C12.7027 12.5976 12.8199 12.3173 12.8954 12.099C12.9709 11.8807 13.0113 11.7608 13.0167 11.7393C13.0005 11.7339 12.8833 11.6732 12.665 11.5574C12.4467 11.4415 12.1988 11.2569 11.9212 11.0035C11.6436 10.7502 11.401 10.4187 11.1935 10.0091C10.986 9.59946 10.8823 9.0982 10.8823 8.50531C10.8823 7.98787 10.9645 7.54186 11.1289 7.16726C11.2932 6.79266 11.4859 6.48274 11.7069 6.23749C11.9279 5.99225 12.126 5.80495 12.3012 5.67559C12.4763 5.54624 12.5774 5.47347 12.6043 5.4573C12.3349 5.06923 12.0411 4.76739 11.7231 4.55179C11.4051 4.3362 11.0925 4.17989 10.7852 4.08287C10.478 3.98585 10.2045 3.92521 9.96463 3.90096C9.72478 3.87671 9.54826 3.86458 9.43507 3.86458ZM8.86913 2.55483C9.11706 2.25838 9.31918 1.91477 9.47549 1.524C9.6318 1.13323 9.70995 0.730335 9.70995 0.315311C9.70995 0.196732 9.70187 0.0916288 9.6857 0C9.28146 0.0161698 8.85969 0.137443 8.42041 0.36382C7.98114 0.590197 7.61866 0.873168 7.333 1.21273C7.10123 1.47145 6.89641 1.79485 6.71854 2.18292C6.54068 2.571 6.45174 2.96985 6.45174 3.37948C6.45174 3.44416 6.45579 3.50345 6.46387 3.55735C6.47196 3.61125 6.47869 3.64898 6.48408 3.67054C6.55415 3.68671 6.62692 3.6948 6.70237 3.6948C7.0635 3.6948 7.44753 3.587 7.85447 3.3714C8.26141 3.1558 8.59963 2.88361 8.86913 2.55483Z" fill="white"/>
</svg>
