<?xml version="1.0" encoding="UTF-8"?>
<svg width="10px" height="10px" viewBox="0 0 10 10" version="1.1" xmlns="http://www.w3.org/2000/svg" xmlns:xlink="http://www.w3.org/1999/xlink">
    <title>Fill 73</title>
    <g id="Page-1" stroke="none" stroke-width="1" fill="none" fill-rule="evenodd">
        <g id="circle_logo_baseline_stores_3x3in" transform="translate(-113.000000, -139.000000)" fill="#FFFFFE">
            <path d="M115.3701,139.2539 L120.5671,142.2669 L119.4701,143.3699 L115.3701,139.2539 Z M122.1851,143.2049 C122.3581,143.3379 122.4701,143.5469 122.4701,143.7819 C122.4701,144.0149 122.3621,144.2219 122.1931,144.3549 L121.0891,144.9949 L119.8791,143.7809 L121.0881,142.5679 L122.1851,143.2049 Z M120.5681,145.2959 L115.3661,148.3119 L119.4701,144.1919 L120.5681,145.2959 Z M113.8931,147.9049 L113.8931,139.6599 C113.8931,139.3719 114.0601,139.1229 114.3021,139.0059 L119.0591,143.7809 L114.3001,148.5589 C114.0591,148.4409 113.8931,148.1919 113.8931,147.9049 L113.8931,147.9049 Z" id="Fill-73"></path>
        </g>
    </g>
</svg>