<svg width="59" height="28" viewBox="0 0 59 28" fill="none" xmlns="http://www.w3.org/2000/svg">
<g filter="url(#filter0_b_1825_2160)">
<path d="M0 13.7369C0 6.15024 6.15024 0 13.7369 0H44.9972C52.5839 0 58.7341 6.15024 58.7341 13.7369C58.7341 21.3237 52.5839 27.4739 44.9972 27.4739H13.7369C6.15023 27.4739 0 21.3237 0 13.7369Z" fill="black" fill-opacity="0.41"/>
<path d="M16.1658 21.0062C15.9559 20.9831 15.8019 20.7928 15.825 20.5828C15.8481 20.371 16.0387 20.219 16.2504 20.2421C16.4622 20.2652 16.6142 20.4538 16.5911 20.6655C16.57 20.8638 16.4025 21.0101 16.2081 21.0101C16.1946 21.0101 16.1812 21.0082 16.1658 21.0062Z" fill="white"/>
<path d="M17.3779 20.6632C17.3548 20.4532 17.5069 20.2607 17.7167 20.2378C17.9286 20.2126 18.119 20.3647 18.144 20.5766C18.1671 20.7864 18.0151 20.977 17.8053 21.002C17.7899 21.0039 17.7745 21.0059 17.7612 21.0059C17.5685 21.0059 17.401 20.8596 17.3779 20.6632Z" fill="white"/>
<path d="M14.5682 20.6479C14.368 20.5786 14.2621 20.3591 14.3314 20.1568C14.4007 19.9566 14.6201 19.8508 14.8203 19.9203C15.0224 19.9896 15.1283 20.209 15.059 20.4092C15.0032 20.5689 14.855 20.669 14.6952 20.669C14.6529 20.669 14.6105 20.6611 14.5682 20.6479Z" fill="white"/>
<path d="M18.9093 20.3996C18.8381 20.1994 18.9439 19.9798 19.1441 19.9086C19.3443 19.8376 19.5639 19.9434 19.635 20.1436C19.7062 20.3457 19.6003 20.565 19.4001 20.6364C19.3578 20.6499 19.3135 20.6576 19.2712 20.6576C19.1131 20.6576 18.9651 20.5573 18.9093 20.3996Z" fill="white"/>
<path d="M13.0911 19.9422C12.9102 19.8284 12.8563 19.5918 12.968 19.4107C13.0815 19.2317 13.3183 19.1759 13.4992 19.2894C13.6802 19.4011 13.7341 19.6398 13.6224 19.8188C13.5493 19.9362 13.4222 19.9997 13.2952 19.9997C13.2259 19.9999 13.1547 19.9805 13.0911 19.9422Z" fill="white"/>
<path d="M20.3425 19.8017C20.2289 19.6227 20.2809 19.384 20.4618 19.2704V19.2724C20.6408 19.1569 20.8774 19.2108 20.9931 19.3898C21.1066 19.5705 21.0528 19.8075 20.8737 19.921C20.8737 19.921 20.8737 19.921 20.8737 19.923C20.8083 19.9634 20.7371 19.9807 20.6678 19.9807C20.5388 19.9805 20.4156 19.9191 20.3425 19.8017Z" fill="white"/>
<path d="M11.8106 18.923C11.8087 18.9209 11.8048 18.9172 11.8029 18.9153C11.801 18.9132 11.7971 18.9095 11.7952 18.9076C11.6451 18.7574 11.6451 18.5128 11.7952 18.3628C11.9454 18.2127 12.1898 18.2127 12.34 18.3628C12.3419 18.3648 12.3419 18.3667 12.3438 18.3667C12.3477 18.3707 12.3496 18.3744 12.3534 18.3763C12.5036 18.5265 12.5055 18.7711 12.3554 18.9211C12.2803 18.9963 12.1802 19.0348 12.082 19.0348C11.9839 19.0346 11.8857 18.9981 11.8106 18.923Z" fill="white"/>
<path d="M21.6069 18.8996C21.4567 18.7496 21.4548 18.505 21.6049 18.355H21.6069C21.7553 18.203 21.9995 18.203 22.1497 18.3529C22.3017 18.5031 22.3017 18.7477 22.1516 18.8977C22.0765 18.9729 21.9786 19.0112 21.8783 19.0112C21.7801 19.0112 21.6819 18.9729 21.6069 18.8996Z" fill="white"/>
<path d="M10.7703 17.6287C10.7703 17.6287 10.7703 17.6287 10.7703 17.6306C10.6567 17.4498 10.7106 17.2129 10.8915 17.0993C11.0705 16.9858 11.3092 17.0397 11.4228 17.2187C11.5344 17.3996 11.4805 17.6364 11.3015 17.7499C11.238 17.7904 11.1668 17.8098 11.0956 17.8098C10.9685 17.8096 10.8434 17.7461 10.7703 17.6287Z" fill="white"/>
<path d="M22.6403 17.7377C22.4595 17.6242 22.4055 17.3855 22.5171 17.2065C22.6307 17.0255 22.8672 16.9715 23.0484 17.085C23.2293 17.1967 23.2832 17.4354 23.1696 17.6144C23.0965 17.7318 22.9714 17.7953 22.8445 17.7953C22.7731 17.7955 22.7038 17.7762 22.6403 17.7377Z" fill="white"/>
<path d="M10.0608 16.1549C9.98956 15.9547 10.0954 15.7335 10.2956 15.664C10.4977 15.5947 10.7172 15.6987 10.7865 15.9008C10.8577 16.101 10.7518 16.3204 10.5497 16.3916C10.5093 16.4049 10.465 16.4126 10.4246 16.4126C10.2648 16.4126 10.1147 16.3127 10.0608 16.1549Z" fill="white"/>
<path d="M23.3857 16.3757C23.1855 16.3064 23.0796 16.0869 23.1491 15.8868C23.2182 15.6866 23.4379 15.5786 23.64 15.65C23.8402 15.7193 23.946 15.9387 23.8765 16.1389C23.8207 16.2987 23.6725 16.3968 23.5127 16.3968C23.4704 16.3967 23.4279 16.3911 23.3857 16.3757Z" fill="white"/>
<path d="M9.69766 14.5561C9.67456 14.3463 9.8247 14.1558 10.0364 14.1307C10.2482 14.1076 10.4387 14.2597 10.4618 14.4714C10.4869 14.6814 10.3348 14.8718 10.1231 14.897C10.1077 14.899 10.0942 14.899 10.0807 14.899C9.88629 14.8988 9.71883 14.7544 9.69766 14.5561Z" fill="white"/>
<path d="M23.8118 14.8797C23.6 14.8566 23.448 14.6661 23.4711 14.4563C23.4942 14.2443 23.6845 14.0923 23.8965 14.1154C24.1082 14.1385 24.2603 14.3273 24.2372 14.5388C24.2372 14.5388 24.2372 14.5388 24.2372 14.5408C24.2141 14.7373 24.0487 14.8816 23.8543 14.8816C23.8406 14.8816 23.8272 14.8816 23.8118 14.8797Z" fill="white"/>
<path d="M10.0368 13.3443C9.82505 13.3212 9.67298 13.1307 9.69801 12.9189C9.72111 12.7072 9.91167 12.5551 10.1234 12.5782C10.3332 12.6033 10.4853 12.7919 10.4622 13.0036C10.441 13.2019 10.2735 13.3463 10.0791 13.3463C10.0657 13.3463 10.0522 13.3463 10.0368 13.3443Z" fill="white"/>
<path d="M23.4676 12.9908C23.4445 12.781 23.5944 12.5885 23.8063 12.5654C24.0181 12.5404 24.2086 12.6925 24.2337 12.9042C24.2568 13.116 24.1047 13.3065 23.893 13.3296C23.8795 13.3315 23.8641 13.3335 23.8504 13.3335C23.6562 13.3335 23.4905 13.1872 23.4676 12.9908Z" fill="white"/>
<path d="M10.2973 11.8123C10.0971 11.743 9.98934 11.5236 10.0606 11.3215C10.0606 11.3215 10.0606 11.3215 10.0606 11.3234C10.1299 11.1213 10.3493 11.0154 10.5495 11.0866C10.7516 11.1559 10.8575 11.3754 10.7862 11.5756C10.7323 11.7353 10.5822 11.8335 10.4244 11.8335C10.382 11.8335 10.3397 11.8277 10.2973 11.8123Z" fill="white"/>
<path d="M23.1418 11.5633C23.0706 11.3631 23.1765 11.1437 23.3784 11.0725C23.5786 11.0032 23.7982 11.1071 23.8673 11.3092C23.9385 11.5094 23.8327 11.7288 23.6325 11.8001C23.5901 11.8135 23.5478 11.8212 23.5054 11.8212C23.3459 11.8212 23.1976 11.7231 23.1418 11.5633Z" fill="white"/>
<path d="M10.8897 10.3787C10.7107 10.2652 10.6568 10.0265 10.7703 9.84746C10.882 9.66652 11.1207 9.61262 11.2997 9.72619C11.4806 9.83976 11.5345 10.0765 11.421 10.2575C11.3478 10.373 11.2227 10.4365 11.0956 10.4365C11.0244 10.4365 10.9532 10.4172 10.8897 10.3787Z" fill="white"/>
<path d="M22.5045 10.2438C22.3909 10.0648 22.4448 9.82609 22.6238 9.71252C22.8028 9.59895 23.0415 9.65285 23.1551 9.83379C23.2688 10.0128 23.2149 10.2515 23.0359 10.3651C22.9703 10.4055 22.8991 10.4247 22.83 10.4247C22.7027 10.4247 22.5774 10.3612 22.5045 10.2438Z" fill="white"/>
<path d="M11.7916 9.11291C11.6414 8.96277 11.6414 8.71831 11.7916 8.56817C11.9417 8.41803 12.1862 8.41803 12.3363 8.56817C12.4864 8.71831 12.4864 8.96085 12.3363 9.11291C12.2612 9.18798 12.1631 9.22455 12.063 9.22455C11.9648 9.22455 11.8666 9.18798 11.7916 9.11291Z" fill="white"/>
<path d="M21.5863 9.10144C21.4343 8.9513 21.4343 8.70876 21.5844 8.5567C21.7346 8.40656 21.979 8.40656 22.1292 8.5567C22.2791 8.70684 22.2791 8.94937 22.1292 9.10144C22.0539 9.17651 21.9559 9.215 21.8577 9.215C21.7596 9.21308 21.6612 9.17651 21.5863 9.10144Z" fill="white"/>
<path d="M12.9498 8.07521C12.8362 7.89619 12.8882 7.65751 13.0691 7.54394C13.2481 7.4323 13.4868 7.48427 13.6004 7.66521C13.7139 7.84422 13.6601 8.08291 13.4791 8.19648C13.4156 8.2369 13.3444 8.25615 13.2751 8.25615C13.148 8.25615 13.0229 8.19263 12.9498 8.07521Z" fill="white"/>
<path d="M20.4415 8.18734C20.2625 8.07377 20.2066 7.83701 20.3202 7.65608C20.4338 7.47706 20.6705 7.42124 20.8515 7.53481C21.0305 7.64838 21.0863 7.88514 20.9727 8.06607C20.8996 8.18157 20.7747 8.24701 20.6455 8.24701C20.5762 8.24701 20.505 8.22776 20.4415 8.18734Z" fill="white"/>
<path d="M14.3075 7.32143C14.2363 7.12124 14.3421 6.90181 14.5423 6.83251C14.7444 6.76129 14.9639 6.86716 15.0332 7.06735C15.1044 7.26946 14.9985 7.48889 14.7983 7.55819C14.756 7.57359 14.7117 7.57936 14.6694 7.57936C14.5115 7.57936 14.3633 7.48119 14.3075 7.32143Z" fill="white"/>
<path d="M19.1213 7.55523C18.9211 7.48401 18.8152 7.26458 18.8847 7.06439C18.9538 6.8642 19.1735 6.75833 19.3756 6.82763C19.5758 6.89693 19.6816 7.11636 19.6123 7.31847C19.5565 7.47631 19.4083 7.57641 19.2485 7.57641C19.2062 7.57641 19.1638 7.56871 19.1213 7.55523Z" fill="white"/>
<path d="M15.7991 6.89207C15.776 6.68226 15.928 6.4917 16.1398 6.46667C16.3496 6.44358 16.5401 6.59564 16.5652 6.80738C16.5883 7.01719 16.4362 7.20775 16.2264 7.23277C16.211 7.2347 16.1956 7.2347 16.1821 7.2347C15.9896 7.2347 15.8222 7.08841 15.7991 6.89207Z" fill="white"/>
<path d="M17.6914 7.23204C17.4797 7.20894 17.3276 7.01838 17.3507 6.80664C17.3738 6.59491 17.5642 6.44284 17.7761 6.46594C17.9878 6.48904 18.1399 6.6796 18.1168 6.89134C18.0937 7.08768 17.9284 7.23397 17.734 7.23397C17.7203 7.23397 17.7049 7.23397 17.6914 7.23204Z" fill="white"/>
<path d="M16.9671 18.4416C15.7098 18.4416 14.5278 17.952 13.6389 17.0629C11.8038 15.2278 11.8038 12.2416 13.6389 10.4066C15.4739 8.57159 18.4601 8.57141 20.2953 10.4066C21.1843 11.2955 21.6739 12.4775 21.6739 13.7348C21.6739 14.9921 21.1843 16.1741 20.2953 17.0629C19.4062 17.9518 18.2244 18.4416 16.9671 18.4416ZM16.9671 9.71555C15.9373 9.71555 14.9077 10.1076 14.1238 10.8914C12.556 12.4593 12.556 15.0102 14.1238 16.5781C14.8832 17.3378 15.8929 17.7559 16.9671 17.7559C18.0411 17.7559 19.0508 17.3378 19.8105 16.5781C20.5701 15.8185 20.9882 14.8088 20.9882 13.7348C20.9882 12.6606 20.5701 11.6508 19.8105 10.8914C19.0265 10.1076 17.9969 9.71555 16.9671 9.71555Z" fill="white"/>
<circle cx="16.9674" cy="13.7359" r="2.13894" fill="white"/>
<path d="M29.0835 17.2371V16.2114H31.2837C31.7726 16.2114 32.1436 16.1122 32.3966 15.9139C32.6496 15.7122 32.7761 15.4233 32.7761 15.0472V15.0369C32.7761 14.7873 32.718 14.5771 32.6017 14.4061C32.4855 14.2352 32.3111 14.1069 32.0786 14.0215C31.8495 13.936 31.5658 13.8932 31.2273 13.8932H29.0835V12.9547H31.0221C31.4905 12.9547 31.8461 12.8658 32.0889 12.688C32.335 12.5102 32.4581 12.2538 32.4581 11.9188V11.9085C32.4581 11.5803 32.347 11.3238 32.1248 11.1392C31.9025 10.9546 31.5914 10.8623 31.1914 10.8623H29.0835V9.83657H31.5093C31.9812 9.83657 32.3846 9.91179 32.7197 10.0622C33.0547 10.2092 33.3129 10.4212 33.4941 10.6982C33.6753 10.9717 33.7659 11.2982 33.7659 11.6777V11.688C33.7659 11.9478 33.7061 12.1906 33.5864 12.4162C33.4702 12.6419 33.3129 12.8299 33.1146 12.9804C32.9197 13.1308 32.6975 13.2265 32.4479 13.2676V13.3599C32.7795 13.3906 33.0701 13.4864 33.3197 13.6471C33.5727 13.8044 33.7693 14.0112 33.9095 14.2676C34.0531 14.5241 34.1249 14.8113 34.1249 15.1292V15.1395C34.1249 15.5703 34.0223 15.943 33.8172 16.2575C33.6155 16.5721 33.3248 16.8148 32.9453 16.9858C32.5658 17.1533 32.1128 17.2371 31.5863 17.2371H29.0835ZM28.422 17.2371V9.83657H29.7451V17.2371H28.422ZM37.4123 17.2371V10.9495H35.1352V9.83657H41.0125V10.9495H38.7355V17.2371H37.4123ZM44.9718 17.4217C44.3974 17.4217 43.8982 17.3328 43.4742 17.155C43.0537 16.9772 42.7221 16.7293 42.4793 16.4114C42.2366 16.0934 42.0998 15.7224 42.069 15.2985L42.0639 15.2267H43.346L43.3512 15.278C43.3717 15.4865 43.4537 15.6677 43.5973 15.8216C43.7443 15.9754 43.9392 16.0968 44.182 16.1857C44.4247 16.2712 44.7017 16.3139 45.0128 16.3139C45.3103 16.3139 45.5735 16.2678 45.8026 16.1755C46.0317 16.0831 46.2112 15.9566 46.3411 15.7959C46.471 15.6318 46.536 15.4438 46.536 15.2318V15.2267C46.536 14.96 46.4317 14.7429 46.2231 14.5753C46.0146 14.4044 45.671 14.2676 45.1923 14.1651L44.3974 14.0009C43.6384 13.8403 43.0862 13.5838 42.7409 13.2317C42.399 12.8761 42.228 12.4231 42.228 11.8726V11.8675C42.228 11.4264 42.3443 11.0401 42.5768 10.7084C42.8127 10.3768 43.1358 10.1186 43.546 9.93401C43.9597 9.74596 44.4333 9.65194 44.9667 9.65194C45.5137 9.65194 45.9872 9.74425 46.3873 9.92888C46.7873 10.1101 47.1018 10.358 47.3309 10.6725C47.56 10.9871 47.6882 11.3426 47.7156 11.7393L47.7207 11.8059H46.4591L46.4488 11.7444C46.418 11.5495 46.3377 11.3803 46.2078 11.2367C46.0813 11.0896 45.912 10.9734 45.7 10.8879C45.4881 10.8024 45.2402 10.7597 44.9564 10.7597C44.6863 10.7597 44.4453 10.8024 44.2333 10.8879C44.0213 10.97 43.8538 11.0862 43.7307 11.2367C43.611 11.3871 43.5512 11.5683 43.5512 11.7803V11.7854C43.5512 12.0453 43.652 12.2607 43.8538 12.4316C44.0589 12.6026 44.3923 12.7359 44.8538 12.8316L45.6488 13.0009C46.1684 13.1103 46.5907 13.2556 46.9155 13.4368C47.2403 13.618 47.4779 13.8437 47.6284 14.1138C47.7822 14.3805 47.8592 14.7018 47.8592 15.0779V15.0831C47.8592 15.5617 47.7412 15.9754 47.5053 16.3242C47.2728 16.6729 46.9394 16.943 46.5052 17.1345C46.0744 17.326 45.5633 17.4217 44.9718 17.4217Z" fill="white"/>
</g>
<defs>
<filter id="filter0_b_1825_2160" x="-56.556" y="-56.556" width="171.846" height="140.586" filterUnits="userSpaceOnUse" color-interpolation-filters="sRGB">
<feFlood flood-opacity="0" result="BackgroundImageFix"/>
<feGaussianBlur in="BackgroundImageFix" stdDeviation="28.278"/>
<feComposite in2="SourceAlpha" operator="in" result="effect1_backgroundBlur_1825_2160"/>
<feBlend mode="normal" in="SourceGraphic" in2="effect1_backgroundBlur_1825_2160" result="shape"/>
</filter>
</defs>
</svg>
