<svg xmlns="http://www.w3.org/2000/svg" width="" height="" viewBox="0 0 3000 750" version="1.1"><path d="M 2112.696 197.899 C 2109.503 198.954, 2104.947 201.332, 2102.570 203.183 C 2100.194 205.035, 2097.060 207.964, 2095.605 209.693 C 2094.150 211.422, 2092.042 214.912, 2090.919 217.449 C 2089.797 219.987, 2088.447 224.745, 2087.919 228.023 C 2087.278 232.004, 2087.313 236.228, 2088.026 240.742 C 2088.613 244.459, 2090.063 249.525, 2091.247 252 C 2092.432 254.475, 2095.673 258.767, 2098.451 261.539 C 2101.228 264.310, 2105.602 267.558, 2108.172 268.757 C 2110.741 269.956, 2115.804 271.409, 2119.422 271.987 C 2124.020 272.722, 2127.980 272.722, 2132.578 271.987 C 2136.196 271.409, 2141.259 269.956, 2143.828 268.757 C 2146.398 267.558, 2150.772 264.310, 2153.549 261.539 C 2156.327 258.767, 2159.614 254.394, 2160.855 251.820 C 2162.096 249.246, 2163.576 244.150, 2164.145 240.496 C 2164.886 235.738, 2164.855 231.989, 2164.036 227.287 C 2163.408 223.677, 2161.765 218.496, 2160.385 215.774 C 2159.006 213.052, 2155.968 208.916, 2153.634 206.582 C 2151.301 204.248, 2146.793 201.067, 2143.617 199.513 C 2138.753 197.134, 2136.316 196.632, 2128.171 196.334 C 2120.608 196.058, 2117.235 196.399, 2112.696 197.899 M 145 199 C 145 199.550, 144.100 200, 143 200 C 141.900 200, 141 200.450, 141 201 C 141 201.550, 138.849 202, 136.221 202 C 132.589 202, 131.096 202.480, 130 204 C 129.207 205.100, 127.758 206, 126.779 206 C 125.801 206, 125 206.450, 125 207 C 125 207.550, 123.749 208, 122.221 208 C 120.589 208, 118.847 208.826, 118 210 C 117.207 211.100, 115.758 212, 114.779 212 C 113.801 212, 113 212.690, 113 213.533 C 113 214.377, 111.440 216.627, 109.533 218.533 C 107.627 220.440, 105.377 222, 104.533 222 C 103.667 222, 103 222.870, 103 224 C 103 225.100, 102.599 226, 102.108 226 C 101.618 226, 100.934 227.125, 100.589 228.500 C 100.244 229.875, 99.520 231, 98.981 231 C 98.441 231, 98 231.900, 98 233 C 98 234.100, 97.550 235, 97 235 C 96.450 235, 96 235.900, 96 237 C 96 238.100, 95.550 239, 95 239 C 94.450 239, 94 240.350, 94 242 C 94 243.650, 93.550 245, 93 245 C 92.450 245, 92 245.900, 92 247 C 92 248.100, 91.550 249, 91 249 C 90.338 249, 90 301, 90 403 C 90 505, 90.338 557, 91 557 C 91.550 557, 92 557.900, 92 559 C 92 560.100, 92.450 561, 93 561 C 93.550 561, 94 562.701, 94 564.779 C 94 567.411, 94.607 568.996, 96 570 C 97.174 570.847, 98 572.589, 98 574.221 C 98 575.749, 98.450 577, 99 577 C 99.550 577, 100 577.900, 100 579 C 100 580.111, 100.667 581, 101.500 581 C 102.325 581, 103 581.801, 103 582.779 C 103 583.758, 103.968 585.220, 105.152 586.029 C 106.336 586.838, 109.701 589.863, 112.630 592.750 C 115.560 595.638, 118.641 598, 119.478 598 C 120.315 598, 121 598.450, 121 599 C 121 599.550, 121.801 600, 122.779 600 C 123.758 600, 125.207 600.900, 126 602 C 127.004 603.393, 128.589 604, 131.221 604 C 133.299 604, 135 604.450, 135 605 C 135 605.550, 135.900 606, 137 606 C 138.100 606, 139 606.450, 139 607 C 139 607.662, 191.333 608, 294 608 C 396.667 608, 449 607.662, 449 607 C 449 606.450, 450.350 606, 452 606 C 453.650 606, 455 605.550, 455 605 C 455 604.450, 456.125 604, 457.500 604 C 458.875 604, 460 603.550, 460 603 C 460 602.450, 461.251 602, 462.779 602 C 464.411 602, 466.153 601.174, 467 600 C 467.793 598.900, 469.242 598, 470.221 598 C 471.333 598, 472 597.251, 472 596 C 472 594.667, 472.667 594, 474 594 C 475.100 594, 476 593.550, 476 593 C 476 592.450, 476.900 592, 478 592 C 479.333 592, 480 591.333, 480 590 C 480 588.667, 480.667 588, 482 588 C 483.111 588, 484 587.333, 484 586.500 C 484 585.675, 484.450 585, 485 585 C 485.550 585, 486 584.199, 486 583.221 C 486 582.242, 486.900 580.793, 488 580 C 489.100 579.207, 490 577.857, 490 577 C 490 576.143, 490.900 574.793, 492 574 C 493.174 573.153, 494 571.411, 494 569.779 C 494 568.251, 494.450 567, 495 567 C 495.550 567, 496 565.650, 496 564 C 496 562.350, 496.450 561, 497 561 C 497.550 561, 498 559.650, 498 558 C 498 556.350, 498.450 555, 499 555 C 499.662 555, 500 504, 500 404 C 500 304, 499.662 253, 499 253 C 498.450 253, 498 251.200, 498 249 C 498 246.800, 497.550 245, 497 245 C 496.450 245, 496 243.650, 496 242 C 496 240.350, 495.550 239, 495 239 C 494.450 239, 494 238.199, 494 237.221 C 494 236.242, 493.100 234.793, 492 234 C 490.900 233.207, 490 231.758, 490 230.779 C 490 229.801, 489.550 229, 489 229 C 488.450 229, 488 228.424, 488 227.721 C 488 227.017, 487.100 225.793, 486 225 C 484.900 224.207, 484 222.758, 484 221.779 C 484 220.801, 483.300 220, 482.445 220 C 481.589 220, 478.239 217.300, 475 214 C 471.761 210.700, 468.411 208, 467.555 208 C 466.700 208, 466 207.550, 466 207 C 466 206.450, 464.425 206, 462.500 206 C 459.667 206, 459 205.619, 459 204 C 459 202.267, 458.333 202, 454 202 C 451.250 202, 449 201.550, 449 201 C 449 200.450, 448.100 200, 447 200 C 445.900 200, 445 199.550, 445 199 C 445 198.338, 394.333 198, 295 198 C 195.667 198, 145 198.338, 145 199 M 847.500 204.668 C 845.850 204.871, 840.257 205.727, 835.070 206.571 C 829.884 207.414, 820.880 209.643, 815.062 211.524 C 809.244 213.405, 800.505 216.974, 795.642 219.456 C 790.779 221.937, 783.887 226.046, 780.326 228.587 C 776.766 231.127, 770.943 235.928, 767.386 239.255 C 763.830 242.582, 758.345 248.723, 755.198 252.902 C 752.052 257.081, 747.619 264.100, 745.348 268.500 C 743.077 272.900, 740 279.875, 738.510 284 C 737.019 288.125, 734.859 295.550, 733.710 300.500 C 731.702 309.152, 731.606 312.631, 731.232 390.500 C 730.950 449.176, 731.169 473.945, 732.026 480.370 C 732.676 485.249, 734.304 493.333, 735.643 498.335 C 736.981 503.337, 740.071 511.640, 742.508 516.785 C 744.945 521.930, 748.971 529.197, 751.455 532.932 C 753.939 536.668, 758.939 542.931, 762.567 546.849 C 766.195 550.768, 772.639 556.593, 776.888 559.795 C 781.137 562.996, 789.166 567.954, 794.729 570.812 C 800.293 573.670, 809.043 577.382, 814.173 579.060 C 819.303 580.739, 828.675 583.043, 835 584.181 C 844.048 585.808, 850.657 586.249, 866 586.249 C 881.343 586.249, 887.952 585.808, 897 584.181 C 903.325 583.043, 912.616 580.766, 917.646 579.120 C 922.676 577.474, 930.551 574.242, 935.146 571.938 C 939.741 569.633, 946.727 565.523, 950.671 562.804 C 954.615 560.084, 961.822 553.728, 966.686 548.680 C 971.549 543.631, 977.250 536.889, 979.353 533.698 C 981.456 530.506, 985.145 523.740, 987.550 518.663 C 989.955 513.585, 993.069 505.171, 994.469 499.965 C 995.869 494.759, 997.686 485.414, 998.507 479.199 C 999.625 470.737, 1000 457.502, 1000 426.521 C 1000 385.145, 1000 385.145, 997.338 383.051 C 994.691 380.969, 994.328 380.959, 930.249 381.229 C 865.823 381.500, 865.823 381.500, 863.911 383.861 C 862.159 386.025, 862 388.051, 862 408.156 C 862 430.091, 862 430.091, 864.455 432.545 C 866.909 435, 866.909 435, 901.955 435 C 937 435, 937 435, 937 457.340 C 937 476.144, 936.694 480.876, 935.068 487.234 C 934.006 491.388, 931.696 497.647, 929.935 501.144 C 927.948 505.089, 924.223 509.969, 920.117 514.009 C 915.666 518.387, 911.045 521.720, 906 524.190 C 901.875 526.210, 895.800 528.608, 892.500 529.519 C 888.925 530.506, 880.803 531.391, 872.402 531.709 C 861.446 532.124, 856.445 531.866, 849.963 530.553 C 845.375 529.623, 838.995 527.795, 835.785 526.491 C 832.575 525.186, 826.844 522.056, 823.051 519.534 C 819.257 517.012, 813.874 512.454, 811.087 509.405 C 808.300 506.355, 804.477 501.080, 802.592 497.680 C 800.706 494.281, 798.114 488.125, 796.832 484 C 794.500 476.500, 794.500 476.500, 794.500 396 C 794.500 322.380, 794.650 314.944, 796.255 309 C 797.220 305.425, 799.861 298.725, 802.123 294.111 C 805.209 287.814, 808.014 283.948, 813.368 278.611 C 817.290 274.700, 823.049 270.006, 826.165 268.179 C 829.281 266.353, 835.008 263.784, 838.892 262.470 C 842.775 261.156, 849.901 259.554, 854.726 258.911 C 859.759 258.240, 867.316 258.011, 872.449 258.374 C 877.371 258.722, 884.346 259.719, 887.949 260.591 C 891.552 261.462, 898.325 264.032, 903 266.301 C 909.559 269.485, 913.232 272.154, 919.083 277.986 C 924.623 283.508, 927.651 287.559, 930.323 293.022 C 932.334 297.135, 934.629 303.200, 935.422 306.500 C 936.215 309.800, 937.168 316.325, 937.539 321 C 937.970 326.434, 938.772 330.131, 939.762 331.250 C 941.166 332.837, 943.885 333, 969 333 C 994.556 333, 996.818 332.859, 998.345 331.171 C 999.654 329.725, 1000 327.242, 1000 319.302 C 1000 313.780, 999.327 305.401, 998.504 300.683 C 997.681 295.964, 995.454 287.757, 993.556 282.445 C 991.657 277.133, 988.168 269.403, 985.802 265.266 C 983.436 261.129, 978.557 254.108, 974.960 249.663 C 971.363 245.219, 964.388 238.318, 959.460 234.328 C 954.532 230.338, 947.246 225.212, 943.269 222.935 C 939.292 220.659, 932.430 217.236, 928.020 215.330 C 923.610 213.423, 914.939 210.588, 908.751 209.030 C 902.563 207.472, 893.450 205.704, 888.500 205.101 C 883.550 204.499, 872.975 204.072, 865 204.153 C 857.025 204.234, 849.150 204.466, 847.500 204.668 M 156 209 C 156 209.550, 154.875 210, 153.500 210 C 152.125 210, 151 210.450, 151 211 C 151 211.556, 148.333 212, 145 212 C 141.667 212, 139 212.444, 139 213 C 139 213.550, 138.100 214, 137 214 C 135.900 214, 135 214.450, 135 215 C 135 215.550, 134.100 216, 133 216 C 131.900 216, 131 216.450, 131 217 C 131 217.550, 130.199 218, 129.221 218 C 128.242 218, 126.793 218.900, 126 220 C 125.207 221.100, 123.968 222, 123.246 222 C 122.524 222, 120.358 223.575, 118.433 225.500 C 116.508 227.425, 114.498 229, 113.967 229 C 113.435 229, 113 229.719, 113 230.599 C 113 231.478, 111.650 233.459, 110 235 C 108.293 236.594, 107 238.828, 107 240.180 C 107 241.488, 106.100 243.207, 105 244 C 103.900 244.793, 103 246.205, 103 247.137 C 103 248.070, 102.438 249.062, 101.750 249.341 C 100.791 249.730, 100.829 250.077, 101.912 250.833 C 103.112 251.670, 103.077 252.066, 101.680 253.463 C 100.168 254.975, 100.036 267.147, 100.053 404.018 C 100.068 533.433, 100.263 553.120, 101.535 554.393 C 102.341 555.198, 103 557.365, 103 559.208 C 103 561.411, 103.685 563.052, 105 564 C 106.103 564.795, 107 566.589, 107 568 C 107 569.411, 107.897 571.205, 109 572 C 110.100 572.793, 111 574.027, 111 574.742 C 111 575.458, 113.465 578.509, 116.478 581.522 C 119.491 584.535, 122.621 587, 123.433 587 C 124.245 587, 126.034 588.125, 127.409 589.500 C 128.784 590.875, 131.055 592, 132.455 592 C 133.855 592, 135 592.450, 135 593 C 135 593.550, 136.350 594, 138 594 C 139.650 594, 141 594.450, 141 595 C 141 595.550, 142.350 596, 144 596 C 145.650 596, 147 596.450, 147 597 C 147 597.652, 163.190 598, 193.571 598 C 232.600 598, 240.374 597.769, 241.571 596.571 C 242.434 595.709, 243 593.133, 243 590.071 C 243 587.282, 243.450 585, 244 585 C 244.550 585, 245 583.650, 245 582 C 245 580.350, 245.450 579, 246 579 C 246.556 579, 247 576.333, 247 573 C 247 569.667, 247.444 567, 248 567 C 248.550 567, 249 564.750, 249 562 C 249 559.250, 249.450 557, 250 557 C 250.550 557, 251 555.200, 251 553 C 251 550.800, 251.396 549, 251.881 549 C 252.366 549, 253.083 544.725, 253.474 539.500 C 253.866 534.275, 254.595 530, 255.093 530 C 255.592 530, 256 528.650, 256 527 C 256 524.544, 255.587 524, 253.721 524 C 252.467 524, 250.793 523.100, 250 522 C 249.207 520.900, 247.758 520, 246.779 520 C 245.801 520, 245 519.550, 245 519 C 245 518.450, 244.199 518, 243.221 518 C 242.242 518, 240.793 517.100, 240 516 C 239.207 514.900, 237.978 514, 237.268 514 C 236.558 514, 231.257 509.280, 225.488 503.512 C 219.720 497.743, 215 492.442, 215 491.732 C 215 491.022, 214.100 489.793, 213 489 C 211.900 488.207, 211 486.983, 211 486.279 C 211 485.576, 210.550 485, 210 485 C 209.450 485, 209 484.199, 209 483.221 C 209 482.242, 208.100 480.793, 207 480 C 205.900 479.207, 205 477.501, 205 476.208 C 205 474.915, 204.325 473.182, 203.500 472.357 C 202.675 471.532, 202 469.539, 202 467.929 C 202 466.318, 201.550 465, 201 465 C 200.450 465, 200 462.915, 200 460.367 C 200 456.828, 199.477 455.281, 197.782 453.811 C 195.899 452.178, 195.786 451.734, 197.032 450.868 C 198.144 450.095, 198.197 449.725, 197.250 449.341 C 196.419 449.003, 196 446.513, 196 441.917 C 196 437.972, 195.570 435, 195 435 C 194.404 435, 194 431.167, 194 425.500 C 194 419.833, 194.404 416, 195 416 C 195.593 416, 196 412.333, 196 407 C 196 401.667, 196.407 398, 197 398 C 197.550 398, 198 397.100, 198 396 C 198 394.900, 198.450 394, 199 394 C 199.550 394, 200 392.200, 200 390 C 200 387.800, 200.450 386, 201 386 C 201.550 386, 202 384.907, 202 383.571 C 202 382.236, 202.675 380.468, 203.500 379.643 C 204.325 378.818, 205 377.436, 205 376.571 C 205 375.707, 205.450 375, 206 375 C 206.550 375, 207 374.100, 207 373 C 207 371.900, 207.450 371, 208 371 C 208.550 371, 209 370.100, 209 369 C 209 367.900, 209.450 367, 210 367 C 210.550 367, 211 366.199, 211 365.221 C 211 364.242, 211.900 362.793, 213 362 C 214.100 361.207, 215 359.758, 215 358.779 C 215 357.667, 215.749 357, 217 357 C 218.119 357, 219 356.333, 219 355.486 C 219 354.653, 222.819 350.153, 227.486 345.486 C 232.153 340.819, 236.554 337, 237.265 337 C 237.976 337, 239.207 336.100, 240 335 C 240.793 333.900, 242.242 333, 243.221 333 C 244.199 333, 245 332.550, 245 332 C 245 331.450, 245.900 331, 247 331 C 248.111 331, 249 330.333, 249 329.500 C 249 328.667, 249.889 328, 251 328 C 252.309 328, 253 327.333, 253 326.071 C 253 325.011, 253.675 323.468, 254.500 322.643 C 255.325 321.818, 256 320.436, 256 319.571 C 256 318.707, 256.450 318, 257 318 C 257.550 318, 258 316.200, 258 314 C 258 311.800, 258.450 310, 259 310 C 259.606 310, 260 305.667, 260 299 C 260 292.333, 260.394 288, 261 288 C 261.550 288, 262 287.100, 262 286 C 262 284.900, 261.550 284, 261 284 C 260.450 284, 260 281.975, 260 279.500 C 260 277.025, 260.450 275, 261 275 C 261.550 275, 262 273.200, 262 271 C 262 268.800, 262.450 267, 263 267 C 263.550 267, 264 266.100, 264 265 C 264 263.900, 264.450 263, 265 263 C 265.550 263, 266 262.199, 266 261.221 C 266 260.242, 266.900 258.793, 268 258 C 269.100 257.207, 270 255.968, 270 255.246 C 270 254.524, 271.560 252.373, 273.467 250.467 C 275.373 248.560, 277.524 247, 278.246 247 C 278.968 247, 280.207 246.100, 281 245 C 281.847 243.826, 283.589 243, 285.221 243 C 286.749 243, 288 242.550, 288 242 C 288 241.450, 288.900 241, 290 241 C 291.100 241, 292 240.550, 292 240 C 292 239.397, 296.167 239, 302.500 239 C 308.833 239, 313 239.397, 313 240 C 313 240.550, 313.900 241, 315 241 C 316.100 241, 317 241.450, 317 242 C 317 242.550, 318.350 243, 320 243 C 321.650 243, 323 243.450, 323 244 C 323 244.550, 323.900 245, 325 245 C 326.333 245, 327 245.667, 327 247 C 327 248.137, 327.667 249, 328.545 249 C 329.395 249, 331.195 250.105, 332.545 251.455 C 333.895 252.805, 335 254.605, 335 255.455 C 335 256.305, 335.450 257, 336 257 C 336.550 257, 337 257.900, 337 259 C 337 260.100, 337.450 261, 338 261 C 338.550 261, 339 261.900, 339 263 C 339 264.100, 339.450 265, 340 265 C 340.550 265, 341 266.800, 341 269 C 341 272.333, 341.333 273, 343 273 C 344.304 273, 345 273.667, 345 274.917 C 345 275.971, 344.438 277.096, 343.750 277.417 C 342.750 277.883, 342.750 278.117, 343.750 278.583 C 344.710 279.032, 345 286.328, 345 310.083 C 345 330.028, 345.355 341, 346 341 C 346.615 341, 347 346, 347 354 C 347 362, 347.385 367, 348 367 C 348.550 367, 349 368.800, 349 371 C 349 373.200, 349.450 375, 350 375 C 350.564 375, 351 377.833, 351 381.500 C 351 385.167, 351.436 388, 352 388 C 352.550 388, 353 388.900, 353 390 C 353 391.100, 353.388 392, 353.863 392 C 354.338 392, 354.969 395.023, 355.265 398.717 C 355.562 402.412, 356.299 405.600, 356.902 405.801 C 357.506 406.002, 358 407.929, 358 410.083 C 358 412.238, 358.450 414, 359 414 C 359.550 414, 360 414.900, 360 416 C 360 417.100, 360.450 418, 361 418 C 361.550 418, 362 418.900, 362 420 C 362 421.100, 362.450 422, 363 422 C 363.550 422, 364 422.900, 364 424 C 364 425.333, 364.667 426, 366 426 C 367.333 426, 368 426.667, 368 428 C 368 429.183, 368.667 430, 369.633 430 C 370.531 430, 372.143 431.012, 373.216 432.250 C 375.092 434.414, 375.797 434.500, 391.749 434.500 C 404.126 434.500, 408.438 434.183, 408.749 433.250 C 408.988 432.534, 410.839 432, 413.083 432 C 415.238 432, 417 431.550, 417 431 C 417 430.450, 418.251 430, 419.779 430 C 421.411 430, 423.153 429.174, 424 428 C 424.795 426.897, 426.589 426, 428 426 C 429.411 426, 431.205 425.103, 432 424 C 432.793 422.900, 434.143 422, 435 422 C 435.857 422, 437.207 421.100, 438 420 C 438.793 418.900, 440.034 418, 440.759 418 C 441.484 418, 446.110 413.933, 451.038 408.961 C 455.967 403.990, 460 399.490, 460 398.961 C 460 398.433, 460.801 398, 461.779 398 C 462.758 398, 464.207 397.100, 465 396 C 465.793 394.900, 467.062 394, 467.820 394 C 468.577 394, 470.459 392.650, 472 391 C 473.594 389.293, 475.828 388, 477.180 388 C 478.488 388, 480.207 387.100, 481 386 C 481.847 384.826, 483.589 384, 485.221 384 C 488 384, 488 384, 488 319.500 C 488 277.167, 487.656 255, 487 255 C 486.450 255, 486 252.750, 486 250 C 486 247.250, 485.550 245, 485 245 C 484.450 245, 484 244.100, 484 243 C 484 241.900, 483.550 241, 483 241 C 482.450 241, 482 240.100, 482 239 C 482 237.900, 481.550 237, 481 237 C 480.450 237, 480 236.100, 480 235 C 480 233.667, 479.333 233, 478 233 C 476.667 233, 476 232.333, 476 231 C 476 229.900, 475.562 229, 475.026 229 C 474.491 229, 472.028 226.975, 469.553 224.500 C 467.078 222.025, 464.366 220, 463.526 220 C 462.687 220, 462 219.550, 462 219 C 462 218.450, 461.325 218, 460.500 218 C 459.675 218, 459 217.550, 459 217 C 459 216.450, 458.100 216, 457 216 C 455.900 216, 455 215.550, 455 215 C 455 214.450, 454.100 214, 453 214 C 451.900 214, 451 213.550, 451 213 C 451 212.444, 448.333 212, 445 212 C 441.667 212, 439 211.556, 439 211 C 439 210.450, 437.650 210, 436 210 C 434.350 210, 433 209.550, 433 209 C 433 208.338, 386.167 208, 294.500 208 C 202.833 208, 156 208.338, 156 209 M 1343.861 209.912 C 1341.500 211.823, 1341.500 211.823, 1341.242 395.074 C 1341.003 564.761, 1341.107 578.461, 1342.647 580.162 C 1344.186 581.863, 1346.415 582, 1372.632 582 C 1400.917 582, 1400.956 581.997, 1402.369 579.750 C 1403.571 577.839, 1403.857 550.039, 1404.267 395.080 C 1404.750 212.659, 1404.750 212.659, 1402.421 210.330 C 1400.096 208.005, 1400.028 208, 1373.156 208 C 1348.127 208, 1346.055 208.135, 1343.861 209.912 M 1472.166 209.834 C 1470.436 211.564, 1470.294 215.593, 1469.666 280.999 C 1469.300 319.131, 1469 401.456, 1469 463.943 C 1469 565.152, 1469.170 577.798, 1470.557 579.777 C 1472.103 581.985, 1472.303 582, 1500.402 582 C 1526.239 582, 1528.829 581.846, 1530.299 580.223 C 1531.759 578.609, 1531.972 561.589, 1532.615 395.709 C 1533.324 212.974, 1533.324 212.974, 1530.988 210.487 C 1528.651 208, 1528.651 208, 1501.326 208 C 1476.157 208, 1473.855 208.145, 1472.166 209.834 M 2517.352 237.969 C 2516.171 238.459, 2514.821 239.454, 2514.352 240.180 C 2513.884 240.906, 2513.275 256.575, 2513 275 C 2512.500 308.500, 2512.500 308.500, 2494.805 308.773 C 2477.109 309.046, 2477.109 309.046, 2475.055 311.658 C 2473.132 314.102, 2473 315.601, 2473 334.961 C 2473 355.227, 2473.047 355.695, 2475.288 357.801 C 2477.423 359.807, 2478.750 359.969, 2495.038 360.225 C 2512.500 360.500, 2512.500 360.500, 2513.064 447 C 2513.495 513.149, 2513.933 534.676, 2514.925 538.500 C 2515.639 541.250, 2517.715 546.755, 2519.538 550.733 C 2521.519 555.054, 2524.918 560.148, 2527.982 563.388 C 2530.961 566.537, 2535.918 570.276, 2539.805 572.307 C 2543.487 574.229, 2549.650 576.771, 2553.500 577.955 C 2557.350 579.139, 2564.775 580.755, 2570 581.548 C 2576.266 582.498, 2587.718 582.990, 2603.639 582.994 C 2625.913 583, 2627.961 582.852, 2630.139 581.090 C 2632.467 579.207, 2632.504 578.886, 2632.808 557.889 C 2632.977 546.178, 2632.864 535.594, 2632.556 534.368 C 2632.249 533.143, 2631.291 531.433, 2630.427 530.570 C 2629.198 529.340, 2626.541 528.998, 2618.179 528.992 C 2612.305 528.988, 2604.578 528.511, 2601.006 527.931 C 2597.434 527.352, 2592.484 525.981, 2590.006 524.885 C 2587.528 523.789, 2584.221 521.679, 2582.657 520.196 C 2581.093 518.713, 2578.748 515.413, 2577.447 512.862 C 2576.145 510.311, 2574.615 505.361, 2574.047 501.862 C 2573.413 497.951, 2573.012 470.011, 2573.008 429.332 C 2573.003 392.939, 2573.273 362.452, 2573.607 361.582 C 2574.141 360.189, 2577.727 360, 2603.607 360 C 2631.667 360, 2633.091 359.909, 2635 358 C 2636.878 356.122, 2637 354.667, 2637 334.057 C 2637 312.515, 2636.959 312.085, 2634.777 310.557 C 2632.889 309.234, 2628.161 309, 2603.315 309 C 2574.076 309, 2574.076 309, 2573.788 275.035 C 2573.525 244.002, 2573.346 240.915, 2571.716 239.285 C 2570.110 237.678, 2567.414 237.479, 2544.716 237.289 C 2530.847 237.172, 2518.534 237.478, 2517.352 237.969 M 318 267 C 317.207 268.100, 315.758 269, 314.779 269 C 313.801 269, 313 269.450, 313 270 C 313 270.550, 312.100 271, 311 271 C 309.900 271, 309 271.450, 309 272 C 309 272.550, 308.130 273, 307.067 273 C 306.004 273, 304.849 273.900, 304.500 275 C 303.978 276.644, 302.987 277, 298.933 277 C 296.220 277, 294 277.392, 294 277.871 C 294 278.350, 290.850 279.052, 287 279.431 C 280 280.121, 280 280.121, 280 287.061 C 280 291.020, 280.429 294, 281 294 C 281.550 294, 282 294.900, 282 296 C 282 297.100, 282.450 298, 283 298 C 283.550 298, 284 299.350, 284 301 C 284 302.650, 284.450 304, 285 304 C 285.550 304, 286 304.900, 286 306 C 286 307.333, 286.667 308, 288 308 C 289.100 308, 290 308.450, 290 309 C 290 309.550, 290.900 310, 292 310 C 293.100 310, 294 310.450, 294 311 C 294 311.550, 294.900 312, 296 312 C 297.100 312, 298 312.450, 298 313 C 298 313.550, 299.926 314, 302.279 314 C 305.411 314, 306.945 313.464, 308 312 C 308.793 310.900, 310.482 310, 311.754 310 C 313.059 310, 315.577 308.490, 317.533 306.533 C 319.440 304.627, 321 302.377, 321 301.533 C 321 300.690, 321.450 300, 322 300 C 322.550 300, 323 299.100, 323 298 C 323 296.900, 323.450 296, 324 296 C 324.550 296, 325 294.650, 325 293 C 325 291.350, 325.450 290, 326 290 C 326.550 290, 327 288.200, 327 286 C 327 283.800, 326.550 282, 326 282 C 325.450 282, 325 280.875, 325 279.500 C 325 278.125, 324.550 277, 324 277 C 323.450 277, 323 275.650, 323 274 C 323 272.350, 322.550 271, 322 271 C 321.450 271, 321 269.650, 321 268 C 321 266.350, 320.649 265, 320.221 265 C 319.792 265, 318.793 265.900, 318 267 M 1139.500 306.454 C 1135.100 307.145, 1127.788 308.679, 1123.250 309.862 C 1118.713 311.045, 1110.990 313.742, 1106.089 315.856 C 1101.187 317.969, 1093.371 322.230, 1088.720 325.325 C 1083.977 328.481, 1076.780 334.632, 1072.330 339.332 C 1066.619 345.366, 1063.222 350.064, 1060.201 356.107 C 1057.893 360.723, 1055.328 367.182, 1054.502 370.460 C 1053.676 373.738, 1053 377.665, 1053 379.187 C 1053 380.953, 1053.814 382.487, 1055.250 383.427 C 1056.676 384.361, 1067.898 386.182, 1085.906 388.402 C 1104.232 390.661, 1114.913 391.582, 1116.006 390.997 C 1116.937 390.499, 1118.718 387.296, 1119.963 383.881 C 1121.413 379.905, 1123.857 375.929, 1126.759 372.827 C 1129.309 370.100, 1133.958 366.672, 1137.395 364.985 C 1140.753 363.336, 1147.027 361.315, 1151.338 360.493 C 1155.649 359.672, 1163.074 359.008, 1167.838 359.017 C 1172.602 359.027, 1179.642 359.700, 1183.483 360.514 C 1187.323 361.327, 1192.795 363.133, 1195.642 364.526 C 1198.490 365.919, 1202.703 368.887, 1205.005 371.121 C 1207.307 373.355, 1210.533 378.051, 1212.173 381.556 C 1214.176 385.836, 1215.376 390.321, 1215.828 395.214 C 1216.197 399.221, 1216.352 405.714, 1216.172 409.643 C 1215.844 416.787, 1215.844 416.787, 1174.672 417.298 C 1142.471 417.698, 1131.648 418.164, 1125 419.437 C 1120.325 420.332, 1113.125 421.982, 1109 423.103 C 1104.875 424.224, 1096.983 427.321, 1091.462 429.985 C 1085.941 432.649, 1078.177 437.369, 1074.209 440.473 C 1070.242 443.578, 1064.740 448.904, 1061.982 452.309 C 1059.225 455.714, 1055.202 462.100, 1053.043 466.500 C 1050.883 470.900, 1048.307 477.425, 1047.318 481 C 1045.889 486.167, 1045.518 491.294, 1045.510 506 C 1045.501 522.616, 1045.739 525.264, 1047.842 532 C 1049.130 536.125, 1051.823 542.650, 1053.826 546.500 C 1056.135 550.936, 1060.065 556.109, 1064.559 560.623 C 1068.613 564.696, 1075.011 569.714, 1079.501 572.342 C 1083.820 574.870, 1091.065 578.282, 1095.600 579.923 C 1100.136 581.564, 1107.819 583.687, 1112.674 584.641 C 1118.981 585.881, 1126.208 586.360, 1138 586.321 C 1150.907 586.278, 1156.742 585.795, 1164.794 584.105 C 1170.456 582.916, 1178.344 580.651, 1182.323 579.070 C 1186.302 577.490, 1192.375 574.545, 1195.818 572.527 C 1199.261 570.509, 1204.931 566.190, 1208.417 562.929 C 1211.903 559.668, 1215.035 557, 1215.377 557 C 1215.720 557, 1216 561.625, 1216 567.277 C 1216 574.961, 1216.393 578.116, 1217.557 579.777 C 1219.103 581.985, 1219.303 582, 1247.402 582 C 1274.579 582, 1275.762 581.920, 1277.531 579.966 C 1279.292 578.020, 1279.375 573.650, 1279.436 479.716 C 1279.500 381.500, 1279.500 381.500, 1277.291 373.751 C 1276.076 369.489, 1273.476 362.802, 1271.514 358.891 C 1269.551 354.980, 1266.520 349.709, 1264.778 347.177 C 1263.036 344.645, 1258.851 339.814, 1255.479 336.442 C 1252.107 333.070, 1246.682 328.501, 1243.424 326.290 C 1240.166 324.079, 1233.900 320.464, 1229.500 318.256 C 1225.100 316.049, 1217.210 312.871, 1211.967 311.194 C 1206.723 309.518, 1197.665 307.438, 1191.838 306.573 C 1185.121 305.576, 1175.069 305.036, 1164.372 305.099 C 1155.092 305.153, 1143.900 305.763, 1139.500 306.454 M 1686.437 306.559 C 1682.003 307.304, 1674.578 309.112, 1669.937 310.575 C 1665.297 312.039, 1658.350 314.813, 1654.500 316.741 C 1650.650 318.668, 1644.392 322.322, 1640.594 324.860 C 1636.796 327.398, 1630.206 332.884, 1625.949 337.050 C 1621.692 341.216, 1615.521 348.719, 1612.235 353.723 C 1608.949 358.727, 1604.787 366.349, 1602.985 370.661 C 1601.183 374.972, 1598.454 382.843, 1596.920 388.151 C 1595.387 393.458, 1593.643 401.108, 1593.046 405.151 C 1592.449 409.193, 1591.684 419.925, 1591.345 429 C 1590.985 438.686, 1591.219 451.836, 1591.913 460.842 C 1592.564 469.281, 1593.971 481.040, 1595.039 486.975 C 1596.108 492.909, 1598.326 501.877, 1599.968 506.903 C 1601.611 511.929, 1605.034 520.194, 1607.576 525.271 C 1610.117 530.347, 1614.158 537.254, 1616.556 540.619 C 1618.953 543.985, 1623.521 549.385, 1626.707 552.620 C 1629.893 555.855, 1635.316 560.667, 1638.757 563.314 C 1642.198 565.961, 1648.784 570.133, 1653.392 572.585 C 1658.001 575.036, 1665.085 578.208, 1669.136 579.633 C 1673.186 581.058, 1680.550 583.102, 1685.500 584.174 C 1691.173 585.403, 1700.435 586.335, 1710.554 586.696 C 1720.288 587.043, 1730.523 586.810, 1736.554 586.104 C 1742.024 585.463, 1751 583.766, 1756.500 582.332 C 1762 580.897, 1770.501 578.010, 1775.390 575.914 C 1780.280 573.819, 1787.920 569.944, 1792.368 567.303 C 1797.909 564.012, 1803.933 559.036, 1811.499 551.500 C 1817.573 545.450, 1823.153 539.297, 1823.899 537.827 C 1824.645 536.357, 1824.980 534.057, 1824.644 532.716 C 1824.244 531.124, 1817.587 525.030, 1805.442 515.139 C 1792.448 504.558, 1786.094 500, 1784.336 500 C 1782.731 500, 1780.856 501.154, 1779.160 503.184 C 1777.697 504.935, 1774.306 508.750, 1771.624 511.663 C 1768.943 514.576, 1763.758 519.003, 1760.102 521.501 C 1756.446 523.998, 1750.304 527.138, 1746.454 528.477 C 1742.604 529.816, 1736.089 531.437, 1731.977 532.079 C 1727.552 532.770, 1720.770 532.987, 1715.362 532.611 C 1710.336 532.261, 1702.776 531.093, 1698.561 530.016 C 1694.347 528.938, 1687.771 526.412, 1683.947 524.403 C 1679.459 522.044, 1674.958 518.567, 1671.248 514.590 C 1668.086 511.203, 1664.304 505.972, 1662.843 502.966 C 1661.382 499.960, 1659.281 494.800, 1658.174 491.500 C 1657.068 488.200, 1655.675 481.971, 1655.078 477.659 C 1654.482 473.346, 1654.247 469.409, 1654.556 468.909 C 1654.886 468.375, 1690.720 468, 1741.368 468 C 1814.279 468, 1827.918 467.780, 1829.559 466.581 C 1831.374 465.253, 1831.498 463.814, 1831.472 444.331 C 1831.451 429.277, 1830.942 420.311, 1829.637 412 C 1828.644 405.675, 1827.177 397.658, 1826.378 394.184 C 1825.579 390.710, 1823.796 384.292, 1822.415 379.921 C 1821.035 375.551, 1818.574 369.008, 1816.948 365.383 C 1815.321 361.758, 1811.459 354.909, 1808.366 350.163 C 1805.272 345.417, 1799.762 338.571, 1796.121 334.949 C 1792.479 331.327, 1786.628 326.424, 1783.119 324.055 C 1779.609 321.686, 1772.952 317.973, 1768.325 315.805 C 1763.697 313.636, 1755.738 310.804, 1750.636 309.510 C 1745.535 308.215, 1737.872 306.671, 1733.608 306.078 C 1729.344 305.485, 1718.800 305.046, 1710.178 305.102 C 1701.555 305.158, 1690.872 305.813, 1686.437 306.559 M 2769.500 306.583 C 2764.550 307.348, 2756.450 309.120, 2751.500 310.523 C 2746.550 311.926, 2737.936 315.291, 2732.358 318.002 C 2726.780 320.712, 2718.567 325.680, 2714.106 329.041 C 2709.646 332.402, 2703.545 338.042, 2700.548 341.574 C 2697.552 345.106, 2693.540 350.809, 2691.632 354.248 C 2689.724 357.686, 2687.262 363.650, 2686.161 367.500 C 2685.059 371.350, 2683.907 375.972, 2683.600 377.771 C 2683.183 380.213, 2683.543 381.543, 2685.021 383.021 C 2686.109 384.109, 2687.563 385.008, 2688.250 385.019 C 2688.938 385.029, 2701.875 386.575, 2717 388.455 C 2740.566 391.384, 2744.798 391.680, 2746.585 390.522 C 2747.732 389.778, 2749.659 386.458, 2750.867 383.143 C 2752.274 379.284, 2754.634 375.503, 2757.427 372.629 C 2759.826 370.160, 2763.974 367.034, 2766.644 365.682 C 2769.315 364.330, 2773.975 362.474, 2777 361.559 C 2780.025 360.643, 2787.225 359.636, 2793 359.321 C 2799.118 358.987, 2806.630 359.233, 2811 359.910 C 2815.125 360.550, 2821.281 362.368, 2824.680 363.951 C 2828.078 365.534, 2832.834 368.649, 2835.248 370.874 C 2837.661 373.099, 2840.827 377.351, 2842.282 380.324 C 2843.738 383.297, 2845.384 387.703, 2845.940 390.115 C 2846.496 392.527, 2846.962 399.517, 2846.976 405.649 C 2847 416.797, 2847 416.797, 2806.250 417.265 C 2774.975 417.623, 2763.401 418.105, 2756.470 419.335 C 2751.504 420.216, 2743.629 422.046, 2738.970 423.402 C 2734.312 424.757, 2727.834 427.051, 2724.575 428.498 C 2721.316 429.945, 2715.504 433.164, 2711.660 435.651 C 2707.815 438.138, 2702.014 442.706, 2698.768 445.802 C 2695.522 448.898, 2690.919 454.372, 2688.538 457.966 C 2686.158 461.560, 2683.087 467.200, 2681.714 470.500 C 2680.341 473.800, 2678.382 480.100, 2677.361 484.500 C 2675.962 490.524, 2675.531 496.081, 2675.617 507 C 2675.707 518.364, 2676.193 523.230, 2677.865 529.500 C 2679.038 533.900, 2681.644 540.875, 2683.656 545 C 2686.419 550.667, 2689.291 554.455, 2695.406 560.500 C 2699.858 564.900, 2706.057 569.999, 2709.181 571.831 C 2712.306 573.662, 2718.381 576.675, 2722.681 578.525 C 2726.982 580.375, 2735.225 582.876, 2741 584.082 C 2749.077 585.769, 2755.077 586.289, 2767 586.333 C 2775.525 586.365, 2786.100 585.808, 2790.500 585.094 C 2794.900 584.381, 2802.100 582.665, 2806.500 581.281 C 2810.900 579.896, 2817.425 577.293, 2821 575.495 C 2824.576 573.697, 2830.201 570.189, 2833.500 567.700 C 2836.800 565.211, 2840.822 561.785, 2842.437 560.087 C 2844.052 558.389, 2845.740 557, 2846.187 557 C 2846.634 557, 2847 561.880, 2847 567.845 C 2847 577.081, 2847.271 578.935, 2848.829 580.345 C 2850.439 581.802, 2854.014 582, 2878.772 582 C 2906.691 582, 2906.897 581.985, 2908.443 579.777 C 2909.826 577.803, 2909.999 566.734, 2909.993 480.527 C 2909.986 387.870, 2909.898 383.135, 2908.041 375.386 C 2906.971 370.924, 2904.954 364.692, 2903.559 361.539 C 2902.165 358.385, 2899.033 352.811, 2896.601 349.152 C 2894.169 345.493, 2889.101 339.544, 2885.339 335.931 C 2881.578 332.319, 2875.628 327.424, 2872.119 325.055 C 2868.609 322.686, 2862.082 319.034, 2857.613 316.940 C 2853.145 314.846, 2845.441 311.955, 2840.495 310.515 C 2835.548 309.075, 2827.225 307.248, 2822 306.455 C 2816.280 305.586, 2805.735 305.048, 2795.500 305.103 C 2786.150 305.153, 2774.450 305.819, 2769.500 306.583 M 1997.223 307.935 C 1993.220 308.918, 1986.695 311.342, 1982.723 313.320 C 1978.750 315.299, 1972.800 319.151, 1969.500 321.880 C 1966.200 324.609, 1961.025 330.024, 1958 333.913 C 1954.975 337.802, 1952.162 340.988, 1951.750 340.992 C 1951.338 340.996, 1951 334.545, 1951 326.655 C 1951 314.028, 1950.781 312.112, 1949.171 310.655 C 1947.563 309.199, 1944.028 309, 1919.846 309 C 1892.396 309, 1892.345 309.004, 1890.174 311.314 C 1888 313.629, 1888 313.629, 1888 446.159 C 1888 573.283, 1888.075 578.758, 1889.829 580.345 C 1891.439 581.802, 1895.014 582, 1919.772 582 C 1947.691 582, 1947.897 581.985, 1949.443 579.777 C 1950.820 577.812, 1951.002 568.417, 1951.017 498.527 C 1951.032 433.401, 1951.289 418.298, 1952.483 412.665 C 1953.279 408.906, 1955.047 403.392, 1956.411 400.413 C 1957.776 397.433, 1961.279 392.451, 1964.196 389.343 C 1967.113 386.235, 1972.168 381.954, 1975.428 379.831 C 1978.688 377.708, 1984.313 375.031, 1987.928 373.883 C 1992.750 372.352, 1998.228 371.657, 2008.500 371.272 C 2019.496 370.861, 2023.859 371.097, 2028.831 372.374 C 2032.313 373.268, 2036.035 374, 2037.102 374 C 2038.170 374, 2039.475 372.988, 2040.002 371.750 C 2040.530 370.512, 2043.020 358.773, 2045.536 345.662 C 2048.052 332.551, 2049.973 320.176, 2049.805 318.162 C 2049.534 314.910, 2048.940 314.196, 2044.500 311.787 C 2041.750 310.295, 2036.486 308.382, 2032.803 307.537 C 2028.826 306.624, 2021.717 306.030, 2015.303 306.074 C 2008.548 306.120, 2001.773 306.817, 1997.223 307.935 M 2306 306.682 C 2304.075 306.881, 2298.900 307.728, 2294.500 308.565 C 2290.100 309.401, 2282.900 311.254, 2278.500 312.683 C 2274.100 314.113, 2267.350 316.846, 2263.500 318.758 C 2259.650 320.669, 2253.757 324.179, 2250.405 326.557 C 2247.052 328.935, 2241.174 334.237, 2237.342 338.341 C 2233.065 342.921, 2228.947 348.638, 2226.676 353.151 C 2224.642 357.193, 2222.027 364.303, 2220.867 368.950 C 2219.069 376.148, 2218.829 379.409, 2219.243 390.950 C 2219.643 402.093, 2220.167 405.676, 2222.193 411.120 C 2223.548 414.760, 2225.870 419.809, 2227.352 422.338 C 2228.835 424.868, 2232.555 429.646, 2235.620 432.956 C 2238.685 436.267, 2243.962 441.073, 2247.346 443.637 C 2250.731 446.201, 2258.900 450.899, 2265.500 454.078 C 2272.100 457.257, 2281.509 461.252, 2286.408 462.956 C 2291.308 464.661, 2307.733 469.905, 2322.908 474.610 C 2338.084 479.315, 2354.145 484.727, 2358.600 486.637 C 2363.571 488.767, 2368.087 491.536, 2370.290 493.804 C 2372.265 495.837, 2374.358 498.767, 2374.940 500.315 C 2375.523 501.863, 2376 504.961, 2376 507.199 C 2376 509.437, 2375.471 513.034, 2374.824 515.193 C 2374.177 517.352, 2371.959 521.037, 2369.895 523.382 C 2367.831 525.727, 2363.431 529.091, 2360.118 530.857 C 2356.804 532.623, 2351.935 534.763, 2349.297 535.613 C 2346.577 536.489, 2339.087 537.382, 2332 537.674 C 2322.736 538.057, 2317.568 537.780, 2312.035 536.604 C 2307.930 535.732, 2301.405 533.494, 2297.535 531.632 C 2293.666 529.770, 2288.627 526.615, 2286.338 524.621 C 2284.049 522.627, 2281.012 518.658, 2279.588 515.801 C 2278.009 512.633, 2277 508.929, 2277 506.304 C 2277 503.333, 2276.380 501.380, 2275 500 C 2273.099 498.099, 2271.667 498, 2246.155 498 C 2220.707 498, 2219.217 498.103, 2217.525 499.972 C 2215.973 501.687, 2215.805 503.346, 2216.232 512.722 C 2216.611 521.058, 2217.306 525.017, 2219.296 530.197 C 2220.712 533.880, 2223.532 539.505, 2225.562 542.697 C 2227.593 545.888, 2232.499 551.650, 2236.465 555.500 C 2240.431 559.350, 2247.237 564.584, 2251.588 567.132 C 2255.940 569.679, 2263.575 573.379, 2268.555 575.354 C 2273.536 577.329, 2281.411 579.834, 2286.055 580.920 C 2290.700 582.006, 2298.325 583.436, 2303 584.098 C 2307.675 584.760, 2319.375 585.311, 2329 585.322 C 2341.022 585.337, 2349.934 584.790, 2357.470 583.575 C 2363.504 582.603, 2372.054 580.759, 2376.470 579.478 C 2380.887 578.196, 2387.553 575.776, 2391.283 574.101 C 2395.014 572.425, 2401.257 568.990, 2405.155 566.468 C 2409.054 563.946, 2414.720 559.547, 2417.746 556.691 C 2420.772 553.836, 2425.031 548.879, 2427.212 545.675 C 2429.392 542.471, 2432.203 537.521, 2433.458 534.675 C 2434.712 531.829, 2436.473 526.261, 2437.369 522.303 C 2438.364 517.913, 2438.994 510.695, 2438.985 503.803 C 2438.977 497.240, 2438.333 489.796, 2437.451 486.053 C 2436.615 482.507, 2434.489 476.657, 2432.727 473.053 C 2430.546 468.592, 2426.965 463.905, 2421.511 458.372 C 2417.105 453.902, 2410.218 448.130, 2406.206 445.545 C 2402.194 442.961, 2395.557 439.317, 2391.456 437.448 C 2387.356 435.580, 2378.263 431.969, 2371.250 429.424 C 2364.238 426.880, 2348.482 421.927, 2336.238 418.419 C 2323.993 414.910, 2309.222 410.248, 2303.411 408.058 C 2297.601 405.869, 2290.788 402.598, 2288.271 400.789 C 2285.754 398.980, 2282.821 395.816, 2281.753 393.757 C 2280.685 391.699, 2279.584 388.315, 2279.305 386.238 C 2279.027 384.161, 2279.306 380.577, 2279.927 378.273 C 2280.547 375.969, 2282.505 372.193, 2284.277 369.881 C 2286.096 367.509, 2290.114 364.232, 2293.500 362.358 C 2296.800 360.532, 2302.875 358.251, 2307 357.288 C 2312.112 356.095, 2318.480 355.552, 2327 355.581 C 2335.481 355.611, 2341.590 356.176, 2346 357.338 C 2349.575 358.280, 2354.764 360.149, 2357.530 361.492 C 2360.297 362.834, 2364.521 365.610, 2366.916 367.661 C 2369.327 369.724, 2372.324 373.647, 2373.626 376.444 C 2374.921 379.225, 2375.985 383.127, 2375.990 385.115 C 2375.996 387.246, 2376.851 389.812, 2378.073 391.365 C 2380.145 394, 2380.145 394, 2406.073 394 C 2431.223 394, 2432.064 393.936, 2434.138 391.862 C 2436.076 389.924, 2436.219 389, 2435.676 381.959 C 2435.347 377.688, 2434.561 372.012, 2433.931 369.347 C 2433.300 366.681, 2430.833 360.410, 2428.448 355.412 C 2425.233 348.671, 2422.263 344.343, 2416.952 338.656 C 2413.014 334.439, 2406.116 328.543, 2401.624 325.554 C 2397.133 322.565, 2389.644 318.488, 2384.984 316.493 C 2380.323 314.498, 2372.458 311.816, 2367.505 310.533 C 2362.552 309.250, 2354.450 307.706, 2349.500 307.103 C 2344.550 306.499, 2333.525 306.076, 2325 306.163 C 2316.475 306.249, 2307.925 306.483, 2306 306.682 M 2095.455 310.455 C 2093 312.909, 2093 312.909, 2093 445.800 C 2093 573.272, 2093.075 578.758, 2094.829 580.345 C 2096.439 581.802, 2100.014 582, 2124.772 582 C 2152.691 582, 2152.897 581.985, 2154.443 579.777 C 2155.833 577.793, 2155.998 563.373, 2155.985 445.027 C 2155.976 372.137, 2155.639 312.005, 2155.235 311.400 C 2154.831 310.795, 2153.517 309.782, 2152.316 309.150 C 2150.832 308.369, 2141.761 308, 2124.020 308 C 2097.909 308, 2097.909 308, 2095.455 310.455 M 286 338 C 286 338.550, 285.100 339, 284 339 C 282.900 339, 282 339.450, 282 340 C 282 340.550, 279.750 341, 277 341 C 274.250 341, 272 341.450, 272 342 C 272 342.550, 270.749 343, 269.221 343 C 267.589 343, 265.847 343.826, 265 345 C 264.207 346.100, 262.857 347, 262 347 C 261.143 347, 259.793 347.900, 259 349 C 258.207 350.100, 256.533 351, 255.279 351 C 253.667 351, 253 351.585, 253 353 C 253 354.119, 252.333 355, 251.486 355 C 250.653 355, 246.153 358.819, 241.486 363.486 C 236.819 368.153, 233 372.653, 233 373.486 C 233 374.333, 232.119 375, 231 375 C 229.749 375, 229 375.667, 229 376.779 C 229 377.758, 228.100 379.207, 227 380 C 225.900 380.793, 225 382.467, 225 383.721 C 225 384.974, 224.550 386, 224 386 C 223.450 386, 223 387.251, 223 388.779 C 223 390.411, 222.174 392.153, 221 393 C 219.607 394.004, 219 395.589, 219 398.221 C 219 400.299, 218.550 402, 218 402 C 217.450 402, 217 402.900, 217 404 C 217 405.100, 216.550 406, 216 406 C 215.407 406, 215 409.667, 215 415 C 215 420.333, 214.593 424, 214 424 C 213.450 424, 213 424.900, 213 426 C 213 427.100, 213.450 428, 214 428 C 214.588 428, 215 431.500, 215 436.500 C 215 441.500, 215.412 445, 216 445 C 216.550 445, 217 446.350, 217 448 C 217 449.650, 217.450 451, 218 451 C 218.550 451, 219 452.350, 219 454 C 219 455.650, 219.450 457, 220 457 C 220.550 457, 221 457.900, 221 459 C 221 460.100, 221.450 461, 222 461 C 222.550 461, 223 461.900, 223 463 C 223 464.100, 223.450 465, 224 465 C 224.550 465, 225 465.801, 225 466.779 C 225 467.758, 225.900 469.207, 227 470 C 228.100 470.793, 229 472.143, 229 473 C 229 473.857, 229.900 475.207, 231 476 C 232.100 476.793, 233 478.242, 233 479.221 C 233 480.199, 233.450 481, 234 481 C 234.550 481, 235 481.900, 235 483 C 235 484.322, 235.667 485, 236.967 485 C 238.048 485, 240.508 486.575, 242.433 488.500 C 244.358 490.425, 246.623 492, 247.467 492 C 248.333 492, 249 492.870, 249 494 C 249 495.310, 249.667 496, 250.933 496 C 251.996 496, 253.151 496.900, 253.500 498 C 253.849 499.100, 254.905 500, 255.847 500 C 256.788 500, 258.207 500.900, 259 502 C 259.793 503.100, 260.792 504, 261.221 504 C 261.649 504, 262 500.850, 262 497 C 262 493, 262.429 490, 263 490 C 263.550 490, 264 488.875, 264 487.500 C 264 486.125, 264.450 485, 265 485 C 265.556 485, 266 482.333, 266 479 C 266 475.667, 266.444 473, 267 473 C 267.550 473, 268 471.650, 268 470 C 268 468.350, 268.450 467, 269 467 C 269.556 467, 270 464.333, 270 461 C 270 457.667, 270.444 455, 271 455 C 271.556 455, 272 452.333, 272 449 C 272 445.667, 272.444 443, 273 443 C 273.550 443, 274 442.100, 274 441 C 274 439.900, 274.450 439, 275 439 C 275.550 439, 276 437.913, 276 436.583 C 276 435.254, 276.563 433.904, 277.250 433.583 C 278.250 433.117, 278.250 432.883, 277.250 432.417 C 276.563 432.096, 276 430.521, 276 428.917 C 276 427.313, 275.550 426, 275 426 C 274.450 426, 274 424.650, 274 423 C 274 421.350, 273.550 420, 273 420 C 272.444 420, 272 417.333, 272 414 C 272 410.667, 271.556 408, 271 408 C 270.444 408, 270 405.333, 270 402 C 270 398.667, 269.556 396, 269 396 C 268.436 396, 268 393.167, 268 389.500 C 268 385.833, 267.564 383, 267 383 C 266.444 383, 266 380.333, 266 377 C 266 371, 266 371, 274 371 C 281.333 371, 282 371.167, 282 373 C 282 374.100, 282.450 375, 283 375 C 283.603 375, 284 379.167, 284 385.500 C 284 391.833, 284.397 396, 285 396 C 285.556 396, 286 398.667, 286 402 C 286 405.333, 286.444 408, 287 408 C 287.550 408, 288 409.800, 288 412 C 288 414.200, 288.450 416, 289 416 C 289.550 416, 290 417.350, 290 419 C 290 420.650, 290.450 422, 291 422 C 291.550 422, 292 423.350, 292 425 C 292 426.650, 292.450 428, 293 428 C 293.550 428, 294 429.496, 294 431.325 C 294 434.651, 294 434.651, 303.500 434.878 C 311.518 435.069, 313 434.863, 313 433.552 C 313 432.699, 313.450 432, 314 432 C 314.550 432, 315 430.650, 315 429 C 315 427.350, 315.450 426, 316 426 C 316.550 426, 317 423.750, 317 421 C 317 418.250, 317.450 416, 318 416 C 318.550 416, 319 415.100, 319 414 C 319 412.900, 319.450 412, 320 412 C 320.550 412, 321 410.200, 321 408 C 321 405.800, 321.450 404, 322 404 C 322.550 404, 323 402.650, 323 401 C 323 399.350, 323.450 398, 324 398 C 324.550 398, 325 397.100, 325 396 C 325 394.900, 325.450 394, 326 394 C 326.550 394, 327 392.749, 327 391.221 C 327 389.589, 327.826 387.847, 329 387 C 330.100 386.207, 331 384.632, 331 383.500 C 331 382.368, 331.900 380.793, 333 380 C 334.100 379.207, 335 377.758, 335 376.779 C 335 375.801, 335.450 375, 336 375 C 336.550 375, 337 373.846, 337 372.435 C 337 370.673, 335.435 368.345, 332 365 C 329.250 362.321, 327 359.525, 327 358.786 C 327 358.046, 326.100 356.793, 325 356 C 323.480 354.904, 323 353.411, 323 349.779 C 323 347.151, 322.550 345, 322 345 C 321.450 345, 321 344.137, 321 343.083 C 321 342.029, 321.558 340.981, 322.241 340.753 C 323.144 340.452, 323.027 339.884, 321.813 338.670 C 320.383 337.241, 317.684 337, 303.071 337 C 292.357 337, 286 337.372, 286 338 M 1696.411 360.484 C 1693.062 361.213, 1687.460 363.253, 1683.962 365.019 C 1680.421 366.807, 1675.277 370.611, 1672.355 373.605 C 1669.115 376.923, 1665.543 382.141, 1663.021 387.240 C 1660.432 392.474, 1658.219 398.981, 1656.980 405 C 1655.906 410.225, 1655.020 415.962, 1655.013 417.750 C 1655 421, 1655 421, 1710.941 421 C 1741.709 421, 1767.121 420.614, 1767.413 420.141 C 1767.705 419.669, 1767.303 415.056, 1766.519 409.891 C 1765.736 404.726, 1764.192 397.893, 1763.087 394.707 C 1761.982 391.521, 1759.865 386.684, 1758.381 383.959 C 1756.897 381.233, 1753.072 376.511, 1749.879 373.466 C 1746.595 370.334, 1741.307 366.635, 1737.700 364.947 C 1734.194 363.306, 1728.214 361.305, 1724.412 360.499 C 1720.611 359.694, 1714.125 359.063, 1710 359.097 C 1705.875 359.131, 1699.760 359.755, 1696.411 360.484 M 338.250 403.496 C 337.563 404.277, 337 406.060, 337 407.458 C 337 408.856, 336.550 410, 336 410 C 335.450 410, 335 411.701, 335 413.779 C 335 416.411, 334.393 417.996, 333 419 C 331.309 420.219, 331 421.589, 331 427.866 C 331 435.290, 331 435.290, 338 434.703 C 345 434.116, 345 434.116, 345 439.558 C 345 442.551, 345.450 445, 346 445 C 346.606 445, 347 449.333, 347 456 C 347 462.667, 347.394 467, 348 467 C 348.550 467, 349 468.800, 349 471 C 349 473.200, 349.450 475, 350 475 C 350.596 475, 351 478.833, 351 484.500 C 351 490.167, 351.404 494, 352 494 C 352.550 494, 353 494.863, 353 495.917 C 353 496.971, 352.438 498.035, 351.750 498.282 C 350.895 498.589, 351.187 499.343, 352.673 500.666 C 354.654 502.430, 354.874 503.736, 355.163 515.469 C 355.376 524.107, 355.894 528.751, 356.740 529.597 C 357.585 530.442, 358 534.146, 358 540.845 C 358 547.899, 358.367 550.982, 359.250 551.341 C 360.194 551.723, 360.133 552.130, 359 553 C 357.867 553.870, 357.806 554.277, 358.750 554.659 C 359.581 554.997, 360 557.487, 360 562.083 C 360 566.028, 360.430 569, 361 569 C 361.550 569, 362 571.212, 362 573.917 C 362 576.913, 362.488 579.031, 363.250 579.341 C 364.194 579.723, 364.133 580.130, 363 581 C 361.867 581.870, 361.806 582.277, 362.750 582.659 C 363.592 583.001, 364 585.587, 364 590.583 C 364 598, 364 598, 403.500 598 C 429.167 598, 443 597.650, 443 597 C 443 596.450, 443.900 596, 445 596 C 446.100 596, 447 595.550, 447 595 C 447 594.450, 449.151 594, 451.779 594 C 455.411 594, 456.904 593.520, 458 592 C 458.793 590.900, 460.017 590, 460.721 590 C 461.424 590, 462 589.550, 462 589 C 462 588.450, 462.870 588, 463.933 588 C 464.997 588, 468.147 585.779, 470.933 583.065 C 473.720 580.351, 476 577.426, 476 576.565 C 476 575.667, 476.852 575, 478 575 C 479.333 575, 480 574.333, 480 573 C 480 571.900, 480.450 571, 481 571 C 481.550 571, 482 570.100, 482 569 C 482 567.900, 482.450 567, 483 567 C 483.550 567, 484 566.100, 484 565 C 484 563.900, 484.450 563, 485 563 C 485.550 563, 486 560.750, 486 558 C 486 555.250, 486.450 553, 487 553 C 487.658 553, 488 527.167, 488 477.500 C 488 435.975, 487.649 402, 487.221 402 C 486.792 402, 485.793 402.900, 485 404 C 484.207 405.100, 482.938 406, 482.180 406 C 481.423 406, 479.541 407.350, 478 409 C 476.459 410.650, 474.659 412, 474 412 C 473.341 412, 471.541 413.350, 470 415 C 468.277 416.845, 466.197 418, 464.599 418 C 462.667 418, 462 418.513, 462 420 C 462 421.111, 461.333 422, 460.500 422 C 459.675 422, 459 422.707, 459 423.571 C 459 424.436, 458.357 425.786, 457.571 426.571 C 456.786 427.357, 455.535 428, 454.792 428 C 454.049 428, 452.793 428.900, 452 430 C 451.207 431.100, 449.758 432, 448.779 432 C 447.801 432, 447 432.675, 447 433.500 C 447 434.333, 446.111 435, 445 435 C 443.900 435, 443 435.450, 443 436 C 443 436.550, 442.281 437, 441.401 437 C 440.522 437, 438.541 438.350, 437 440 C 435.459 441.650, 433.478 443, 432.599 443 C 431.719 443, 431 443.450, 431 444 C 431 444.550, 429.749 445, 428.221 445 C 426.589 445, 424.847 445.826, 424 447 C 423.153 448.174, 421.411 449, 419.779 449 C 418.251 449, 417 449.450, 417 450 C 417 450.550, 415.650 451, 414 451 C 412.350 451, 411 451.450, 411 452 C 411 452.550, 409.875 453, 408.500 453 C 407.125 453, 406 453.450, 406 454 C 406 454.622, 400.333 455, 391 455 C 381.667 455, 376 454.622, 376 454 C 376 453.450, 374.200 453, 372 453 C 368.667 453, 368 452.667, 368 451 C 368 449.517, 367.333 449, 365.422 449 C 363.712 449, 361.522 447.625, 358.922 444.918 C 356.765 442.674, 355 440.073, 355 439.139 C 355 438.205, 354.100 436.793, 353 436 C 351.900 435.207, 351 433.983, 351 433.279 C 351 432.576, 350.550 432, 350 432 C 349.450 432, 349 430.650, 349 429 C 349 427.350, 348.550 426, 348 426 C 347.450 426, 347 424.200, 347 422 C 347 419.800, 346.550 418, 346 418 C 345.450 418, 345 416.200, 345 414 C 345 411.800, 344.550 410, 344 410 C 343.450 410, 343 409.100, 343 408 C 343 406.900, 342.550 406, 342 406 C 341.450 406, 341 405.100, 341 404 C 341 402.900, 340.663 402.017, 340.250 402.038 C 339.837 402.059, 338.938 402.715, 338.250 403.496 M 291.250 452.496 C 290.563 453.277, 290 455.060, 290 456.458 C 290 457.856, 289.550 459, 289 459 C 288.450 459, 288 460.800, 288 463 C 288 465.200, 287.550 467, 287 467 C 286.450 467, 286 469.250, 286 472 C 286 474.750, 285.550 477, 285 477 C 284.436 477, 284 479.833, 284 483.500 C 284 487.167, 283.564 490, 283 490 C 282.450 490, 282 491.350, 282 493 C 282 494.650, 281.550 496, 281 496 C 280.450 496, 280 498.250, 280 501 C 280 503.750, 279.550 506, 279 506 C 278.450 506, 278 507.800, 278 510 C 278 512.200, 277.550 514, 277 514 C 276.444 514, 276 516.667, 276 520 C 276 523.333, 275.556 526, 275 526 C 274.450 526, 274 527.800, 274 530 C 274 532.200, 273.550 534, 273 534 C 272.450 534, 272 536.025, 272 538.500 C 272 540.975, 271.550 543, 271 543 C 270.429 543, 270 546, 270 550 C 270 554, 269.571 557, 269 557 C 268.450 557, 268 557.900, 268 559 C 268 560.100, 267.550 561, 267 561 C 266.429 561, 266 564, 266 568 C 266 572, 265.571 575, 265 575 C 264.450 575, 264 576.350, 264 578 C 264 579.650, 263.550 581, 263 581 C 262.450 581, 262 583.475, 262 586.500 C 262 589.525, 261.550 592, 261 592 C 260.450 592, 260 593.350, 260 595 C 260 598, 260 598, 304.500 598 C 349 598, 349 598, 349 595 C 349 593.350, 348.550 592, 348 592 C 347.422 592, 347 588.833, 347 584.500 C 347 580.167, 346.578 577, 346 577 C 345.450 577, 345 576.138, 345 575.083 C 345 574.029, 345.563 572.904, 346.250 572.583 C 347.250 572.117, 347.250 571.883, 346.250 571.417 C 345.429 571.033, 345 568.489, 345 564 C 345 559.471, 344.579 556.996, 343.750 556.659 C 342.806 556.277, 342.867 555.870, 344 555 C 345.133 554.130, 345.194 553.723, 344.250 553.341 C 343.563 553.062, 343 551.521, 343 549.917 C 343 548.313, 342.550 547, 342 547 C 341.412 547, 341 543.500, 341 538.500 C 341 533.500, 340.588 530, 340 530 C 339.450 530, 339 527.750, 339 525 C 339 522.250, 338.550 520, 338 520 C 337.417 520, 337 516.667, 337 512 C 337 507.333, 336.583 504, 336 504 C 335.397 504, 335 499.833, 335 493.500 C 335 487.167, 334.603 483, 334 483 C 333.450 483, 333 481.650, 333 480 C 333 478.350, 332.550 477, 332 477 C 331.397 477, 331 472.818, 331 466.455 C 331 456.591, 330.841 455.750, 328.545 453.455 C 326.131 451.040, 325.818 451.001, 309.295 451.038 C 296.078 451.068, 292.234 451.379, 291.250 452.496 M 1148.862 462.562 C 1144.661 463.322, 1138.745 464.872, 1135.716 466.005 C 1132.687 467.138, 1127.574 469.770, 1124.354 471.853 C 1121.134 473.937, 1117.199 477.350, 1115.609 479.439 C 1114.019 481.527, 1111.814 485.545, 1110.710 488.368 C 1109.310 491.946, 1108.686 495.959, 1108.651 501.623 C 1108.606 508.815, 1108.971 510.498, 1111.835 516.316 C 1113.777 520.261, 1116.555 524.056, 1118.785 525.811 C 1120.828 527.418, 1124.314 529.652, 1126.530 530.775 C 1128.747 531.898, 1133.247 533.612, 1136.530 534.584 C 1140.824 535.855, 1145.729 536.329, 1154 536.272 C 1162.229 536.215, 1167.715 535.605, 1173.287 534.128 C 1177.569 532.992, 1184.742 530.155, 1189.225 527.822 C 1194.118 525.277, 1199.704 521.304, 1203.196 517.887 C 1207.034 514.132, 1210.118 509.864, 1212.257 505.347 C 1215.500 498.500, 1215.500 498.500, 1215.828 479.750 C 1216.156 461, 1216.156 461, 1186.328 461.090 C 1165.653 461.152, 1154.156 461.604, 1148.862 462.562 M 2781.164 462.121 C 2778.229 462.609, 2772.379 464.162, 2768.164 465.572 C 2763.949 466.982, 2758.355 469.506, 2755.734 471.182 C 2753.113 472.858, 2749.166 476.276, 2746.963 478.779 C 2744.205 481.912, 2742.301 485.490, 2740.851 490.264 C 2739.255 495.519, 2738.864 498.858, 2739.236 504.060 C 2739.569 508.704, 2740.599 512.705, 2742.425 516.436 C 2743.908 519.468, 2746.990 523.548, 2749.274 525.502 C 2751.557 527.457, 2755.744 530.153, 2758.578 531.494 C 2761.412 532.834, 2765.929 534.464, 2768.615 535.115 C 2771.302 535.766, 2778.450 536.284, 2784.500 536.265 C 2791.033 536.245, 2798.269 535.574, 2802.319 534.614 C 2806.070 533.724, 2812.370 531.490, 2816.319 529.649 C 2820.269 527.808, 2825.965 524.432, 2828.978 522.147 C 2831.991 519.862, 2836.154 515.857, 2838.229 513.246 C 2840.305 510.636, 2842.987 506.025, 2844.191 503 C 2846.090 498.228, 2846.434 495.085, 2846.785 479.250 C 2847.191 461, 2847.191 461, 2816.845 461.117 C 2800.155 461.181, 2784.099 461.633, 2781.164 462.121" stroke="none" fill="#fffcfc" fill-rule="evenodd"/><path d="M 156 209 C 156 209.662, 202.833 210, 294.500 210 C 386.167 210, 433 209.662, 433 209 C 433 208.338, 386.167 208, 294.500 208 C 202.833 208, 156 208.338, 156 209 M 292 452 C 292 452.629, 298.500 453, 309.500 453 C 320.500 453, 327 452.629, 327 452 C 327 451.371, 320.500 451, 309.500 451 C 298.500 451, 292 451.371, 292 452" stroke="none" fill="#fcfcfc" fill-rule="evenodd"/></svg>