<svg xmlns="http://www.w3.org/2000/svg" preserveAspectRatio="xMidYMid meet" width="100%" height="auto" viewBox="100 100 1100 400" version="1.1"><path d="M 185.500 136.864 C 182.200 137.816, 177.314 139.689, 174.643 141.028 C 168.525 144.093, 157.674 153.959, 156.015 157.964 C 155.323 159.634, 154.439 161, 154.050 161 C 152.928 161, 149.149 169.932, 147.495 176.489 C 146.190 181.664, 145.988 198.435, 146.008 299.988 C 146.029 404.681, 146.208 418.207, 147.644 423.999 C 149.120 429.950, 152.378 437.778, 153.886 439 C 154.225 439.275, 155.162 440.777, 155.967 442.337 C 160.225 450.588, 176.384 461.525, 187.835 463.906 C 191.572 464.683, 228.690 465.008, 311.752 464.992 C 442.380 464.966, 436.058 465.255, 448.294 458.753 C 459.424 452.839, 468.572 442.243, 473.548 429.500 C 475.447 424.636, 475.500 421.115, 475.500 300 C 475.500 159.293, 476.264 172.548, 467.370 158.924 C 462.422 151.344, 456.393 145.853, 448.011 141.292 C 435.942 134.726, 442.554 135.026, 310.916 135.083 C 200.795 135.131, 191.033 135.269, 185.500 136.864 M 194 144.532 C 181.186 147.052, 176.498 149.382, 168.801 157.056 C 163.490 162.351, 155.383 176.050, 156.751 177.418 C 157.045 177.711, 156.784 178.555, 156.172 179.293 C 154.712 181.051, 154.571 419.617, 156.028 420.518 C 156.563 420.848, 157 421.979, 157 423.032 C 157 426.397, 162.138 435.937, 166.659 440.965 C 172.347 447.293, 178.834 451.525, 186.958 454.211 C 193.087 456.237, 195.847 456.399, 230.689 456.770 L 267.878 457.167 268.813 453.333 C 269.328 451.225, 270.534 445.675, 271.493 441 C 273.341 431.996, 274.854 424.912, 277.365 413.500 C 278.212 409.650, 279.163 404.475, 279.478 402 L 280.051 397.500 272.354 393.066 C 263.334 387.871, 251.449 376.944, 245.766 368.622 C 241.487 362.357, 235.405 349.945, 234.644 345.928 C 234.391 344.592, 233.721 342.309, 233.156 340.853 C 232.590 339.397, 232.388 337.945, 232.706 337.627 C 233.025 337.309, 232.681 336.321, 231.943 335.431 C 230.956 334.242, 230.588 329.806, 230.550 318.657 C 230.507 305.675, 230.843 302.244, 232.892 294.750 C 234.208 289.938, 235.575 286, 235.929 286 C 236.284 286, 236.641 285.112, 236.723 284.027 C 236.924 281.358, 243.258 270.186, 248.593 263.088 C 253.668 256.336, 262.514 247.942, 268.382 244.308 C 274.158 240.732, 277.892 237.079, 279.942 233 C 282.299 228.310, 284.019 216.894, 284.388 203.500 C 284.651 193.965, 285.054 191.734, 287.419 186.747 C 290.583 180.077, 298.427 172.604, 305.110 169.892 C 311.981 167.105, 324.717 167.355, 331.391 170.407 C 338.824 173.807, 345.273 180.449, 347.503 187 C 347.596 187.275, 348.006 188.252, 348.413 189.172 C 348.821 190.091, 349.245 191.441, 349.355 192.172 C 349.466 192.902, 349.838 193.950, 350.182 194.500 C 350.526 195.050, 350.855 202.025, 350.913 210 C 351.174 245.613, 354.752 278.717, 360.459 298.307 C 366.561 319.254, 373.471 325.933, 389.090 325.978 C 403.818 326.021, 423.436 317.190, 435.798 304.954 C 445.767 295.087, 462.886 283.242, 465.743 284.237 C 466.966 284.662, 467.227 183.162, 466.016 178.243 C 461.848 161.312, 448.389 148.500, 430.860 144.775 C 422.646 143.030, 202.783 142.804, 194 144.532 M 328.985 190.246 C 324.643 193.819, 314.746 197.796, 307.124 199.029 L 299.747 200.223 300.224 206.862 C 301.078 218.757, 306.692 225.880, 315.912 226.766 C 325.003 227.639, 333.260 221.176, 335.986 211.051 C 337.400 205.802, 336.691 200.359, 333.682 193.350 L 331.471 188.200 328.985 190.246 M 303.500 247.630 C 301.850 248.334, 299.654 248.930, 298.621 248.955 C 297.587 248.980, 292.412 251.104, 287.121 253.675 C 278.806 257.716, 276.204 259.650, 267.955 267.925 C 260.329 275.575, 257.646 279.074, 254.612 285.327 C 248.655 297.605, 246.925 304.827, 246.883 317.581 C 246.846 328.850, 248.110 335.422, 252.113 344.763 C 253.118 347.107, 253.862 349.132, 253.766 349.263 C 253.670 349.393, 254.329 350.400, 255.230 351.500 C 258.597 355.609, 264 363.036, 264 363.557 C 264 364.693, 283.014 380, 284.425 380 C 284.741 380, 285 379.178, 285 378.174 C 285 376.325, 288.708 358.311, 291.725 345.500 C 292.632 341.650, 293.444 337.825, 293.530 337 C 293.933 333.122, 296.397 324, 297.042 324 C 297.440 324, 297.167 322.263, 296.436 320.139 C 295.704 318.016, 294.926 315.203, 294.707 313.889 C 294.487 312.575, 294.048 310.825, 293.731 310 C 292.545 306.915, 290.060 291.196, 289.423 282.750 L 288.763 274 294.802 274 C 301.693 274, 301.448 273.620, 302.519 285.978 C 303.194 293.772, 305.178 303.342, 308.661 315.607 L 311.247 324.715 318.461 324.906 C 323.399 325.036, 325.982 324.687, 326.649 323.798 C 327.185 323.084, 328.188 319.629, 328.878 316.119 C 330.579 307.469, 335.016 295.516, 340.963 283.562 L 345.908 273.624 341.954 269.334 C 339.779 266.975, 338 264.360, 338 263.522 C 338 262.685, 337.582 262, 337.071 262 C 335.949 262, 332.809 251.628, 333.213 249.259 C 333.426 248.012, 332.468 247.382, 329.500 246.816 C 323.448 245.663, 306.896 246.181, 303.500 247.630 M 924.110 251.396 C 914.880 256.512, 918.764 271.916, 929.300 271.978 C 936.503 272.020, 941 267.801, 941 261 C 941 252.324, 931.837 247.113, 924.110 251.396 M 592.811 253.406 C 586.454 255.244, 581.823 258.258, 577.083 263.643 C 570.169 271.498, 569.853 273.589, 570.197 309.168 C 570.494 339.855, 570.549 340.593, 572.858 345 C 577.930 354.681, 585.809 360.132, 597.404 361.985 C 613.931 364.625, 627.761 358.325, 634.215 345.215 L 637.500 338.543 637.500 321.522 L 637.500 304.500 620.250 304.226 L 603 303.953 603 311.476 L 603 319 611 319 L 619 319 618.996 327.750 C 618.993 334.664, 618.583 337.172, 617.040 339.701 C 614.424 343.992, 610.199 346.001, 603.800 345.996 C 596.795 345.991, 592.482 343.343, 589.873 337.447 C 588.016 333.248, 587.903 331.112, 588.191 305.544 C 588.483 279.688, 588.616 277.986, 590.562 275.383 C 594.467 270.156, 597.688 268.497, 603.865 268.531 C 608.180 268.555, 610.364 269.123, 612.791 270.851 C 616.963 273.822, 618.181 276.237, 618.906 282.975 L 619.500 288.500 628.500 288.500 L 637.500 288.500 637.342 281.699 C 636.951 264.824, 624.412 253.233, 605.656 252.409 C 600.690 252.190, 595.666 252.580, 592.811 253.406 M 726.704 253.630 C 726.317 254.017, 726 278.333, 726 307.667 L 726 361 735.009 361 L 744.017 361 743.759 307.250 L 743.500 253.500 735.454 253.213 C 731.028 253.055, 727.091 253.242, 726.704 253.630 M 760.145 254.325 C 759.286 255.360, 759.050 269.431, 759.241 308.113 L 759.500 360.500 768.500 360.500 L 777.500 360.500 777.500 307 L 777.500 253.500 769.404 253.212 C 763.402 252.999, 761.007 253.287, 760.145 254.325 M 1029.622 263.543 C 1029.280 264.434, 1029 268.926, 1029 273.524 L 1029 281.885 1024.750 282.193 L 1020.500 282.500 1020.198 288.909 C 1019.863 296.022, 1020.499 296.960, 1025.676 296.985 L 1028.853 297 1029.176 323.250 C 1029.475 347.442, 1029.659 349.774, 1031.523 353 C 1034.281 357.772, 1040.271 360.603, 1049.424 361.461 C 1060.879 362.534, 1061.138 362.345, 1060.791 353.170 L 1060.500 345.500 1055.859 345.200 C 1047.699 344.672, 1047.547 344.210, 1047.196 318.897 L 1046.892 297 1053.196 296.985 C 1056.663 296.976, 1060.086 296.598, 1060.802 296.144 C 1061.706 295.570, 1062.011 293.360, 1061.802 288.909 L 1061.500 282.500 1054.286 282.207 L 1047.071 281.914 1046.786 272.207 L 1046.500 262.500 1038.372 262.212 C 1031.627 261.972, 1030.138 262.199, 1029.622 263.543 M 670.289 282.746 C 659.504 286.376, 651.338 295.379, 652.180 302.711 L 652.500 305.500 661.633 305.786 C 670.702 306.070, 670.770 306.054, 671.409 303.505 C 672.390 299.596, 677.588 296.797, 682.868 297.336 C 688.944 297.955, 692.132 301.319, 692.752 307.766 L 693.227 312.711 681.863 313.242 C 673.754 313.621, 668.910 314.378, 664.949 315.884 C 653.120 320.382, 647.429 331.462, 649.997 344.990 C 651.278 351.737, 655.023 356.621, 661.452 359.930 C 670.384 364.526, 685.869 362.689, 691.067 356.417 C 692.387 354.824, 692.540 354.916, 693.010 357.594 L 693.520 360.500 702.510 360.500 L 711.500 360.500 711.500 331.500 C 711.500 309.375, 711.172 301.572, 710.118 298.584 C 708.161 293.041, 701.838 286.607, 695.792 284.006 C 688.718 280.963, 677.267 280.397, 670.289 282.746 M 811.205 282.834 C 803.872 285.450, 799.024 289.678, 795.500 296.530 L 792.500 302.363 792.500 321.431 C 792.500 338.711, 792.698 340.927, 794.606 345.051 C 797.350 350.983, 802.383 356.645, 807.008 359.004 C 816.041 363.612, 829.865 363.660, 838.776 359.114 C 845.862 355.499, 854.738 343.338, 852.167 340.767 C 851.634 340.234, 848.123 339.153, 844.366 338.365 L 837.535 336.933 834.210 340.935 C 830.224 345.735, 825.351 347.441, 819.855 345.961 C 815.872 344.888, 811 339.985, 811 337.048 C 811 336.059, 810.721 333.853, 810.379 332.145 L 809.758 329.040 831.629 328.770 L 853.500 328.500 853.429 316 C 853.349 301.793, 851.987 297.312, 845.604 290.247 C 838.282 282.143, 822.611 278.766, 811.205 282.834 M 896.256 282.117 C 894.472 282.632, 891.461 284.605, 889.565 286.501 L 886.118 289.949 885.809 286.224 L 885.500 282.500 878.521 282.199 C 874.682 282.034, 870.515 282.156, 869.259 282.471 L 866.977 283.044 867.238 321.772 L 867.500 360.500 876.500 360.500 L 885.500 360.500 886 335 C 886.361 316.564, 886.864 308.862, 887.814 307.196 C 890.125 303.144, 894.896 301.008, 901.646 301.004 L 907.792 301 909.202 293.250 C 909.977 288.988, 910.429 284.946, 910.206 284.270 C 909.796 283.023, 903.754 280.940, 901 281.096 C 900.175 281.142, 898.040 281.602, 896.256 282.117 M 974.344 281.985 C 961.676 284.663, 954 293.404, 954 305.152 C 954 312.230, 957.053 318.252, 962.563 322.043 C 964.964 323.695, 972.232 327.053, 978.714 329.504 C 993.987 335.281, 996.832 338.596, 991.669 344.598 C 989.790 346.783, 988.291 347.385, 983.919 347.709 C 977.114 348.214, 972.497 345.697, 971.225 340.788 L 970.373 337.500 961.936 337.500 L 953.500 337.500 953.676 342.414 C 953.920 349.231, 957.827 354.580, 965.386 358.445 C 970.301 360.959, 972.629 361.479, 980.524 361.824 C 1000.129 362.682, 1012 354.302, 1012 339.605 C 1012 332.883, 1011.054 330.270, 1006.912 325.552 C 1003.096 321.206, 998.996 318.997, 986.096 314.333 C 975.289 310.426, 972 307.974, 972 303.826 C 972 298.041, 979.458 294.622, 987.091 296.909 C 990.943 298.063, 994 301.842, 994 305.450 C 994 306.728, 995.490 307, 1002.500 307 L 1011 307 1011 303.212 C 1011 295.080, 1003.019 285.486, 994.225 283.047 C 988.666 281.505, 979.047 280.991, 974.344 281.985 M 1093.718 282.028 C 1083.362 284.641, 1074.962 292.680, 1073.884 301.008 C 1073.319 305.378, 1074.511 306, 1083.460 306 L 1091.802 306 1093.877 302.485 C 1100.043 292.033, 1115 297.332, 1115 309.968 L 1115 313 1107.332 313 C 1089.593 313, 1078.690 317.414, 1074.049 326.476 C 1071.923 330.626, 1071.508 332.784, 1071.549 339.476 C 1071.602 348.233, 1072.840 351.617, 1077.661 356.197 C 1086.154 364.264, 1104.445 364.567, 1112.736 356.778 L 1115 354.651 1115 357.826 L 1115 361 1124 361 L 1133 361 1133 330.968 C 1133 307.459, 1132.695 300.206, 1131.597 297.578 C 1129.384 292.281, 1123.444 286.437, 1117.807 284.012 C 1111.943 281.490, 1099.811 280.490, 1093.718 282.028 M 921.704 282.630 C 921.317 283.017, 921 300.808, 921 322.167 L 921 361 930.012 361 L 939.023 361 938.762 321.750 L 938.500 282.500 930.454 282.213 C 926.028 282.055, 922.091 282.242, 921.704 282.630 M 817.315 298.464 C 813.470 300.136, 811.095 304.403, 810.307 311.054 L 809.721 316 822.361 316 L 835 316 835 311.968 C 835 306.260, 832.664 301.375, 828.810 299.026 C 824.965 296.681, 821.771 296.525, 817.315 298.464 M 345.028 303.750 C 343.816 306.913, 342.416 310.529, 341.916 311.788 C 341.417 313.046, 340.711 316.603, 340.348 319.694 L 339.688 325.312 345.282 324.735 C 351.836 324.058, 351.110 322.574, 353.477 341.500 C 354.303 348.100, 355.425 356.425, 355.970 360 C 356.516 363.575, 357.196 368.975, 357.482 372 C 357.768 375.025, 358.427 379.975, 358.946 383 C 359.465 386.025, 360.145 390.975, 360.456 394 C 360.767 397.025, 361.440 402.200, 361.951 405.500 C 362.462 408.800, 363.127 413.975, 363.429 417 C 363.732 420.025, 364.435 425.650, 364.992 429.500 C 366.781 441.858, 367.234 445.393, 367.713 450.722 C 368.163 455.736, 368.316 455.969, 371.560 456.577 C 373.417 456.926, 387.214 456.993, 402.219 456.728 C 425.397 456.317, 430.327 455.963, 435 454.372 C 447.300 450.185, 455.520 443.679, 461.672 433.264 C 466.885 424.437, 466.975 423.162, 466.988 358.218 L 467 297.937 457.750 304.963 C 452.663 308.827, 447.825 312.573, 447 313.287 C 425.109 332.244, 404.273 342.264, 387.500 341.901 C 383.650 341.818, 380.050 341.481, 379.500 341.154 C 378.950 340.826, 377.600 340.419, 376.500 340.248 C 373.431 339.773, 366.817 336.120, 363.709 333.184 C 358.768 328.516, 355.366 321.770, 351.894 309.754 C 350.027 303.294, 348.215 298.007, 347.866 298.004 C 347.518 298.002, 346.240 300.587, 345.028 303.750 M 674.315 328.464 C 667.661 331.357, 666.242 340.678, 671.787 345.054 C 674.048 346.838, 675.483 347.125, 680.395 346.773 C 685.656 346.397, 686.650 345.958, 689.645 342.690 C 692.674 339.385, 693 338.445, 693 333.015 L 693 327 685.250 327.039 C 680.934 327.061, 676.088 327.692, 674.315 328.464 M 1096.378 328.437 C 1089.101 331.604, 1087.762 340.995, 1093.913 345.718 C 1096.684 347.846, 1105.289 347.280, 1109.088 344.720 C 1113.512 341.738, 1114.967 338.661, 1114.985 332.250 L 1115 327 1107.250 327.039 C 1102.987 327.061, 1098.095 327.690, 1096.378 328.437 M 308.240 339.250 C 307.688 339.938, 306.242 345.675, 305.027 352 C 303.813 358.325, 302.575 364.175, 302.277 365 C 301.979 365.825, 301.608 367.444, 301.452 368.598 C 301.296 369.752, 299.270 379.877, 296.950 391.098 C 294.629 402.319, 292.363 413.525, 291.913 416 C 291.464 418.475, 289.504 428.150, 287.557 437.500 C 285.611 446.850, 284.014 455.073, 284.009 455.773 C 284.002 456.780, 291.389 457.031, 319.500 456.975 C 348.143 456.918, 355 456.650, 355 455.589 C 355 454.865, 354.576 452.037, 354.058 449.303 C 353.539 446.570, 352.859 441.593, 352.546 438.243 C 352.233 434.893, 351.587 429.980, 351.109 427.326 C 350.632 424.672, 350.237 421.825, 350.232 421 C 350.227 420.175, 349.505 414.775, 348.627 409 C 347.750 403.225, 346.789 396.025, 346.491 393 C 346.194 389.975, 345.496 384.575, 344.939 381 C 343.325 370.635, 341.167 355.006, 340.461 348.565 C 339.237 337.405, 340.184 338, 323.647 338 C 313.328 338, 308.960 338.354, 308.240 339.250" stroke="none" fill="#fffcfc" fill-rule="evenodd"/><path d="M 255.827 143.750 C 286.807 143.897, 337.207 143.897, 367.827 143.750 C 398.447 143.603, 373.100 143.483, 311.500 143.483 C 249.900 143.483, 224.847 143.603, 255.827 143.750 M 315.728 324.722 C 317.503 324.943, 320.653 324.946, 322.728 324.730 C 324.802 324.513, 323.350 324.333, 319.500 324.328 C 315.650 324.324, 313.952 324.501, 315.728 324.722 M 316.296 338.744 C 320.583 338.932, 327.333 338.931, 331.296 338.742 C 335.258 338.552, 331.750 338.399, 323.500 338.400 C 315.250 338.401, 312.008 338.556, 316.296 338.744 M 216.750 456.748 C 226.238 456.913, 241.762 456.913, 251.250 456.748 C 260.738 456.584, 252.975 456.450, 234 456.450 C 215.025 456.450, 207.262 456.584, 216.750 456.748 M 300.685 456.748 C 310.138 456.912, 325.888 456.913, 335.685 456.749 C 345.483 456.585, 337.750 456.451, 318.500 456.450 C 299.250 456.450, 291.233 456.584, 300.685 456.748 M 383.750 456.747 C 391.038 456.918, 402.962 456.918, 410.250 456.747 C 417.538 456.577, 411.575 456.437, 397 456.437 C 382.425 456.437, 376.462 456.577, 383.750 456.747" stroke="none" fill="#fcfcfc" fill-rule="evenodd"/></svg>