<svg xmlns="http://www.w3.org/2000/svg" width="" height="" viewBox="0 0 1200 600" version="1.1"><path d="M 74.500 190.399 C 61.165 194.616, 51.371 204.024, 47.092 216.727 C 45.029 222.852, 45 224.213, 45 316.500 C 45 408.427, 45.036 410.170, 47.067 416.199 C 50.899 427.575, 57.654 435.043, 68.953 440.397 C 75.500 443.500, 75.500 443.500, 170.426 443.770 C 276.538 444.072, 270.629 444.435, 281.880 436.921 C 289.456 431.862, 295.383 423.842, 298.061 415.026 C 299.994 408.660, 300.042 405.862, 299.775 314.489 C 299.501 220.710, 299.495 220.488, 297.335 215.220 C 292.555 203.564, 282.878 194.620, 271.073 190.946 C 265.062 189.075, 261.250 189.003, 171.661 189.067 C 99.470 189.119, 77.600 189.419, 74.500 190.399 M 79.132 196.063 C 68.431 198.202, 58.880 205.756, 54.170 215.804 C 51.500 221.500, 51.500 221.500, 51.500 316.500 C 51.500 411.500, 51.500 411.500, 54.135 417.120 C 57.841 425.023, 63.131 430.446, 70.833 434.240 C 77.451 437.500, 77.451 437.500, 108.405 437.500 C 139.359 437.500, 139.359 437.500, 140.632 431.500 C 141.332 428.200, 143.312 418.750, 145.031 410.500 C 146.751 402.250, 148.371 394.732, 148.632 393.794 C 148.979 392.547, 147.796 391.424, 144.241 389.622 C 113.153 373.868, 100.534 330.418, 117.611 297.922 C 121.980 289.606, 131.581 278.929, 139.660 273.400 C 143.129 271.026, 146.382 267.800, 147.673 265.452 C 150.042 261.143, 152 249.457, 152 239.624 C 152 228.013, 158.639 218.960, 169.707 215.479 C 182.224 211.542, 193.860 216.727, 200.049 229 C 202.131 233.127, 202.382 235.422, 203.079 256.686 C 204.078 287.114, 205.810 301.627, 210.126 315.737 C 214.787 330.974, 219.806 336.138, 230.626 336.827 C 243.516 337.648, 256.528 332.018, 269.487 320.012 C 277.484 312.603, 286.835 306.139, 291.866 304.543 C 293.994 303.867, 294 303.756, 294 267.116 C 294 244.878, 293.570 228.040, 292.911 224.474 C 290.722 212.633, 283.577 203.471, 272.500 198.301 C 266.500 195.500, 266.500 195.500, 175 195.344 C 124.675 195.259, 81.534 195.582, 79.132 196.063 M 853.500 227.928 C 845.040 233.663, 844.818 245.462, 853.041 252.381 C 858.615 257.071, 869.030 255.591, 873.885 249.419 C 878.383 243.701, 877.543 234.811, 872.005 229.505 C 869.438 227.046, 867.996 226.538, 862.733 226.244 C 857.729 225.964, 855.909 226.296, 853.500 227.928 M 359.265 229.542 C 346.305 233.032, 335.232 241.990, 329.990 253.226 C 325.489 262.873, 324.756 272.787, 325.230 317.580 C 325.619 354.416, 325.759 356.859, 327.848 363.210 C 332.781 378.205, 345.369 389.062, 361.878 392.562 C 389.863 398.494, 414.672 385.629, 421.777 361.500 C 423.996 353.966, 424.780 309.892, 422.726 308.188 C 421.633 307.280, 415.189 307.032, 397.875 307.231 C 374.500 307.500, 374.500 307.500, 374.212 316.750 C 373.925 326, 373.925 326, 387.462 326 C 401 326, 401 326, 401 340.134 C 401 357.305, 400.037 361.018, 394.028 367.028 C 387.255 373.801, 376.358 376.058, 365.086 373.023 C 359.366 371.483, 350.924 363.163, 349.216 357.384 C 348.343 354.429, 348 341.012, 348 309.830 C 348 266.393, 348 266.393, 350.590 261.195 C 356.476 249.383, 369.706 244.348, 383.833 248.543 C 394.602 251.741, 400.076 259.563, 400.948 273 C 401.500 281.500, 401.500 281.500, 412.500 281.500 C 423.500 281.500, 423.500 281.500, 423.812 277.154 C 424.314 270.169, 422.154 259.108, 418.995 252.490 C 413.844 241.696, 402.538 232.938, 389.307 229.492 C 382.152 227.628, 366.272 227.654, 359.265 229.542 M 181.418 233.567 C 177.151 235.972, 173.494 237.188, 169.168 237.640 C 163 238.285, 163 238.285, 163.006 241.892 C 163.015 247.892, 165.020 253.220, 168.625 256.825 C 171.828 260.028, 172.380 260.216, 177.364 259.803 C 183.655 259.281, 188.053 256.515, 190.377 251.619 C 192.637 246.856, 192.456 238.814, 189.980 233.960 C 188.868 231.782, 187.856 230.031, 187.730 230.070 C 187.603 230.108, 184.763 231.682, 181.418 233.567 M 559.698 230.635 C 558.710 231.624, 558.856 389.225, 559.847 390.787 C 560.448 391.733, 563.420 391.998, 571.082 391.787 C 581.500 391.500, 581.500 391.500, 581.500 311 C 581.500 230.500, 581.500 230.500, 570.948 230.218 C 565.145 230.063, 560.083 230.251, 559.698 230.635 M 609.244 310.750 C 609.500 391.500, 609.500 391.500, 620.250 391.784 C 631 392.068, 631 392.068, 631 311.034 C 631 230, 631 230, 619.994 230 C 608.988 230, 608.988 230, 609.244 310.750 M 1011.699 244.634 C 1011.315 245.019, 1011 251.783, 1011 259.667 C 1011 274, 1011 274, 1004.107 274 C 996.203 274, 996 274.213, 996 282.500 C 996 290.779, 996.209 291, 1004.056 291 C 1010.897 291, 1010.897 291, 1011.199 332.250 C 1011.488 371.859, 1011.585 373.683, 1013.624 378.093 C 1018.235 388.063, 1027.007 392, 1044.605 392 C 1055 392, 1055 392, 1055 382.637 C 1055 373.274, 1055 373.274, 1048.705 372.769 C 1045.242 372.491, 1040.932 371.499, 1039.126 370.565 C 1033.214 367.508, 1033 365.973, 1033 326.564 C 1033 291.063, 1033 291.063, 1044.750 290.782 C 1056.500 290.500, 1056.500 290.500, 1056.500 282.500 C 1056.500 274.500, 1056.500 274.500, 1044.777 274.218 C 1033.053 273.937, 1033.053 273.937, 1032.777 259.218 C 1032.500 244.500, 1032.500 244.500, 1022.449 244.217 C 1016.922 244.062, 1012.084 244.249, 1011.699 244.634 M 477.760 273.491 C 462.571 277.349, 451.112 288.610, 449.359 301.400 C 448.630 306.716, 448.696 306.746, 461.890 307.187 C 472.081 307.527, 471.629 307.749, 474.064 301.189 C 475.727 296.711, 480.606 293.213, 486.840 292.030 C 495.707 290.349, 503.516 293.161, 507.951 299.633 C 509.894 302.469, 510.452 304.779, 510.801 311.436 C 511.236 319.713, 511.236 319.713, 494.868 320.256 C 472.374 321.001, 462.327 324.361, 453.554 334.072 C 447.868 340.366, 445.773 346.018, 445.222 356.547 C 444.389 372.470, 449.033 382.305, 460.329 388.539 C 475.297 396.799, 495.377 395.382, 507.500 385.209 C 510.500 382.692, 510.500 382.692, 510.780 385.096 C 511.640 392.484, 510.945 392.096, 522.777 391.784 C 533.500 391.500, 533.500 391.500, 533.500 347 C 533.500 306.927, 533.323 302.003, 531.725 297.500 C 528.079 287.227, 519.717 278.999, 508.594 274.738 C 501.796 272.134, 485.670 271.482, 477.760 273.491 M 688.500 273.447 C 677.229 276.327, 669.999 281.254, 664.115 290.066 C 657.869 299.419, 656.481 307.151, 656.589 332 C 656.713 360.846, 659.009 370.472, 668.149 380.473 C 684.140 397.969, 716.462 398.633, 733.285 381.810 C 738.371 376.724, 744.917 364.513, 743.378 362.983 C 742.895 362.504, 738.564 361.235, 733.752 360.165 C 725.005 358.218, 725.005 358.218, 721.252 363.820 C 716.287 371.232, 710.805 374.125, 701.724 374.125 C 687.256 374.125, 679 364.836, 679 348.557 C 679 343, 679 343, 712 343 C 737.684 343, 745.020 342.723, 745.092 341.750 C 745.512 336.016, 744.647 309.475, 743.913 305.573 C 739.379 281.502, 714.173 266.889, 688.500 273.447 M 1106.046 273.598 C 1090.196 277.858, 1079.476 288.361, 1077.419 301.646 C 1076.806 305.608, 1076.904 305.817, 1079.639 306.350 C 1081.212 306.656, 1086.275 307.040, 1090.889 307.203 C 1100.011 307.526, 1099.420 307.852, 1102.559 300.766 C 1106.658 291.512, 1122.841 288.478, 1132.274 295.195 C 1136.252 298.028, 1138.997 304.573, 1139.694 312.890 C 1140.266 319.716, 1140.266 319.716, 1123.383 320.268 C 1106.055 320.834, 1099.895 321.982, 1091.651 326.181 C 1080.847 331.684, 1074.191 342.431, 1073.275 355.851 C 1071.629 379.948, 1085.236 393.669, 1110.500 393.390 C 1121.862 393.264, 1126.669 391.862, 1134.138 386.497 C 1136.814 384.573, 1139.229 383, 1139.502 383 C 1139.776 383, 1140 385.040, 1140 387.534 C 1140 392.068, 1140 392.068, 1150.750 391.784 C 1161.500 391.500, 1161.500 391.500, 1161.500 346 C 1161.500 300.500, 1161.500 300.500, 1158.840 294.825 C 1151.862 279.941, 1137.426 271.874, 1118.114 272.066 C 1114.476 272.102, 1109.046 272.791, 1106.046 273.598 M 809.044 274.577 C 803.198 277.114, 799.070 280.907, 795.715 286.828 C 792.500 292.500, 792.500 292.500, 792.212 283.250 C 791.925 274, 791.925 274, 780.954 274 C 769.984 274, 769.984 274, 770.242 332.750 C 770.500 391.500, 770.500 391.500, 781 391.500 C 791.500 391.500, 791.500 391.500, 792 353.426 C 792.500 315.352, 792.500 315.352, 795.522 309.426 C 800.731 299.215, 811.454 294.252, 822.756 296.822 C 825.097 297.355, 827.236 297.427, 827.510 296.983 C 827.902 296.349, 832 277.653, 832 276.499 C 832 276.344, 830.191 275.493, 827.980 274.609 C 822.978 272.607, 813.622 272.592, 809.044 274.577 M 925.024 274.544 C 914.089 277.600, 906.335 283.851, 902.139 292.994 C 900.099 297.438, 899.614 300.043, 899.625 306.500 C 899.642 316.304, 901.881 321.933, 908.325 328.377 C 913.869 333.921, 917.890 336.006, 934.997 342.207 C 956.663 350.060, 960.771 353.471, 959.726 362.742 C 958.779 371.140, 951.676 376, 940.348 376 C 930.107 376, 921.876 371.169, 920.478 364.338 C 918.813 356.200, 920.059 357, 909.048 357 C 900.484 357, 899.059 357.238, 898.579 358.750 C 897.790 361.236, 899.577 371.281, 901.453 374.909 C 905.216 382.186, 914.487 388.851, 924.460 391.448 C 931.279 393.224, 948.173 393.487, 954.958 391.924 C 965.015 389.606, 975.134 382.442, 979.043 374.871 C 983.499 366.242, 983.293 352.588, 978.586 344.556 C 973.640 336.117, 965.258 330.837, 945.745 323.869 C 925.905 316.785, 921.012 313.033, 921.004 304.898 C 920.995 296.518, 928.793 290.695, 939.929 290.765 C 950.935 290.834, 957.308 295.059, 959.515 303.749 C 960.721 308.500, 960.721 308.500, 970.611 308.500 C 980.500 308.500, 980.500 308.500, 980.312 302.840 C 979.948 291.864, 971.012 280.464, 959.202 275.908 C 951.663 272.999, 933.189 272.262, 925.024 274.544 M 166.500 275.653 C 147.105 279.782, 130.932 294.452, 124.287 313.942 C 121.643 321.699, 121.226 335.503, 123.390 343.632 C 125.189 350.388, 130.043 359.356, 135.092 365.254 C 139.018 369.840, 150.754 379.584, 151.474 378.856 C 151.667 378.660, 153.683 369.500, 155.953 358.500 C 158.222 347.500, 160.470 337.557, 160.948 336.404 C 161.525 335.013, 161.177 332.001, 159.914 327.448 C 157.828 319.925, 154.601 298.455, 155.369 297.212 C 155.634 296.784, 157.663 296.606, 159.879 296.817 C 163.848 297.196, 163.916 297.270, 164.504 301.851 C 165.535 309.885, 168.867 326.331, 170.310 330.500 C 171.694 334.500, 171.694 334.500, 178.317 334.795 C 184.848 335.086, 184.948 335.052, 185.546 332.295 C 187.324 324.101, 190.665 314.446, 194.720 305.785 C 199.269 296.070, 199.269 296.070, 196.257 292.640 C 193.402 289.388, 190.807 283.651, 189.586 277.891 C 189.098 275.590, 188.412 275.208, 183.766 274.650 C 176.673 273.798, 174.668 273.914, 166.500 275.653 M 850.620 275.549 C 849.686 277.983, 849.906 389.303, 850.847 390.787 C 851.448 391.733, 854.420 391.998, 862.082 391.787 C 872.500 391.500, 872.500 391.500, 872.500 333 C 872.500 274.500, 872.500 274.500, 861.870 274.217 C 852.839 273.977, 851.146 274.178, 850.620 275.549 M 695.275 291.934 C 684.717 294.564, 679 303.785, 679 318.182 C 679 325, 679 325, 701.148 325 C 723.295 325, 723.295 325, 722.646 316.562 C 721.918 307.079, 720.967 303.956, 717.373 299.245 C 712.897 293.376, 702.841 290.049, 695.275 291.934 M 198.246 318.720 C 196.626 322.542, 194 332.331, 194 334.549 C 194 334.797, 196.025 335, 198.500 335 C 200.975 335, 203 335.446, 203 335.991 C 203 336.835, 206.069 360.190, 213.578 416.500 C 216.754 440.313, 212.943 437.501, 242.026 437.495 C 267.500 437.489, 267.500 437.489, 273.161 434.714 C 280.874 430.933, 286.582 425.102, 290.345 417.159 C 293.500 410.500, 293.500 410.500, 293.803 362.144 C 294.107 313.788, 294.107 313.788, 291.303 315.801 C 289.762 316.909, 282.469 322.547, 275.097 328.331 C 255.493 343.712, 240.709 350.118, 228.500 348.522 C 215.715 346.850, 209.390 340.705, 204.581 325.281 C 202.828 319.660, 201.142 314.809, 200.833 314.500 C 200.525 314.192, 199.361 316.090, 198.246 318.720 M 482 339.175 C 477.510 340.451, 472.352 344.375, 469.919 348.366 C 467.261 352.725, 467.300 362.340, 469.995 366.759 C 477.308 378.755, 500.575 376.705, 508.657 363.354 C 510.716 359.952, 510.990 358.238, 510.995 348.750 C 511 338, 511 338, 498.250 338.090 C 491.238 338.140, 483.925 338.628, 482 339.175 M 1109.558 339.492 C 1104.803 341.186, 1101.328 343.681, 1098.562 347.385 C 1095.570 351.393, 1095.595 363.640, 1098.605 367.677 C 1102.263 372.584, 1106.634 374.444, 1114.509 374.444 C 1120.215 374.444, 1122.671 373.907, 1127.294 371.645 C 1136.966 366.912, 1139.985 360.878, 1139.994 346.250 C 1140 338, 1140 338, 1126.750 338.044 C 1118.015 338.073, 1112.157 338.566, 1109.558 339.492 M 169.103 348.250 C 168.181 350.699, 150.994 434.707, 150.998 436.750 C 151 437.720, 157.168 438, 178.500 438 C 206 438, 206 438, 206 435.836 C 206 433.457, 195.310 353.173, 194.404 348.750 C 193.841 346, 193.841 346, 181.896 346 C 170.426 346, 169.917 346.090, 169.103 348.250" stroke="none" fill="#f7f7f7" fill-rule="evenodd"/><path d="M 0 300.001 C 0 600.002, 0 600.002, 600.250 599.751 C 1200.500 599.500, 1200.500 599.500, 1200.752 299.750 C 1201.003 0, 1201.003 0, 600.502 0 C 0 0, 0 0, 0 300.001 M 0.493 300.500 C 0.493 465.500, 0.609 532.851, 0.750 450.169 C 0.891 367.487, 0.891 232.487, 0.750 150.169 C 0.609 67.851, 0.493 135.500, 0.493 300.500 M 74.500 190.399 C 61.165 194.616, 51.371 204.024, 47.092 216.727 C 45.029 222.852, 45 224.213, 45 316.500 C 45 408.427, 45.036 410.170, 47.067 416.199 C 50.899 427.575, 57.654 435.043, 68.953 440.397 C 75.500 443.500, 75.500 443.500, 170.426 443.770 C 276.538 444.072, 270.629 444.435, 281.880 436.921 C 289.456 431.862, 295.383 423.842, 298.061 415.026 C 299.994 408.660, 300.042 405.862, 299.775 314.489 C 299.501 220.710, 299.495 220.488, 297.335 215.220 C 292.555 203.564, 282.878 194.620, 271.073 190.946 C 265.062 189.075, 261.250 189.003, 171.661 189.067 C 99.470 189.119, 77.600 189.419, 74.500 190.399 M 79.132 196.063 C 68.431 198.202, 58.880 205.756, 54.170 215.804 C 51.500 221.500, 51.500 221.500, 51.500 316.500 C 51.500 411.500, 51.500 411.500, 54.135 417.120 C 57.841 425.023, 63.131 430.446, 70.833 434.240 C 77.451 437.500, 77.451 437.500, 108.405 437.500 C 139.359 437.500, 139.359 437.500, 140.632 431.500 C 141.332 428.200, 143.312 418.750, 145.031 410.500 C 146.751 402.250, 148.371 394.732, 148.632 393.794 C 148.979 392.547, 147.796 391.424, 144.241 389.622 C 113.153 373.868, 100.534 330.418, 117.611 297.922 C 121.980 289.606, 131.581 278.929, 139.660 273.400 C 143.129 271.026, 146.382 267.800, 147.673 265.452 C 150.042 261.143, 152 249.457, 152 239.624 C 152 228.013, 158.639 218.960, 169.707 215.479 C 182.224 211.542, 193.860 216.727, 200.049 229 C 202.131 233.127, 202.382 235.422, 203.079 256.686 C 204.078 287.114, 205.810 301.627, 210.126 315.737 C 214.787 330.974, 219.806 336.138, 230.626 336.827 C 243.516 337.648, 256.528 332.018, 269.487 320.012 C 277.484 312.603, 286.835 306.139, 291.866 304.543 C 293.994 303.867, 294 303.756, 294 267.116 C 294 244.878, 293.570 228.040, 292.911 224.474 C 290.722 212.633, 283.577 203.471, 272.500 198.301 C 266.500 195.500, 266.500 195.500, 175 195.344 C 124.675 195.259, 81.534 195.582, 79.132 196.063 M 853.500 227.928 C 845.040 233.663, 844.818 245.462, 853.041 252.381 C 858.615 257.071, 869.030 255.591, 873.885 249.419 C 878.383 243.701, 877.543 234.811, 872.005 229.505 C 869.438 227.046, 867.996 226.538, 862.733 226.244 C 857.729 225.964, 855.909 226.296, 853.500 227.928 M 359.265 229.542 C 346.305 233.032, 335.232 241.990, 329.990 253.226 C 325.489 262.873, 324.756 272.787, 325.230 317.580 C 325.619 354.416, 325.759 356.859, 327.848 363.210 C 332.781 378.205, 345.369 389.062, 361.878 392.562 C 389.863 398.494, 414.672 385.629, 421.777 361.500 C 423.996 353.966, 424.780 309.892, 422.726 308.188 C 421.633 307.280, 415.189 307.032, 397.875 307.231 C 374.500 307.500, 374.500 307.500, 374.212 316.750 C 373.925 326, 373.925 326, 387.462 326 C 401 326, 401 326, 401 340.134 C 401 357.305, 400.037 361.018, 394.028 367.028 C 387.255 373.801, 376.358 376.058, 365.086 373.023 C 359.366 371.483, 350.924 363.163, 349.216 357.384 C 348.343 354.429, 348 341.012, 348 309.830 C 348 266.393, 348 266.393, 350.590 261.195 C 356.476 249.383, 369.706 244.348, 383.833 248.543 C 394.602 251.741, 400.076 259.563, 400.948 273 C 401.500 281.500, 401.500 281.500, 412.500 281.500 C 423.500 281.500, 423.500 281.500, 423.812 277.154 C 424.314 270.169, 422.154 259.108, 418.995 252.490 C 413.844 241.696, 402.538 232.938, 389.307 229.492 C 382.152 227.628, 366.272 227.654, 359.265 229.542 M 181.418 233.567 C 177.151 235.972, 173.494 237.188, 169.168 237.640 C 163 238.285, 163 238.285, 163.006 241.892 C 163.015 247.892, 165.020 253.220, 168.625 256.825 C 171.828 260.028, 172.380 260.216, 177.364 259.803 C 183.655 259.281, 188.053 256.515, 190.377 251.619 C 192.637 246.856, 192.456 238.814, 189.980 233.960 C 188.868 231.782, 187.856 230.031, 187.730 230.070 C 187.603 230.108, 184.763 231.682, 181.418 233.567 M 559.698 230.635 C 558.710 231.624, 558.856 389.225, 559.847 390.787 C 560.448 391.733, 563.420 391.998, 571.082 391.787 C 581.500 391.500, 581.500 391.500, 581.500 311 C 581.500 230.500, 581.500 230.500, 570.948 230.218 C 565.145 230.063, 560.083 230.251, 559.698 230.635 M 609.244 310.750 C 609.500 391.500, 609.500 391.500, 620.250 391.784 C 631 392.068, 631 392.068, 631 311.034 C 631 230, 631 230, 619.994 230 C 608.988 230, 608.988 230, 609.244 310.750 M 1011.699 244.634 C 1011.315 245.019, 1011 251.783, 1011 259.667 C 1011 274, 1011 274, 1004.107 274 C 996.203 274, 996 274.213, 996 282.500 C 996 290.779, 996.209 291, 1004.056 291 C 1010.897 291, 1010.897 291, 1011.199 332.250 C 1011.488 371.859, 1011.585 373.683, 1013.624 378.093 C 1018.235 388.063, 1027.007 392, 1044.605 392 C 1055 392, 1055 392, 1055 382.637 C 1055 373.274, 1055 373.274, 1048.705 372.769 C 1045.242 372.491, 1040.932 371.499, 1039.126 370.565 C 1033.214 367.508, 1033 365.973, 1033 326.564 C 1033 291.063, 1033 291.063, 1044.750 290.782 C 1056.500 290.500, 1056.500 290.500, 1056.500 282.500 C 1056.500 274.500, 1056.500 274.500, 1044.777 274.218 C 1033.053 273.937, 1033.053 273.937, 1032.777 259.218 C 1032.500 244.500, 1032.500 244.500, 1022.449 244.217 C 1016.922 244.062, 1012.084 244.249, 1011.699 244.634 M 477.760 273.491 C 462.571 277.349, 451.112 288.610, 449.359 301.400 C 448.630 306.716, 448.696 306.746, 461.890 307.187 C 472.081 307.527, 471.629 307.749, 474.064 301.189 C 475.727 296.711, 480.606 293.213, 486.840 292.030 C 495.707 290.349, 503.516 293.161, 507.951 299.633 C 509.894 302.469, 510.452 304.779, 510.801 311.436 C 511.236 319.713, 511.236 319.713, 494.868 320.256 C 472.374 321.001, 462.327 324.361, 453.554 334.072 C 447.868 340.366, 445.773 346.018, 445.222 356.547 C 444.389 372.470, 449.033 382.305, 460.329 388.539 C 475.297 396.799, 495.377 395.382, 507.500 385.209 C 510.500 382.692, 510.500 382.692, 510.780 385.096 C 511.640 392.484, 510.945 392.096, 522.777 391.784 C 533.500 391.500, 533.500 391.500, 533.500 347 C 533.500 306.927, 533.323 302.003, 531.725 297.500 C 528.079 287.227, 519.717 278.999, 508.594 274.738 C 501.796 272.134, 485.670 271.482, 477.760 273.491 M 688.500 273.447 C 677.229 276.327, 669.999 281.254, 664.115 290.066 C 657.869 299.419, 656.481 307.151, 656.589 332 C 656.713 360.846, 659.009 370.472, 668.149 380.473 C 684.140 397.969, 716.462 398.633, 733.285 381.810 C 738.371 376.724, 744.917 364.513, 743.378 362.983 C 742.895 362.504, 738.564 361.235, 733.752 360.165 C 725.005 358.218, 725.005 358.218, 721.252 363.820 C 716.287 371.232, 710.805 374.125, 701.724 374.125 C 687.256 374.125, 679 364.836, 679 348.557 C 679 343, 679 343, 712 343 C 737.684 343, 745.020 342.723, 745.092 341.750 C 745.512 336.016, 744.647 309.475, 743.913 305.573 C 739.379 281.502, 714.173 266.889, 688.500 273.447 M 1106.046 273.598 C 1090.196 277.858, 1079.476 288.361, 1077.419 301.646 C 1076.806 305.608, 1076.904 305.817, 1079.639 306.350 C 1081.212 306.656, 1086.275 307.040, 1090.889 307.203 C 1100.011 307.526, 1099.420 307.852, 1102.559 300.766 C 1106.658 291.512, 1122.841 288.478, 1132.274 295.195 C 1136.252 298.028, 1138.997 304.573, 1139.694 312.890 C 1140.266 319.716, 1140.266 319.716, 1123.383 320.268 C 1106.055 320.834, 1099.895 321.982, 1091.651 326.181 C 1080.847 331.684, 1074.191 342.431, 1073.275 355.851 C 1071.629 379.948, 1085.236 393.669, 1110.500 393.390 C 1121.862 393.264, 1126.669 391.862, 1134.138 386.497 C 1136.814 384.573, 1139.229 383, 1139.502 383 C 1139.776 383, 1140 385.040, 1140 387.534 C 1140 392.068, 1140 392.068, 1150.750 391.784 C 1161.500 391.500, 1161.500 391.500, 1161.500 346 C 1161.500 300.500, 1161.500 300.500, 1158.840 294.825 C 1151.862 279.941, 1137.426 271.874, 1118.114 272.066 C 1114.476 272.102, 1109.046 272.791, 1106.046 273.598 M 809.044 274.577 C 803.198 277.114, 799.070 280.907, 795.715 286.828 C 792.500 292.500, 792.500 292.500, 792.212 283.250 C 791.925 274, 791.925 274, 780.954 274 C 769.984 274, 769.984 274, 770.242 332.750 C 770.500 391.500, 770.500 391.500, 781 391.500 C 791.500 391.500, 791.500 391.500, 792 353.426 C 792.500 315.352, 792.500 315.352, 795.522 309.426 C 800.731 299.215, 811.454 294.252, 822.756 296.822 C 825.097 297.355, 827.236 297.427, 827.510 296.983 C 827.902 296.349, 832 277.653, 832 276.499 C 832 276.344, 830.191 275.493, 827.980 274.609 C 822.978 272.607, 813.622 272.592, 809.044 274.577 M 925.024 274.544 C 914.089 277.600, 906.335 283.851, 902.139 292.994 C 900.099 297.438, 899.614 300.043, 899.625 306.500 C 899.642 316.304, 901.881 321.933, 908.325 328.377 C 913.869 333.921, 917.890 336.006, 934.997 342.207 C 956.663 350.060, 960.771 353.471, 959.726 362.742 C 958.779 371.140, 951.676 376, 940.348 376 C 930.107 376, 921.876 371.169, 920.478 364.338 C 918.813 356.200, 920.059 357, 909.048 357 C 900.484 357, 899.059 357.238, 898.579 358.750 C 897.790 361.236, 899.577 371.281, 901.453 374.909 C 905.216 382.186, 914.487 388.851, 924.460 391.448 C 931.279 393.224, 948.173 393.487, 954.958 391.924 C 965.015 389.606, 975.134 382.442, 979.043 374.871 C 983.499 366.242, 983.293 352.588, 978.586 344.556 C 973.640 336.117, 965.258 330.837, 945.745 323.869 C 925.905 316.785, 921.012 313.033, 921.004 304.898 C 920.995 296.518, 928.793 290.695, 939.929 290.765 C 950.935 290.834, 957.308 295.059, 959.515 303.749 C 960.721 308.500, 960.721 308.500, 970.611 308.500 C 980.500 308.500, 980.500 308.500, 980.312 302.840 C 979.948 291.864, 971.012 280.464, 959.202 275.908 C 951.663 272.999, 933.189 272.262, 925.024 274.544 M 166.500 275.653 C 147.105 279.782, 130.932 294.452, 124.287 313.942 C 121.643 321.699, 121.226 335.503, 123.390 343.632 C 125.189 350.388, 130.043 359.356, 135.092 365.254 C 139.018 369.840, 150.754 379.584, 151.474 378.856 C 151.667 378.660, 153.683 369.500, 155.953 358.500 C 158.222 347.500, 160.470 337.557, 160.948 336.404 C 161.525 335.013, 161.177 332.001, 159.914 327.448 C 157.828 319.925, 154.601 298.455, 155.369 297.212 C 155.634 296.784, 157.663 296.606, 159.879 296.817 C 163.848 297.196, 163.916 297.270, 164.504 301.851 C 165.535 309.885, 168.867 326.331, 170.310 330.500 C 171.694 334.500, 171.694 334.500, 178.317 334.795 C 184.848 335.086, 184.948 335.052, 185.546 332.295 C 187.324 324.101, 190.665 314.446, 194.720 305.785 C 199.269 296.070, 199.269 296.070, 196.257 292.640 C 193.402 289.388, 190.807 283.651, 189.586 277.891 C 189.098 275.590, 188.412 275.208, 183.766 274.650 C 176.673 273.798, 174.668 273.914, 166.500 275.653 M 850.620 275.549 C 849.686 277.983, 849.906 389.303, 850.847 390.787 C 851.448 391.733, 854.420 391.998, 862.082 391.787 C 872.500 391.500, 872.500 391.500, 872.500 333 C 872.500 274.500, 872.500 274.500, 861.870 274.217 C 852.839 273.977, 851.146 274.178, 850.620 275.549 M 695.275 291.934 C 684.717 294.564, 679 303.785, 679 318.182 C 679 325, 679 325, 701.148 325 C 723.295 325, 723.295 325, 722.646 316.562 C 721.918 307.079, 720.967 303.956, 717.373 299.245 C 712.897 293.376, 702.841 290.049, 695.275 291.934 M 198.246 318.720 C 196.626 322.542, 194 332.331, 194 334.549 C 194 334.797, 196.025 335, 198.500 335 C 200.975 335, 203 335.446, 203 335.991 C 203 336.835, 206.069 360.190, 213.578 416.500 C 216.754 440.313, 212.943 437.501, 242.026 437.495 C 267.500 437.489, 267.500 437.489, 273.161 434.714 C 280.874 430.933, 286.582 425.102, 290.345 417.159 C 293.500 410.500, 293.500 410.500, 293.803 362.144 C 294.107 313.788, 294.107 313.788, 291.303 315.801 C 289.762 316.909, 282.469 322.547, 275.097 328.331 C 255.493 343.712, 240.709 350.118, 228.500 348.522 C 215.715 346.850, 209.390 340.705, 204.581 325.281 C 202.828 319.660, 201.142 314.809, 200.833 314.500 C 200.525 314.192, 199.361 316.090, 198.246 318.720 M 482 339.175 C 477.510 340.451, 472.352 344.375, 469.919 348.366 C 467.261 352.725, 467.300 362.340, 469.995 366.759 C 477.308 378.755, 500.575 376.705, 508.657 363.354 C 510.716 359.952, 510.990 358.238, 510.995 348.750 C 511 338, 511 338, 498.250 338.090 C 491.238 338.140, 483.925 338.628, 482 339.175 M 1109.558 339.492 C 1104.803 341.186, 1101.328 343.681, 1098.562 347.385 C 1095.570 351.393, 1095.595 363.640, 1098.605 367.677 C 1102.263 372.584, 1106.634 374.444, 1114.509 374.444 C 1120.215 374.444, 1122.671 373.907, 1127.294 371.645 C 1136.966 366.912, 1139.985 360.878, 1139.994 346.250 C 1140 338, 1140 338, 1126.750 338.044 C 1118.015 338.073, 1112.157 338.566, 1109.558 339.492 M 169.103 348.250 C 168.181 350.699, 150.994 434.707, 150.998 436.750 C 151 437.720, 157.168 438, 178.500 438 C 206 438, 206 438, 206 435.836 C 206 433.457, 195.310 353.173, 194.404 348.750 C 193.841 346, 193.841 346, 181.896 346 C 170.426 346, 169.917 346.090, 169.103 348.250" stroke="none" fill="#040404" fill-rule="evenodd"/></svg>