<svg xmlns="http://www.w3.org/2000/svg" width="3000" height="750" viewBox="0 0 3000 750" version="1.1"><path d="M 789.500 195.689 C 787.850 195.903, 782.675 196.763, 778 197.600 C 773.325 198.438, 764.923 200.646, 759.329 202.507 C 753.734 204.369, 746.309 207.329, 742.829 209.085 C 739.348 210.842, 733.125 214.541, 729 217.306 C 724.875 220.071, 717.847 225.970, 713.383 230.416 C 708.918 234.862, 702.735 242.387, 699.643 247.138 C 696.550 251.889, 692.481 259.372, 690.599 263.768 C 688.718 268.164, 685.945 276.427, 684.437 282.130 C 681.696 292.500, 681.696 292.500, 680.874 383.500 C 680.360 440.426, 680.411 478.829, 681.010 486.060 C 681.537 492.418, 683.055 501.901, 684.382 507.134 C 685.709 512.366, 688.193 520.005, 689.901 524.108 C 691.609 528.211, 695.641 535.603, 698.860 540.534 C 702.080 545.465, 707.286 552.307, 710.430 555.738 C 713.574 559.169, 720.011 564.877, 724.735 568.422 C 729.459 571.967, 737.421 576.902, 742.429 579.387 C 747.437 581.873, 755.577 585.222, 760.518 586.829 C 765.458 588.436, 774 590.594, 779.500 591.625 C 787.225 593.073, 794.050 593.492, 809.500 593.465 C 824.183 593.439, 832.026 592.962, 839 591.672 C 844.225 590.705, 853.072 588.385, 858.660 586.515 C 864.248 584.645, 871.898 581.556, 875.660 579.649 C 879.422 577.743, 885.875 573.804, 890 570.896 C 894.125 567.988, 900.705 562.365, 904.622 558.401 C 908.539 554.437, 914.319 547.324, 917.465 542.595 C 920.612 537.866, 924.656 530.510, 926.452 526.248 C 928.248 521.987, 930.495 515.822, 931.445 512.548 C 932.396 509.274, 933.855 503.199, 934.689 499.048 C 935.864 493.195, 936.314 480.928, 936.692 444.411 C 937.137 401.454, 937.034 397.177, 935.519 395.661 C 934.007 394.150, 928.458 394, 874 394 C 820.918 394, 813.965 394.178, 812.571 395.571 C 811.347 396.796, 811 399.410, 811 407.416 C 811 416.099, 811.283 417.946, 812.829 419.345 C 814.474 420.834, 819.240 421, 860.404 421 C 906.150 421, 906.150 421, 905.761 458.250 C 905.399 492.892, 905.217 496.060, 903.165 503.500 C 901.951 507.900, 899.157 515.137, 896.957 519.583 C 894.756 524.028, 890.488 530.656, 887.474 534.311 C 884.459 537.966, 879.181 543.226, 875.746 545.999 C 872.311 548.772, 865 553.262, 859.500 555.977 C 854 558.692, 845.900 561.818, 841.500 562.925 C 837.100 564.032, 829.687 565.402, 825.026 565.969 C 820.366 566.536, 813.379 567, 809.500 567 C 805.621 567, 798.634 566.536, 793.974 565.969 C 789.313 565.402, 781.900 564.020, 777.500 562.899 C 773.100 561.777, 765.745 559.100, 761.156 556.951 C 756.568 554.801, 750 551.035, 746.561 548.581 C 743.123 546.127, 737.149 540.736, 733.287 536.601 C 728.929 531.933, 724.675 526.025, 722.072 521.022 C 719.766 516.590, 716.985 510.384, 715.892 507.232 C 714.799 504.079, 713.254 497.225, 712.458 492 C 711.281 484.271, 711.014 466.654, 711.023 397.500 C 711.030 348.199, 711.453 308.510, 712.030 303 C 712.578 297.775, 713.940 290.125, 715.057 286 C 716.174 281.875, 718.873 274.900, 721.056 270.500 C 723.238 266.100, 727.393 259.587, 730.288 256.026 C 733.183 252.465, 738.691 246.915, 742.526 243.693 C 746.477 240.373, 753.834 235.693, 759.500 232.894 C 765.128 230.115, 773.872 226.836, 779.500 225.395 C 787.147 223.437, 793.049 222.704, 804.585 222.279 C 816.220 221.851, 821.997 222.113, 829.847 223.426 C 835.445 224.362, 843.231 226.218, 847.150 227.551 C 851.068 228.884, 857.683 231.813, 861.849 234.060 C 866.016 236.307, 872.241 240.431, 875.683 243.224 C 879.125 246.016, 883.693 250.379, 885.835 252.919 C 887.977 255.459, 891.385 260.127, 893.410 263.291 C 895.434 266.456, 897.995 271.155, 899.100 273.734 C 900.206 276.313, 902.020 281.590, 903.132 285.461 C 904.505 290.243, 905.378 297.261, 905.854 307.351 C 906.467 320.345, 906.794 322.376, 908.468 323.601 C 909.836 324.601, 913.547 325, 921.469 325 C 929.884 325, 933.090 324.625, 934.777 323.443 C 936.850 321.992, 937 321.129, 936.996 310.693 C 936.994 304.537, 936.301 295.237, 935.456 290.027 C 934.611 284.818, 932.563 276.493, 930.904 271.527 C 929.245 266.562, 926.291 259.575, 924.338 256 C 922.386 252.425, 918.862 246.791, 916.507 243.479 C 914.152 240.167, 908.975 234.227, 905.003 230.278 C 901.030 226.329, 894.459 220.802, 890.400 217.996 C 886.341 215.190, 879.528 211.147, 875.260 209.011 C 870.992 206.875, 863.385 203.750, 858.356 202.065 C 853.326 200.380, 843.944 198.102, 837.506 197.001 C 828.620 195.482, 821.791 195.036, 809.151 195.150 C 799.993 195.232, 791.150 195.475, 789.500 195.689 M 2076 196.874 C 2074.075 197.292, 2070.830 198.434, 2068.790 199.412 C 2066.749 200.390, 2063.284 203.138, 2061.090 205.518 C 2058.435 208.398, 2056.541 211.771, 2055.428 215.601 C 2054.303 219.471, 2053.918 223.389, 2054.253 227.564 C 2054.588 231.741, 2055.663 235.448, 2057.537 238.891 C 2059.069 241.706, 2061.712 245.065, 2063.411 246.356 C 2065.110 247.647, 2068.075 249.545, 2070 250.573 C 2072.675 252.001, 2075.621 252.441, 2082.500 252.438 C 2089.810 252.436, 2092.276 252.026, 2095.634 250.256 C 2097.908 249.058, 2101.188 246.658, 2102.923 244.923 C 2104.658 243.188, 2107.069 239.908, 2108.281 237.634 C 2110.084 234.253, 2110.486 231.861, 2110.486 224.500 C 2110.486 217.181, 2110.080 214.740, 2108.315 211.432 C 2107.122 209.194, 2104.263 205.663, 2101.962 203.585 C 2099.661 201.506, 2096.251 199.167, 2094.383 198.387 C 2092.516 197.607, 2088.403 196.776, 2085.244 196.541 C 2082.085 196.306, 2077.925 196.456, 2076 196.874 M 1309.749 200.750 C 1308.349 202.320, 1308.154 222.252, 1307.850 394.706 C 1307.575 550.784, 1307.754 587.155, 1308.803 588.206 C 1309.666 589.070, 1313.914 589.612, 1321.590 589.837 C 1330.595 590.101, 1333.585 589.847, 1335.392 588.662 C 1337.700 587.151, 1337.700 587.151, 1338.436 395.531 C 1339.109 220.332, 1339.034 203.701, 1337.563 201.456 C 1335.998 199.068, 1335.613 199, 1323.632 199 C 1313.158 199, 1311.076 199.262, 1309.749 200.750 M 1436.737 200.406 C 1435.563 201.579, 1435.221 215.105, 1434.666 282.156 C 1434.300 326.345, 1434.001 413.002, 1434.001 474.727 C 1434 586.954, 1434 586.954, 1436.457 588.564 C 1438.444 589.866, 1441.117 590.110, 1450.410 589.837 C 1458.114 589.611, 1462.333 589.071, 1463.203 588.200 C 1464.255 587.146, 1464.549 550.504, 1464.760 394.200 C 1465.004 213.747, 1464.913 201.421, 1463.319 200.250 C 1462.186 199.418, 1457.696 199, 1449.880 199 C 1441.129 199, 1437.785 199.358, 1436.737 200.406 M 75 201 C 75 201.550, 74.100 202, 73 202 C 71.900 202, 71 202.450, 71 203 C 71 203.550, 68.849 204, 66.221 204 C 62.589 204, 61.096 204.480, 60 206 C 59.207 207.100, 57.758 208, 56.779 208 C 55.801 208, 55 208.450, 55 209 C 55 209.550, 53.749 210, 52.221 210 C 50.589 210, 48.847 210.826, 48 212 C 47.207 213.100, 45.758 214, 44.779 214 C 43.801 214, 43 214.690, 43 215.533 C 43 216.377, 41.440 218.627, 39.533 220.533 C 37.627 222.440, 35.377 224, 34.533 224 C 33.667 224, 33 224.870, 33 226 C 33 227.100, 32.599 228, 32.108 228 C 31.618 228, 30.934 229.125, 30.589 230.500 C 30.244 231.875, 29.520 233, 28.981 233 C 28.441 233, 28 233.900, 28 235 C 28 236.100, 27.550 237, 27 237 C 26.450 237, 26 237.900, 26 239 C 26 240.100, 25.550 241, 25 241 C 24.450 241, 24 242.350, 24 244 C 24 245.650, 23.550 247, 23 247 C 22.450 247, 22 247.900, 22 249 C 22 250.100, 21.550 251, 21 251 C 20.338 251, 20 303, 20 405 C 20 507, 20.338 559, 21 559 C 21.550 559, 22 559.900, 22 561 C 22 562.100, 22.450 563, 23 563 C 23.550 563, 24 564.701, 24 566.779 C 24 569.411, 24.607 570.996, 26 572 C 27.174 572.847, 28 574.589, 28 576.221 C 28 577.749, 28.450 579, 29 579 C 29.550 579, 30 579.900, 30 581 C 30 582.111, 30.667 583, 31.500 583 C 32.325 583, 33 583.801, 33 584.779 C 33 585.758, 33.968 587.220, 35.152 588.029 C 36.336 588.838, 39.701 591.863, 42.630 594.750 C 45.560 597.638, 48.641 600, 49.478 600 C 50.315 600, 51 600.450, 51 601 C 51 601.550, 51.801 602, 52.779 602 C 53.758 602, 55.207 602.900, 56 604 C 57.004 605.393, 58.589 606, 61.221 606 C 63.299 606, 65 606.450, 65 607 C 65 607.550, 65.900 608, 67 608 C 68.100 608, 69 608.450, 69 609 C 69 609.662, 121.333 610, 224 610 C 326.667 610, 379 609.662, 379 609 C 379 608.450, 380.350 608, 382 608 C 383.650 608, 385 607.550, 385 607 C 385 606.450, 386.125 606, 387.500 606 C 388.875 606, 390 605.550, 390 605 C 390 604.450, 391.251 604, 392.779 604 C 394.411 604, 396.153 603.174, 397 602 C 397.793 600.900, 399.242 600, 400.221 600 C 401.333 600, 402 599.251, 402 598 C 402 596.667, 402.667 596, 404 596 C 405.100 596, 406 595.550, 406 595 C 406 594.450, 406.900 594, 408 594 C 409.333 594, 410 593.333, 410 592 C 410 590.667, 410.667 590, 412 590 C 413.111 590, 414 589.333, 414 588.500 C 414 587.675, 414.450 587, 415 587 C 415.550 587, 416 586.199, 416 585.221 C 416 584.242, 416.900 582.793, 418 582 C 419.100 581.207, 420 579.857, 420 579 C 420 578.143, 420.900 576.793, 422 576 C 423.174 575.153, 424 573.411, 424 571.779 C 424 570.251, 424.450 569, 425 569 C 425.550 569, 426 567.650, 426 566 C 426 564.350, 426.450 563, 427 563 C 427.550 563, 428 561.650, 428 560 C 428 558.350, 428.450 557, 429 557 C 429.662 557, 430 506, 430 406 C 430 306, 429.662 255, 429 255 C 428.450 255, 428 253.200, 428 251 C 428 248.800, 427.550 247, 427 247 C 426.450 247, 426 245.650, 426 244 C 426 242.350, 425.550 241, 425 241 C 424.450 241, 424 240.199, 424 239.221 C 424 238.242, 423.100 236.793, 422 236 C 420.900 235.207, 420 233.758, 420 232.779 C 420 231.801, 419.550 231, 419 231 C 418.450 231, 418 230.424, 418 229.721 C 418 229.017, 417.100 227.793, 416 227 C 414.900 226.207, 414 224.758, 414 223.779 C 414 222.801, 413.300 222, 412.445 222 C 411.589 222, 408.239 219.300, 405 216 C 401.761 212.700, 398.411 210, 397.555 210 C 396.700 210, 396 209.550, 396 209 C 396 208.450, 394.425 208, 392.500 208 C 389.667 208, 389 207.619, 389 206 C 389 204.267, 388.333 204, 384 204 C 381.250 204, 379 203.550, 379 203 C 379 202.450, 378.100 202, 377 202 C 375.900 202, 375 201.550, 375 201 C 375 200.338, 324.333 200, 225 200 C 125.667 200, 75 200.338, 75 201 M 86 211 C 86 211.550, 84.875 212, 83.500 212 C 82.125 212, 81 212.450, 81 213 C 81 213.556, 78.333 214, 75 214 C 71.667 214, 69 214.444, 69 215 C 69 215.550, 68.100 216, 67 216 C 65.900 216, 65 216.450, 65 217 C 65 217.550, 64.100 218, 63 218 C 61.900 218, 61 218.450, 61 219 C 61 219.550, 60.199 220, 59.221 220 C 58.242 220, 56.793 220.900, 56 222 C 55.207 223.100, 53.968 224, 53.246 224 C 52.524 224, 50.358 225.575, 48.433 227.500 C 46.508 229.425, 44.498 231, 43.967 231 C 43.435 231, 43 231.719, 43 232.599 C 43 233.478, 41.650 235.459, 40 237 C 38.293 238.594, 37 240.828, 37 242.180 C 37 243.488, 36.100 245.207, 35 246 C 33.900 246.793, 33 248.205, 33 249.137 C 33 250.070, 32.438 251.062, 31.750 251.341 C 30.791 251.730, 30.829 252.077, 31.912 252.833 C 33.112 253.670, 33.077 254.066, 31.680 255.463 C 30.168 256.975, 30.036 269.147, 30.053 406.018 C 30.068 535.433, 30.263 555.120, 31.535 556.393 C 32.341 557.198, 33 559.365, 33 561.208 C 33 563.411, 33.685 565.052, 35 566 C 36.103 566.795, 37 568.589, 37 570 C 37 571.411, 37.897 573.205, 39 574 C 40.100 574.793, 41 576.027, 41 576.742 C 41 577.458, 43.465 580.509, 46.478 583.522 C 49.491 586.535, 52.621 589, 53.433 589 C 54.245 589, 56.034 590.125, 57.409 591.500 C 58.784 592.875, 61.055 594, 62.455 594 C 63.855 594, 65 594.450, 65 595 C 65 595.550, 66.350 596, 68 596 C 69.650 596, 71 596.450, 71 597 C 71 597.550, 72.350 598, 74 598 C 75.650 598, 77 598.450, 77 599 C 77 599.652, 93.190 600, 123.571 600 C 162.600 600, 170.374 599.769, 171.571 598.571 C 172.434 597.709, 173 595.133, 173 592.071 C 173 589.282, 173.450 587, 174 587 C 174.550 587, 175 585.650, 175 584 C 175 582.350, 175.450 581, 176 581 C 176.556 581, 177 578.333, 177 575 C 177 571.667, 177.444 569, 178 569 C 178.550 569, 179 566.750, 179 564 C 179 561.250, 179.450 559, 180 559 C 180.550 559, 181 557.200, 181 555 C 181 552.800, 181.396 551, 181.881 551 C 182.366 551, 183.083 546.725, 183.474 541.500 C 183.866 536.275, 184.595 532, 185.093 532 C 185.592 532, 186 530.650, 186 529 C 186 526.544, 185.587 526, 183.721 526 C 182.467 526, 180.793 525.100, 180 524 C 179.207 522.900, 177.758 522, 176.779 522 C 175.801 522, 175 521.550, 175 521 C 175 520.450, 174.199 520, 173.221 520 C 172.242 520, 170.793 519.100, 170 518 C 169.207 516.900, 167.978 516, 167.268 516 C 166.558 516, 161.257 511.280, 155.488 505.512 C 149.720 499.743, 145 494.442, 145 493.732 C 145 493.022, 144.100 491.793, 143 491 C 141.900 490.207, 141 488.983, 141 488.279 C 141 487.576, 140.550 487, 140 487 C 139.450 487, 139 486.199, 139 485.221 C 139 484.242, 138.100 482.793, 137 482 C 135.900 481.207, 135 479.501, 135 478.208 C 135 476.915, 134.325 475.182, 133.500 474.357 C 132.675 473.532, 132 471.539, 132 469.929 C 132 468.318, 131.550 467, 131 467 C 130.450 467, 130 464.915, 130 462.367 C 130 458.828, 129.477 457.281, 127.782 455.811 C 125.899 454.178, 125.786 453.734, 127.032 452.868 C 128.144 452.095, 128.197 451.725, 127.250 451.341 C 126.419 451.003, 126 448.513, 126 443.917 C 126 439.972, 125.570 437, 125 437 C 124.404 437, 124 433.167, 124 427.500 C 124 421.833, 124.404 418, 125 418 C 125.593 418, 126 414.333, 126 409 C 126 403.667, 126.407 400, 127 400 C 127.550 400, 128 399.100, 128 398 C 128 396.900, 128.450 396, 129 396 C 129.550 396, 130 394.200, 130 392 C 130 389.800, 130.450 388, 131 388 C 131.550 388, 132 386.907, 132 385.571 C 132 384.236, 132.675 382.468, 133.500 381.643 C 134.325 380.818, 135 379.436, 135 378.571 C 135 377.707, 135.450 377, 136 377 C 136.550 377, 137 376.100, 137 375 C 137 373.900, 137.450 373, 138 373 C 138.550 373, 139 372.100, 139 371 C 139 369.900, 139.450 369, 140 369 C 140.550 369, 141 368.199, 141 367.221 C 141 366.242, 141.900 364.793, 143 364 C 144.100 363.207, 145 361.758, 145 360.779 C 145 359.667, 145.749 359, 147 359 C 148.119 359, 149 358.333, 149 357.486 C 149 356.653, 152.819 352.153, 157.486 347.486 C 162.153 342.819, 166.554 339, 167.265 339 C 167.976 339, 169.207 338.100, 170 337 C 170.793 335.900, 172.242 335, 173.221 335 C 174.199 335, 175 334.550, 175 334 C 175 333.450, 175.900 333, 177 333 C 178.111 333, 179 332.333, 179 331.500 C 179 330.667, 179.889 330, 181 330 C 182.309 330, 183 329.333, 183 328.071 C 183 327.011, 183.675 325.468, 184.500 324.643 C 185.325 323.818, 186 322.436, 186 321.571 C 186 320.707, 186.450 320, 187 320 C 187.550 320, 188 318.200, 188 316 C 188 313.800, 188.450 312, 189 312 C 189.606 312, 190 307.667, 190 301 C 190 294.333, 190.394 290, 191 290 C 191.550 290, 192 289.100, 192 288 C 192 286.900, 191.550 286, 191 286 C 190.450 286, 190 283.975, 190 281.500 C 190 279.025, 190.450 277, 191 277 C 191.550 277, 192 275.200, 192 273 C 192 270.800, 192.450 269, 193 269 C 193.550 269, 194 268.100, 194 267 C 194 265.900, 194.450 265, 195 265 C 195.550 265, 196 264.199, 196 263.221 C 196 262.242, 196.900 260.793, 198 260 C 199.100 259.207, 200 257.968, 200 257.246 C 200 256.524, 201.560 254.373, 203.467 252.467 C 205.373 250.560, 207.524 249, 208.246 249 C 208.968 249, 210.207 248.100, 211 247 C 211.847 245.826, 213.589 245, 215.221 245 C 216.749 245, 218 244.550, 218 244 C 218 243.450, 218.900 243, 220 243 C 221.100 243, 222 242.550, 222 242 C 222 241.397, 226.167 241, 232.500 241 C 238.833 241, 243 241.397, 243 242 C 243 242.550, 243.900 243, 245 243 C 246.100 243, 247 243.450, 247 244 C 247 244.550, 248.350 245, 250 245 C 251.650 245, 253 245.450, 253 246 C 253 246.550, 253.900 247, 255 247 C 256.333 247, 257 247.667, 257 249 C 257 250.137, 257.667 251, 258.545 251 C 259.395 251, 261.195 252.105, 262.545 253.455 C 263.895 254.805, 265 256.605, 265 257.455 C 265 258.305, 265.450 259, 266 259 C 266.550 259, 267 259.900, 267 261 C 267 262.100, 267.450 263, 268 263 C 268.550 263, 269 263.900, 269 265 C 269 266.100, 269.450 267, 270 267 C 270.550 267, 271 268.800, 271 271 C 271 274.333, 271.333 275, 273 275 C 274.304 275, 275 275.667, 275 276.917 C 275 277.971, 274.438 279.096, 273.750 279.417 C 272.750 279.883, 272.750 280.117, 273.750 280.583 C 274.710 281.032, 275 288.328, 275 312.083 C 275 332.028, 275.355 343, 276 343 C 276.615 343, 277 348, 277 356 C 277 364, 277.385 369, 278 369 C 278.550 369, 279 370.800, 279 373 C 279 375.200, 279.450 377, 280 377 C 280.564 377, 281 379.833, 281 383.500 C 281 387.167, 281.436 390, 282 390 C 282.550 390, 283 390.900, 283 392 C 283 393.100, 283.388 394, 283.863 394 C 284.338 394, 284.969 397.023, 285.265 400.717 C 285.562 404.412, 286.299 407.600, 286.902 407.801 C 287.506 408.002, 288 409.929, 288 412.083 C 288 414.238, 288.450 416, 289 416 C 289.550 416, 290 416.900, 290 418 C 290 419.100, 290.450 420, 291 420 C 291.550 420, 292 420.900, 292 422 C 292 423.100, 292.450 424, 293 424 C 293.550 424, 294 424.900, 294 426 C 294 427.333, 294.667 428, 296 428 C 297.333 428, 298 428.667, 298 430 C 298 431.183, 298.667 432, 299.633 432 C 300.531 432, 302.143 433.012, 303.216 434.250 C 305.092 436.414, 305.797 436.500, 321.749 436.500 C 334.126 436.500, 338.438 436.183, 338.749 435.250 C 338.988 434.534, 340.839 434, 343.083 434 C 345.238 434, 347 433.550, 347 433 C 347 432.450, 348.251 432, 349.779 432 C 351.411 432, 353.153 431.174, 354 430 C 354.795 428.897, 356.589 428, 358 428 C 359.411 428, 361.205 427.103, 362 426 C 362.793 424.900, 364.143 424, 365 424 C 365.857 424, 367.207 423.100, 368 422 C 368.793 420.900, 370.034 420, 370.759 420 C 371.484 420, 376.110 415.933, 381.038 410.961 C 385.967 405.990, 390 401.490, 390 400.961 C 390 400.433, 390.801 400, 391.779 400 C 392.758 400, 394.207 399.100, 395 398 C 395.793 396.900, 397.062 396, 397.820 396 C 398.577 396, 400.459 394.650, 402 393 C 403.594 391.293, 405.828 390, 407.180 390 C 408.488 390, 410.207 389.100, 411 388 C 411.847 386.826, 413.589 386, 415.221 386 C 418 386, 418 386, 418 321.500 C 418 279.167, 417.656 257, 417 257 C 416.450 257, 416 254.750, 416 252 C 416 249.250, 415.550 247, 415 247 C 414.450 247, 414 246.100, 414 245 C 414 243.900, 413.550 243, 413 243 C 412.450 243, 412 242.100, 412 241 C 412 239.900, 411.550 239, 411 239 C 410.450 239, 410 238.100, 410 237 C 410 235.667, 409.333 235, 408 235 C 406.667 235, 406 234.333, 406 233 C 406 231.900, 405.562 231, 405.026 231 C 404.491 231, 402.028 228.975, 399.553 226.500 C 397.078 224.025, 394.366 222, 393.526 222 C 392.687 222, 392 221.550, 392 221 C 392 220.450, 391.325 220, 390.500 220 C 389.675 220, 389 219.550, 389 219 C 389 218.450, 388.100 218, 387 218 C 385.900 218, 385 217.550, 385 217 C 385 216.450, 384.100 216, 383 216 C 381.900 216, 381 215.550, 381 215 C 381 214.444, 378.333 214, 375 214 C 371.667 214, 369 213.556, 369 213 C 369 212.450, 367.650 212, 366 212 C 364.350 212, 363 211.550, 363 211 C 363 210.338, 316.167 210, 224.500 210 C 132.833 210, 86 210.338, 86 211 M 2486.200 238.200 C 2485.318 239.082, 2485 247.661, 2485 270.575 C 2485 287.721, 2484.719 303.156, 2484.375 304.875 C 2483.750 308, 2483.750 308, 2465.030 308 C 2448.164 308, 2446.146 308.181, 2444.655 309.829 C 2443.357 311.263, 2443 313.728, 2443 321.257 C 2443 328.651, 2443.361 331.218, 2444.571 332.429 C 2445.889 333.746, 2449.197 334, 2465.071 334 C 2484 334, 2484 334, 2484.006 430.750 C 2484.011 510.086, 2484.272 529.229, 2485.460 537.104 C 2486.256 542.386, 2488.012 549.642, 2489.361 553.227 C 2490.711 556.813, 2492.928 561.509, 2494.287 563.663 C 2495.647 565.817, 2499.312 569.912, 2502.432 572.763 C 2505.551 575.615, 2510.893 579.277, 2514.302 580.903 C 2517.711 582.529, 2523.737 584.755, 2527.693 585.850 C 2531.649 586.945, 2539.074 588.365, 2544.193 589.004 C 2549.312 589.644, 2560.400 590.018, 2568.833 589.834 C 2582.637 589.533, 2584.307 589.306, 2585.583 587.559 C 2586.573 586.203, 2587 582.720, 2587 576 C 2587 569.273, 2586.573 565.799, 2585.581 564.441 C 2584.301 562.690, 2582.412 562.438, 2566.331 561.870 C 2552.246 561.372, 2547.126 560.799, 2541.958 559.144 C 2538.359 557.991, 2533.243 555.609, 2530.588 553.851 C 2527.934 552.092, 2524.480 548.884, 2522.913 546.722 C 2521.347 544.559, 2519.185 540.437, 2518.109 537.562 C 2517.033 534.686, 2515.668 528.851, 2515.076 524.594 C 2514.394 519.687, 2514.001 491.909, 2514.002 448.678 C 2514.004 411.180, 2514.300 370.038, 2514.662 357.250 C 2515.319 334, 2515.319 334, 2550.088 334 C 2580.363 334, 2585.060 333.797, 2586.429 332.429 C 2587.643 331.214, 2588 328.635, 2588 321.084 C 2588 312.885, 2587.705 311.043, 2586.171 309.655 C 2584.544 308.182, 2580.530 308, 2549.671 308 C 2515 308, 2515 308, 2515 274.723 C 2515 246.222, 2514.777 241.126, 2513.443 239.223 C 2511.979 237.132, 2511.162 237, 2499.643 237 C 2491.454 237, 2487.003 237.397, 2486.200 238.200 M 248 269 C 247.207 270.100, 245.758 271, 244.779 271 C 243.801 271, 243 271.450, 243 272 C 243 272.550, 242.100 273, 241 273 C 239.900 273, 239 273.450, 239 274 C 239 274.550, 238.130 275, 237.067 275 C 236.004 275, 234.849 275.900, 234.500 277 C 233.978 278.644, 232.987 279, 228.933 279 C 226.220 279, 224 279.392, 224 279.871 C 224 280.350, 220.850 281.052, 217 281.431 C 210 282.121, 210 282.121, 210 289.061 C 210 293.020, 210.429 296, 211 296 C 211.550 296, 212 296.900, 212 298 C 212 299.100, 212.450 300, 213 300 C 213.550 300, 214 301.350, 214 303 C 214 304.650, 214.450 306, 215 306 C 215.550 306, 216 306.900, 216 308 C 216 309.333, 216.667 310, 218 310 C 219.100 310, 220 310.450, 220 311 C 220 311.550, 220.900 312, 222 312 C 223.100 312, 224 312.450, 224 313 C 224 313.550, 224.900 314, 226 314 C 227.100 314, 228 314.450, 228 315 C 228 315.550, 229.926 316, 232.279 316 C 235.411 316, 236.945 315.464, 238 314 C 238.793 312.900, 240.482 312, 241.754 312 C 243.059 312, 245.577 310.490, 247.533 308.533 C 249.440 306.627, 251 304.377, 251 303.533 C 251 302.690, 251.450 302, 252 302 C 252.550 302, 253 301.100, 253 300 C 253 298.900, 253.450 298, 254 298 C 254.550 298, 255 296.650, 255 295 C 255 293.350, 255.450 292, 256 292 C 256.550 292, 257 290.200, 257 288 C 257 285.800, 256.550 284, 256 284 C 255.450 284, 255 282.875, 255 281.500 C 255 280.125, 254.550 279, 254 279 C 253.450 279, 253 277.650, 253 276 C 253 274.350, 252.550 273, 252 273 C 251.450 273, 251 271.650, 251 270 C 251 268.350, 250.649 267, 250.221 267 C 249.792 267, 248.793 267.900, 248 269 M 1094.500 305.455 C 1090.100 306.147, 1082.908 307.705, 1078.518 308.917 C 1074.128 310.129, 1066.875 312.837, 1062.399 314.934 C 1057.924 317.031, 1051.391 320.681, 1047.881 323.045 C 1044.372 325.409, 1038.575 330.321, 1035 333.962 C 1031.425 337.602, 1026.801 343.488, 1024.724 347.041 C 1022.648 350.593, 1019.835 357.011, 1018.474 361.302 C 1017.113 365.593, 1016 370.216, 1016 371.576 C 1016 373.252, 1016.758 374.338, 1018.351 374.943 C 1019.644 375.435, 1025.750 376.580, 1031.920 377.488 C 1041.711 378.929, 1043.417 378.957, 1045.329 377.704 C 1046.700 376.806, 1048.373 373.620, 1049.799 369.191 C 1051.127 365.068, 1053.917 359.616, 1056.481 356.133 C 1058.902 352.844, 1063.272 348.367, 1066.192 346.185 C 1069.111 344.003, 1074.360 340.788, 1077.856 339.040 C 1081.353 337.293, 1087.653 334.916, 1091.856 333.759 C 1098.257 331.996, 1102.428 331.643, 1117.500 331.588 C 1131.937 331.535, 1136.886 331.886, 1142.500 333.363 C 1146.350 334.375, 1152.875 336.798, 1157 338.746 C 1162.477 341.333, 1166.289 344.104, 1171.134 349.019 C 1175.617 353.569, 1178.934 358.140, 1181.369 363.125 C 1183.349 367.181, 1185.710 373.200, 1186.615 376.500 C 1187.805 380.837, 1188.394 388.389, 1188.742 403.750 C 1189.223 425, 1189.223 425, 1149.218 425 C 1127.214 425, 1104.552 425.467, 1098.856 426.037 C 1093.160 426.608, 1083.909 428.169, 1078.297 429.507 C 1072.686 430.844, 1064.586 433.294, 1060.297 434.951 C 1056.009 436.608, 1048.900 440.062, 1044.500 442.628 C 1039.244 445.692, 1033.381 450.415, 1027.407 456.396 C 1021.727 462.083, 1016.935 467.988, 1014.639 472.129 C 1012.617 475.775, 1009.869 481.974, 1008.533 485.904 C 1007.196 489.834, 1005.565 496.724, 1004.908 501.215 C 1004.182 506.184, 1003.955 513.708, 1004.329 520.440 C 1004.679 526.759, 1005.842 534.708, 1007.040 538.984 C 1008.193 543.100, 1010.769 549.625, 1012.765 553.484 C 1015.195 558.184, 1018.888 562.976, 1023.952 568 C 1028.872 572.881, 1034.477 577.165, 1040.006 580.268 C 1044.678 582.890, 1052.737 586.400, 1057.916 588.067 C 1063.095 589.735, 1071.645 591.749, 1076.916 592.543 C 1082.187 593.338, 1091 593.990, 1096.500 593.991 C 1102 593.993, 1110.550 593.500, 1115.500 592.896 C 1120.450 592.292, 1128.626 590.753, 1133.670 589.477 C 1138.713 588.200, 1146.476 585.580, 1150.922 583.653 C 1155.367 581.727, 1162.266 577.993, 1166.252 575.355 C 1170.238 572.718, 1176.718 567.314, 1180.651 563.347 C 1184.584 559.381, 1188.071 556.405, 1188.401 556.734 C 1188.730 557.064, 1189 563.983, 1189 572.110 C 1189 586.246, 1189.096 586.954, 1191.223 588.443 C 1192.897 589.616, 1196.076 590, 1204.112 590 C 1212.788 590, 1215.178 589.673, 1216.920 588.250 C 1219.062 586.500, 1219.062 586.500, 1219.281 484 C 1219.500 381.500, 1219.500 381.500, 1217.301 372.281 C 1216.092 367.210, 1213.788 359.935, 1212.183 356.114 C 1210.577 352.292, 1207.170 346.017, 1204.611 342.167 C 1202.052 338.318, 1196.376 331.798, 1191.996 327.679 C 1185.833 321.881, 1181.714 319.047, 1173.767 315.136 C 1168.120 312.358, 1159.900 309.201, 1155.500 308.122 C 1151.100 307.043, 1144.264 305.674, 1140.308 305.080 C 1136.353 304.486, 1126.228 304.045, 1117.808 304.099 C 1109.389 304.153, 1098.900 304.764, 1094.500 305.455 M 1639.235 305.435 C 1635.239 306.194, 1628.774 307.785, 1624.868 308.971 C 1620.962 310.158, 1615.269 312.233, 1612.217 313.583 C 1609.164 314.933, 1603.029 318.468, 1598.583 321.438 C 1594.138 324.408, 1587.615 329.687, 1584.088 333.169 C 1580.562 336.651, 1575.675 342.200, 1573.229 345.500 C 1570.783 348.800, 1567.031 354.976, 1564.892 359.226 C 1562.753 363.475, 1559.889 370.269, 1558.527 374.324 C 1557.166 378.379, 1555.264 386.153, 1554.301 391.599 C 1552.814 400.005, 1552.546 408.069, 1552.526 445 C 1552.506 481.963, 1552.771 490.193, 1554.288 499.765 C 1555.270 505.960, 1557.187 514.960, 1558.547 519.765 C 1559.908 524.569, 1563.275 533.094, 1566.029 538.708 C 1568.784 544.322, 1573.741 552.318, 1577.046 556.477 C 1580.350 560.635, 1586.750 566.961, 1591.268 570.533 C 1595.786 574.105, 1602.996 578.856, 1607.291 581.090 C 1611.585 583.325, 1618.206 586.210, 1622.004 587.501 C 1625.801 588.793, 1632.641 590.660, 1637.204 591.650 C 1643.517 593.020, 1649.922 593.450, 1664 593.450 C 1678.078 593.450, 1684.483 593.020, 1690.796 591.650 C 1695.359 590.660, 1702.274 588.767, 1706.162 587.445 C 1710.050 586.122, 1717.002 583.035, 1721.609 580.584 C 1726.217 578.133, 1732.613 574.107, 1735.822 571.637 C 1739.032 569.167, 1743.824 564.976, 1746.470 562.323 C 1749.117 559.670, 1753.293 554.800, 1755.750 551.500 C 1758.207 548.200, 1761.764 542.432, 1763.655 538.683 C 1765.821 534.387, 1766.862 531.141, 1766.469 529.904 C 1766.082 528.683, 1762.069 526.046, 1755.852 522.926 C 1749.825 519.901, 1745.139 518.139, 1744.046 518.485 C 1743.050 518.801, 1740.098 522.759, 1737.487 527.280 C 1734.271 532.847, 1729.953 538.244, 1724.108 544 C 1719.362 548.675, 1712.558 554.199, 1708.989 556.276 C 1705.420 558.352, 1699.106 561.128, 1694.959 562.443 C 1690.811 563.759, 1683.916 565.323, 1679.636 565.918 C 1675.357 566.513, 1668.850 566.991, 1665.178 566.980 C 1661.505 566.969, 1655.350 566.511, 1651.500 565.961 C 1647.650 565.412, 1641.800 564.286, 1638.500 563.460 C 1635.200 562.634, 1628.900 560.232, 1624.500 558.122 C 1620.100 556.012, 1613.703 552.170, 1610.284 549.584 C 1606.865 546.998, 1602.030 542.321, 1599.538 539.191 C 1597.047 536.061, 1593.476 530.575, 1591.603 527 C 1589.730 523.425, 1587.240 517.374, 1586.070 513.552 C 1584.877 509.656, 1583.491 501.091, 1582.914 494.052 C 1582.348 487.149, 1582.023 476.550, 1582.192 470.500 C 1582.500 459.500, 1582.500 459.500, 1675.904 459.245 C 1742.897 459.062, 1769.688 458.674, 1770.654 457.872 C 1771.703 457.002, 1772 452.197, 1771.999 436.128 C 1771.999 424.782, 1771.530 410.557, 1770.957 404.516 C 1770.384 398.475, 1769.070 389.658, 1768.036 384.923 C 1767.003 380.188, 1764.611 372.197, 1762.721 367.165 C 1760.831 362.133, 1757.083 354.323, 1754.392 349.810 C 1751.432 344.844, 1746.143 338.205, 1741 332.998 C 1736.254 328.192, 1729.188 322.346, 1725 319.758 C 1720.875 317.209, 1713.987 313.721, 1709.694 312.006 C 1705.401 310.291, 1697.976 307.980, 1693.194 306.870 C 1686.603 305.339, 1679.905 304.755, 1665.500 304.453 C 1652.026 304.171, 1644.387 304.456, 1639.235 305.435 M 2739.500 305.575 C 2734.550 306.335, 2726.687 308.137, 2722.028 309.580 C 2717.368 311.023, 2709.718 314.131, 2705.028 316.487 C 2700.337 318.843, 2693.698 322.878, 2690.273 325.453 C 2686.847 328.029, 2681.525 332.918, 2678.445 336.318 C 2675.098 340.013, 2671.055 346.120, 2668.393 351.500 C 2665.944 356.450, 2663.415 363.366, 2662.772 366.868 C 2661.737 372.505, 2661.794 373.376, 2663.267 374.453 C 2664.182 375.122, 2670.345 376.436, 2676.961 377.372 C 2685.499 378.580, 2689.550 378.776, 2690.912 378.047 C 2691.969 377.482, 2693.608 374.652, 2694.555 371.760 C 2695.502 368.867, 2697.300 364.455, 2698.551 361.955 C 2699.802 359.455, 2702.876 355.130, 2705.382 352.343 C 2707.887 349.556, 2712.764 345.435, 2716.219 343.185 C 2719.673 340.936, 2725.545 337.950, 2729.267 336.550 C 2732.989 335.150, 2739.911 333.328, 2744.648 332.502 C 2749.386 331.676, 2758.041 331.003, 2763.881 331.008 C 2769.721 331.012, 2777.329 331.474, 2780.786 332.035 C 2784.243 332.596, 2790.550 334.154, 2794.802 335.497 C 2799.054 336.840, 2805.450 339.893, 2809.016 342.280 C 2812.582 344.667, 2817.568 349.184, 2820.095 352.318 C 2822.622 355.451, 2826.051 360.824, 2827.714 364.258 C 2829.378 367.691, 2831.555 373.650, 2832.552 377.500 C 2833.994 383.067, 2834.379 388.593, 2834.433 404.500 C 2834.500 424.500, 2834.500 424.500, 2788.500 425.090 C 2750.678 425.575, 2740.811 425.993, 2733 427.442 C 2727.775 428.411, 2719.225 430.563, 2714 432.223 C 2708.775 433.883, 2701.350 436.821, 2697.500 438.752 C 2693.650 440.684, 2688.599 443.568, 2686.276 445.162 C 2683.953 446.756, 2679.903 449.906, 2677.276 452.162 C 2674.649 454.419, 2670.367 458.768, 2667.760 461.827 C 2665.153 464.886, 2661.238 470.815, 2659.060 475.001 C 2656.882 479.188, 2654.071 486.188, 2652.813 490.557 C 2650.838 497.414, 2650.528 500.756, 2650.544 515 C 2650.558 527.732, 2650.971 532.985, 2652.354 538 C 2653.339 541.575, 2655.706 547.766, 2657.614 551.757 C 2659.760 556.247, 2663.438 561.533, 2667.260 565.619 C 2670.658 569.251, 2676.098 574.029, 2679.350 576.238 C 2682.602 578.446, 2688.916 581.964, 2693.381 584.056 C 2697.847 586.148, 2705.100 588.790, 2709.500 589.929 C 2713.900 591.067, 2720.875 592.434, 2725 592.968 C 2729.125 593.502, 2737.012 593.952, 2742.526 593.969 C 2748.041 593.986, 2756.366 593.536, 2761.026 592.969 C 2765.687 592.402, 2773.325 591.005, 2778 589.864 C 2782.675 588.724, 2790.323 586.219, 2794.995 584.299 C 2799.666 582.378, 2807.117 578.443, 2811.550 575.553 C 2815.984 572.663, 2822.776 567.083, 2826.644 563.154 C 2830.511 559.224, 2833.974 556.307, 2834.338 556.671 C 2834.702 557.035, 2835 564.244, 2835 572.691 C 2835 588.050, 2835 588.050, 2837.565 589.025 C 2838.976 589.561, 2844.776 590, 2850.454 590 C 2858.835 590, 2861.167 589.671, 2862.840 588.250 C 2864.895 586.506, 2864.902 586.155, 2865.095 485.500 C 2865.233 413.184, 2864.961 382.608, 2864.139 377.839 C 2863.507 374.176, 2862.041 368.101, 2860.880 364.339 C 2859.720 360.578, 2857.419 354.800, 2855.767 351.500 C 2854.116 348.200, 2850.847 342.800, 2848.503 339.500 C 2846.159 336.200, 2841.825 331.229, 2838.871 328.452 C 2835.917 325.676, 2831.475 322.024, 2829 320.337 C 2826.525 318.650, 2822.250 316.136, 2819.500 314.751 C 2816.750 313.366, 2810.677 311.028, 2806.004 309.555 C 2801.331 308.082, 2793.231 306.233, 2788.004 305.445 C 2782.657 304.638, 2771.939 304.052, 2763.500 304.103 C 2755.250 304.153, 2744.450 304.815, 2739.500 305.575 M 1949.831 307.023 C 1947.263 307.457, 1942.557 308.568, 1939.374 309.494 C 1936.190 310.419, 1931.316 312.324, 1928.543 313.727 C 1925.769 315.129, 1921.005 317.968, 1917.956 320.036 C 1914.907 322.103, 1908.832 327.586, 1904.456 332.220 C 1900.080 336.854, 1894.925 343.412, 1893 346.793 C 1891.075 350.174, 1889.124 352.954, 1888.664 352.970 C 1888.204 352.987, 1887.979 343.517, 1888.164 331.927 C 1888.482 312.013, 1888.393 310.776, 1886.559 309.427 C 1885.139 308.384, 1881.486 308, 1872.964 308 C 1863.112 308, 1861.075 308.271, 1859.788 309.750 C 1858.447 311.291, 1858.188 327.883, 1857.621 448.544 C 1857.067 566.456, 1857.177 585.860, 1858.406 587.544 C 1859.655 589.253, 1861.303 589.543, 1871.460 589.837 C 1880.790 590.108, 1883.562 589.862, 1885.498 588.593 C 1887.912 587.012, 1887.912 587.012, 1888.265 495.756 C 1888.573 415.960, 1888.821 403.666, 1890.233 397.862 C 1891.122 394.212, 1893.260 387.835, 1894.984 383.693 C 1896.709 379.550, 1899.935 373.537, 1902.154 370.330 C 1904.373 367.124, 1908.734 361.895, 1911.844 358.710 C 1914.955 355.526, 1920.200 351.160, 1923.500 349.008 C 1926.800 346.856, 1932.447 343.987, 1936.050 342.632 C 1939.652 341.277, 1946.368 339.617, 1950.974 338.944 C 1955.902 338.223, 1963.288 337.960, 1968.924 338.306 C 1974.191 338.629, 1981.415 339.801, 1984.978 340.912 C 1990.548 342.649, 1991.745 342.742, 1993.526 341.575 C 1994.963 340.634, 1996.449 337.167, 1998.379 330.256 C 1999.909 324.778, 2001.013 318.991, 2000.831 317.397 C 2000.557 315.002, 1999.547 314.032, 1995 311.798 C 1991.975 310.313, 1986.031 308.400, 1981.792 307.548 C 1977.553 306.697, 1969.678 306.053, 1964.292 306.118 C 1958.906 306.182, 1952.399 306.590, 1949.831 307.023 M 2267.500 307.137 C 2263.650 307.624, 2256.723 308.962, 2252.106 310.112 C 2247.489 311.261, 2240.597 313.469, 2236.791 315.018 C 2232.985 316.567, 2227.403 319.330, 2224.388 321.157 C 2221.373 322.984, 2216.225 326.675, 2212.949 329.358 C 2209.672 332.042, 2204.999 336.887, 2202.565 340.125 C 2200.131 343.364, 2196.978 348.468, 2195.559 351.467 C 2194.140 354.467, 2192.222 359.751, 2191.298 363.210 C 2190.228 367.210, 2189.598 373.504, 2189.566 380.500 C 2189.539 386.587, 2190.124 393.957, 2190.876 397 C 2191.623 400.025, 2193.593 405.425, 2195.253 409 C 2197.578 414.009, 2200.480 417.679, 2207.904 425 C 2213.202 430.225, 2220.093 436.003, 2223.216 437.840 C 2226.340 439.678, 2233.082 442.988, 2238.198 445.197 C 2243.314 447.406, 2255.375 451.832, 2265 455.034 C 2274.625 458.235, 2291.782 463.807, 2303.126 467.416 C 2314.470 471.025, 2327.745 475.981, 2332.626 478.430 C 2337.507 480.879, 2344.069 485.178, 2347.209 487.984 C 2351.045 491.413, 2353.898 495.121, 2355.908 499.293 C 2357.553 502.707, 2359.186 507.983, 2359.536 511.017 C 2359.886 514.052, 2359.644 519.449, 2358.998 523.010 C 2358.352 526.572, 2356.631 531.923, 2355.172 534.902 C 2353.713 537.880, 2350.490 542.577, 2348.010 545.339 C 2345.529 548.101, 2340.235 552.493, 2336.245 555.100 C 2332.255 557.706, 2325.505 560.983, 2321.245 562.381 C 2316.985 563.779, 2310.420 565.444, 2306.656 566.081 C 2302.481 566.787, 2293.901 567.047, 2284.656 566.748 C 2272.039 566.341, 2267.998 565.809, 2260.537 563.572 C 2255.608 562.094, 2248.508 559.274, 2244.759 557.304 C 2241.011 555.335, 2234.820 550.831, 2231.003 547.296 C 2226.102 542.759, 2223.123 538.963, 2220.870 534.388 C 2218.152 528.867, 2217.591 526.425, 2217.087 517.915 C 2216.655 510.619, 2216.091 507.669, 2214.997 506.977 C 2214.174 506.457, 2208.238 506.024, 2201.807 506.015 C 2190.848 506.001, 2190.016 506.140, 2188.557 508.223 C 2187.546 509.665, 2187 512.663, 2187 516.765 C 2187 520.240, 2187.689 526.418, 2188.530 530.492 C 2189.372 534.566, 2190.765 539.587, 2191.627 541.649 C 2192.488 543.711, 2194.761 547.848, 2196.677 550.843 C 2198.592 553.838, 2202.486 558.753, 2205.330 561.765 C 2208.173 564.777, 2213.200 569.160, 2216.500 571.504 C 2219.800 573.848, 2225.806 577.421, 2229.846 579.444 C 2233.886 581.467, 2241.113 584.403, 2245.906 585.969 C 2250.699 587.536, 2259.543 589.589, 2265.558 590.532 C 2274.265 591.898, 2280.371 592.135, 2295.498 591.698 C 2309.352 591.298, 2316.832 590.608, 2323.107 589.150 C 2327.840 588.050, 2335.168 585.808, 2339.391 584.169 C 2343.613 582.529, 2350.315 579.263, 2354.284 576.910 C 2358.478 574.425, 2365.072 569.045, 2370.028 564.067 C 2375.954 558.115, 2379.701 553.303, 2382.306 548.300 C 2384.369 544.341, 2386.943 537.631, 2388.028 533.391 C 2389.427 527.922, 2390 522.353, 2390 514.234 C 2390 507.069, 2389.412 500.521, 2388.429 496.724 C 2387.564 493.389, 2385.553 488.077, 2383.960 484.921 C 2382.367 481.765, 2378.490 476.403, 2375.345 473.006 C 2372.200 469.609, 2367.044 464.843, 2363.888 462.414 C 2360.731 459.984, 2354.823 456.203, 2350.759 454.011 C 2346.694 451.819, 2337.549 447.809, 2330.435 445.101 C 2323.321 442.393, 2307.679 437.197, 2295.676 433.556 C 2283.673 429.914, 2269.094 425.147, 2263.277 422.962 C 2257.461 420.778, 2248.441 416.875, 2243.231 414.289 C 2237.833 411.610, 2231.847 407.729, 2229.311 405.264 C 2226.864 402.886, 2223.656 398.367, 2222.181 395.220 C 2219.806 390.154, 2219.500 388.300, 2219.500 379 C 2219.500 369.697, 2219.806 367.847, 2222.184 362.774 C 2223.660 359.624, 2226.300 355.265, 2228.051 353.087 C 2229.801 350.908, 2233.834 347.302, 2237.013 345.072 C 2240.192 342.842, 2244.959 340.089, 2247.608 338.954 C 2250.256 337.819, 2255.588 336.013, 2259.458 334.940 C 2263.327 333.868, 2271.332 332.535, 2277.246 331.977 C 2284.515 331.291, 2291.485 331.291, 2298.754 331.977 C 2304.668 332.535, 2312.868 333.922, 2316.976 335.061 C 2321.084 336.199, 2328.046 339.004, 2332.447 341.293 C 2337.427 343.884, 2342.753 347.730, 2346.551 351.478 C 2350.033 354.913, 2353.827 359.916, 2355.382 363.122 C 2357.228 366.926, 2358.375 371.372, 2358.929 376.868 C 2359.379 381.336, 2360.310 385.668, 2360.996 386.495 C 2361.979 387.679, 2364.761 388, 2374.051 388 C 2383.846 388, 2386.148 387.709, 2387.563 386.294 C 2389.005 384.852, 2389.181 383.266, 2388.698 376.044 C 2388.384 371.345, 2387.211 364.575, 2386.090 361 C 2384.970 357.425, 2382.354 351.615, 2380.276 348.089 C 2378.199 344.563, 2373.777 338.903, 2370.449 335.512 C 2367.122 332.120, 2361.550 327.411, 2358.068 325.046 C 2354.586 322.682, 2348.076 319.031, 2343.601 316.934 C 2339.125 314.837, 2332.097 312.199, 2327.982 311.071 C 2323.867 309.944, 2316 308.344, 2310.500 307.516 C 2304.995 306.688, 2294.657 306.066, 2287.500 306.132 C 2280.350 306.199, 2271.350 306.651, 2267.500 307.137 M 2066.979 309.525 C 2065.977 310.733, 2065.609 339.592, 2065.213 448.037 C 2064.734 578.913, 2064.792 585.113, 2066.511 587.012 C 2068.120 588.791, 2069.605 589, 2080.598 589 C 2092.163 589, 2092.978 588.869, 2094.443 586.777 C 2095.834 584.792, 2096 569.925, 2096 447.477 C 2096 342.195, 2095.722 310.122, 2094.800 309.200 C 2093.993 308.393, 2089.449 308, 2080.922 308 C 2070.780 308, 2067.992 308.305, 2066.979 309.525 M 1641.747 332.920 C 1636.931 333.972, 1629.286 336.645, 1624.747 338.864 C 1620.211 341.082, 1613.916 344.949, 1610.758 347.457 C 1607.600 349.964, 1602.964 354.600, 1600.457 357.758 C 1597.949 360.916, 1594.163 367.100, 1592.043 371.500 C 1589.924 375.900, 1587.471 382.457, 1586.593 386.072 C 1585.715 389.686, 1584.586 395.986, 1584.084 400.072 C 1583.582 404.157, 1582.854 413.238, 1582.466 420.250 C 1581.759 433, 1581.759 433, 1661.411 433 C 1733.679 433, 1741.120 432.851, 1741.680 431.391 C 1742.020 430.507, 1741.785 421.844, 1741.159 412.141 C 1740.533 402.439, 1739.300 391.575, 1738.418 388 C 1737.536 384.425, 1734.774 377.239, 1732.279 372.032 C 1728.384 363.902, 1726.454 361.281, 1718.622 353.492 C 1711.733 346.640, 1707.535 343.405, 1701.473 340.275 C 1697.058 337.996, 1690.083 335.164, 1685.973 333.983 C 1680.446 332.394, 1674.853 331.727, 1664.500 331.422 C 1653.286 331.091, 1648.758 331.389, 1641.747 332.920 M 216 340 C 216 340.550, 215.100 341, 214 341 C 212.900 341, 212 341.450, 212 342 C 212 342.550, 209.750 343, 207 343 C 204.250 343, 202 343.450, 202 344 C 202 344.550, 200.749 345, 199.221 345 C 197.589 345, 195.847 345.826, 195 347 C 194.207 348.100, 192.857 349, 192 349 C 191.143 349, 189.793 349.900, 189 351 C 188.207 352.100, 186.533 353, 185.279 353 C 183.667 353, 183 353.585, 183 355 C 183 356.119, 182.333 357, 181.486 357 C 180.653 357, 176.153 360.819, 171.486 365.486 C 166.819 370.153, 163 374.653, 163 375.486 C 163 376.333, 162.119 377, 161 377 C 159.749 377, 159 377.667, 159 378.779 C 159 379.758, 158.100 381.207, 157 382 C 155.900 382.793, 155 384.467, 155 385.721 C 155 386.974, 154.550 388, 154 388 C 153.450 388, 153 389.251, 153 390.779 C 153 392.411, 152.174 394.153, 151 395 C 149.607 396.004, 149 397.589, 149 400.221 C 149 402.299, 148.550 404, 148 404 C 147.450 404, 147 404.900, 147 406 C 147 407.100, 146.550 408, 146 408 C 145.407 408, 145 411.667, 145 417 C 145 422.333, 144.593 426, 144 426 C 143.450 426, 143 426.900, 143 428 C 143 429.100, 143.450 430, 144 430 C 144.588 430, 145 433.500, 145 438.500 C 145 443.500, 145.412 447, 146 447 C 146.550 447, 147 448.350, 147 450 C 147 451.650, 147.450 453, 148 453 C 148.550 453, 149 454.350, 149 456 C 149 457.650, 149.450 459, 150 459 C 150.550 459, 151 459.900, 151 461 C 151 462.100, 151.450 463, 152 463 C 152.550 463, 153 463.900, 153 465 C 153 466.100, 153.450 467, 154 467 C 154.550 467, 155 467.801, 155 468.779 C 155 469.758, 155.900 471.207, 157 472 C 158.100 472.793, 159 474.143, 159 475 C 159 475.857, 159.900 477.207, 161 478 C 162.100 478.793, 163 480.242, 163 481.221 C 163 482.199, 163.450 483, 164 483 C 164.550 483, 165 483.900, 165 485 C 165 486.322, 165.667 487, 166.967 487 C 168.048 487, 170.508 488.575, 172.433 490.500 C 174.358 492.425, 176.623 494, 177.467 494 C 178.333 494, 179 494.870, 179 496 C 179 497.310, 179.667 498, 180.933 498 C 181.996 498, 183.151 498.900, 183.500 500 C 183.849 501.100, 184.905 502, 185.847 502 C 186.788 502, 188.207 502.900, 189 504 C 189.793 505.100, 190.792 506, 191.221 506 C 191.649 506, 192 502.850, 192 499 C 192 495, 192.429 492, 193 492 C 193.550 492, 194 490.875, 194 489.500 C 194 488.125, 194.450 487, 195 487 C 195.556 487, 196 484.333, 196 481 C 196 477.667, 196.444 475, 197 475 C 197.550 475, 198 473.650, 198 472 C 198 470.350, 198.450 469, 199 469 C 199.556 469, 200 466.333, 200 463 C 200 459.667, 200.444 457, 201 457 C 201.556 457, 202 454.333, 202 451 C 202 447.667, 202.444 445, 203 445 C 203.550 445, 204 444.100, 204 443 C 204 441.900, 204.450 441, 205 441 C 205.550 441, 206 439.913, 206 438.583 C 206 437.254, 206.563 435.904, 207.250 435.583 C 208.250 435.117, 208.250 434.883, 207.250 434.417 C 206.563 434.096, 206 432.521, 206 430.917 C 206 429.313, 205.550 428, 205 428 C 204.450 428, 204 426.650, 204 425 C 204 423.350, 203.550 422, 203 422 C 202.444 422, 202 419.333, 202 416 C 202 412.667, 201.556 410, 201 410 C 200.444 410, 200 407.333, 200 404 C 200 400.667, 199.556 398, 199 398 C 198.436 398, 198 395.167, 198 391.500 C 198 387.833, 197.564 385, 197 385 C 196.444 385, 196 382.333, 196 379 C 196 373, 196 373, 204 373 C 211.333 373, 212 373.167, 212 375 C 212 376.100, 212.450 377, 213 377 C 213.603 377, 214 381.167, 214 387.500 C 214 393.833, 214.397 398, 215 398 C 215.556 398, 216 400.667, 216 404 C 216 407.333, 216.444 410, 217 410 C 217.550 410, 218 411.800, 218 414 C 218 416.200, 218.450 418, 219 418 C 219.550 418, 220 419.350, 220 421 C 220 422.650, 220.450 424, 221 424 C 221.550 424, 222 425.350, 222 427 C 222 428.650, 222.450 430, 223 430 C 223.550 430, 224 431.496, 224 433.325 C 224 436.651, 224 436.651, 233.500 436.878 C 241.518 437.069, 243 436.863, 243 435.552 C 243 434.699, 243.450 434, 244 434 C 244.550 434, 245 432.650, 245 431 C 245 429.350, 245.450 428, 246 428 C 246.550 428, 247 425.750, 247 423 C 247 420.250, 247.450 418, 248 418 C 248.550 418, 249 417.100, 249 416 C 249 414.900, 249.450 414, 250 414 C 250.550 414, 251 412.200, 251 410 C 251 407.800, 251.450 406, 252 406 C 252.550 406, 253 404.650, 253 403 C 253 401.350, 253.450 400, 254 400 C 254.550 400, 255 399.100, 255 398 C 255 396.900, 255.450 396, 256 396 C 256.550 396, 257 394.749, 257 393.221 C 257 391.589, 257.826 389.847, 259 389 C 260.100 388.207, 261 386.632, 261 385.500 C 261 384.368, 261.900 382.793, 263 382 C 264.100 381.207, 265 379.758, 265 378.779 C 265 377.801, 265.450 377, 266 377 C 266.550 377, 267 375.846, 267 374.435 C 267 372.673, 265.435 370.345, 262 367 C 259.250 364.321, 257 361.525, 257 360.786 C 257 360.046, 256.100 358.793, 255 358 C 253.480 356.904, 253 355.411, 253 351.779 C 253 349.151, 252.550 347, 252 347 C 251.450 347, 251 346.137, 251 345.083 C 251 344.029, 251.558 342.981, 252.241 342.753 C 253.144 342.452, 253.027 341.884, 251.813 340.670 C 250.383 339.241, 247.684 339, 233.071 339 C 222.357 339, 216 339.372, 216 340 M 268.250 405.496 C 267.563 406.277, 267 408.060, 267 409.458 C 267 410.856, 266.550 412, 266 412 C 265.450 412, 265 413.701, 265 415.779 C 265 418.411, 264.393 419.996, 263 421 C 261.309 422.219, 261 423.589, 261 429.866 C 261 437.290, 261 437.290, 268 436.703 C 275 436.116, 275 436.116, 275 441.558 C 275 444.551, 275.450 447, 276 447 C 276.606 447, 277 451.333, 277 458 C 277 464.667, 277.394 469, 278 469 C 278.550 469, 279 470.800, 279 473 C 279 475.200, 279.450 477, 280 477 C 280.596 477, 281 480.833, 281 486.500 C 281 492.167, 281.404 496, 282 496 C 282.550 496, 283 496.863, 283 497.917 C 283 498.971, 282.438 500.035, 281.750 500.282 C 280.895 500.589, 281.187 501.343, 282.673 502.666 C 284.654 504.430, 284.874 505.736, 285.163 517.469 C 285.376 526.107, 285.894 530.751, 286.740 531.597 C 287.585 532.442, 288 536.146, 288 542.845 C 288 549.899, 288.367 552.982, 289.250 553.341 C 290.194 553.723, 290.133 554.130, 289 555 C 287.867 555.870, 287.806 556.277, 288.750 556.659 C 289.581 556.997, 290 559.487, 290 564.083 C 290 568.028, 290.430 571, 291 571 C 291.550 571, 292 573.212, 292 575.917 C 292 578.913, 292.488 581.031, 293.250 581.341 C 294.194 581.723, 294.133 582.130, 293 583 C 291.867 583.870, 291.806 584.277, 292.750 584.659 C 293.592 585.001, 294 587.587, 294 592.583 C 294 600, 294 600, 333.500 600 C 359.167 600, 373 599.650, 373 599 C 373 598.450, 373.900 598, 375 598 C 376.100 598, 377 597.550, 377 597 C 377 596.450, 379.151 596, 381.779 596 C 385.411 596, 386.904 595.520, 388 594 C 388.793 592.900, 390.017 592, 390.721 592 C 391.424 592, 392 591.550, 392 591 C 392 590.450, 392.870 590, 393.933 590 C 394.997 590, 398.147 587.779, 400.933 585.065 C 403.720 582.351, 406 579.426, 406 578.565 C 406 577.667, 406.852 577, 408 577 C 409.333 577, 410 576.333, 410 575 C 410 573.900, 410.450 573, 411 573 C 411.550 573, 412 572.100, 412 571 C 412 569.900, 412.450 569, 413 569 C 413.550 569, 414 568.100, 414 567 C 414 565.900, 414.450 565, 415 565 C 415.550 565, 416 562.750, 416 560 C 416 557.250, 416.450 555, 417 555 C 417.658 555, 418 529.167, 418 479.500 C 418 437.975, 417.649 404, 417.221 404 C 416.792 404, 415.793 404.900, 415 406 C 414.207 407.100, 412.938 408, 412.180 408 C 411.423 408, 409.541 409.350, 408 411 C 406.459 412.650, 404.659 414, 404 414 C 403.341 414, 401.541 415.350, 400 417 C 398.277 418.845, 396.197 420, 394.599 420 C 392.667 420, 392 420.513, 392 422 C 392 423.111, 391.333 424, 390.500 424 C 389.675 424, 389 424.707, 389 425.571 C 389 426.436, 388.357 427.786, 387.571 428.571 C 386.786 429.357, 385.535 430, 384.792 430 C 384.049 430, 382.793 430.900, 382 432 C 381.207 433.100, 379.758 434, 378.779 434 C 377.801 434, 377 434.675, 377 435.500 C 377 436.333, 376.111 437, 375 437 C 373.900 437, 373 437.450, 373 438 C 373 438.550, 372.281 439, 371.401 439 C 370.522 439, 368.541 440.350, 367 442 C 365.459 443.650, 363.478 445, 362.599 445 C 361.719 445, 361 445.450, 361 446 C 361 446.550, 359.749 447, 358.221 447 C 356.589 447, 354.847 447.826, 354 449 C 353.153 450.174, 351.411 451, 349.779 451 C 348.251 451, 347 451.450, 347 452 C 347 452.550, 345.650 453, 344 453 C 342.350 453, 341 453.450, 341 454 C 341 454.550, 339.875 455, 338.500 455 C 337.125 455, 336 455.450, 336 456 C 336 456.622, 330.333 457, 321 457 C 311.667 457, 306 456.622, 306 456 C 306 455.450, 304.200 455, 302 455 C 298.667 455, 298 454.667, 298 453 C 298 451.517, 297.333 451, 295.422 451 C 293.712 451, 291.522 449.625, 288.922 446.918 C 286.765 444.674, 285 442.073, 285 441.139 C 285 440.205, 284.100 438.793, 283 438 C 281.900 437.207, 281 435.983, 281 435.279 C 281 434.576, 280.550 434, 280 434 C 279.450 434, 279 432.650, 279 431 C 279 429.350, 278.550 428, 278 428 C 277.450 428, 277 426.200, 277 424 C 277 421.800, 276.550 420, 276 420 C 275.450 420, 275 418.200, 275 416 C 275 413.800, 274.550 412, 274 412 C 273.450 412, 273 411.100, 273 410 C 273 408.900, 272.550 408, 272 408 C 271.450 408, 271 407.100, 271 406 C 271 404.900, 270.663 404.017, 270.250 404.038 C 269.837 404.059, 268.938 404.715, 268.250 405.496 M 1110 451.092 C 1103.675 451.533, 1094 453.033, 1088.500 454.424 C 1082.629 455.910, 1074.196 459.081, 1068.075 462.104 C 1059.645 466.268, 1056.297 468.616, 1050.575 474.376 C 1046.322 478.659, 1042.406 483.762, 1040.758 487.171 C 1039.250 490.290, 1037.337 495.447, 1036.508 498.631 C 1035.679 501.815, 1035 508.129, 1035 512.661 C 1035 517.193, 1035.497 523.286, 1036.105 526.201 C 1036.713 529.115, 1038.510 534.258, 1040.099 537.629 C 1042.060 541.791, 1045.013 545.654, 1049.301 549.665 C 1053.031 553.154, 1058.661 557.064, 1063.058 559.219 C 1067.151 561.225, 1073.425 563.680, 1077 564.675 C 1082.220 566.127, 1087.240 566.483, 1102.500 566.484 C 1118.885 566.485, 1122.712 566.178, 1130.307 564.248 C 1135.151 563.017, 1142.482 560.609, 1146.597 558.895 C 1150.713 557.182, 1157.482 553.559, 1161.639 550.845 C 1165.797 548.132, 1171.430 543.583, 1174.159 540.737 C 1177.034 537.738, 1180.769 532.187, 1183.044 527.532 C 1185.350 522.811, 1187.383 516.821, 1187.976 513 C 1188.531 509.425, 1188.988 494.061, 1188.992 478.857 C 1188.999 454.568, 1188.808 451.140, 1187.418 450.607 C 1186.548 450.273, 1171.361 450.065, 1153.668 450.145 C 1135.976 450.224, 1116.325 450.650, 1110 451.092 M 2756.500 451.043 C 2750.450 451.455, 2741.522 452.740, 2736.660 453.899 C 2731.798 455.057, 2724.406 457.372, 2720.234 459.043 C 2716.062 460.714, 2709.612 464.099, 2705.901 466.566 C 2702.190 469.033, 2696.907 473.510, 2694.160 476.515 C 2691.414 479.520, 2687.808 484.697, 2686.148 488.020 C 2684.488 491.343, 2682.597 496.623, 2681.947 499.754 C 2681.246 503.134, 2680.957 509.927, 2681.236 516.473 C 2681.578 524.480, 2682.292 529, 2683.844 532.977 C 2685.019 535.990, 2687.637 540.859, 2689.661 543.799 C 2691.741 546.818, 2696.109 551.118, 2699.703 553.682 C 2703.201 556.178, 2709.087 559.488, 2712.782 561.036 C 2716.477 562.584, 2723.289 564.616, 2727.921 565.551 C 2734.626 566.904, 2739.619 567.141, 2752.421 566.713 C 2763.898 566.330, 2770.874 565.580, 2776.794 564.093 C 2781.356 562.947, 2788.331 560.631, 2792.294 558.947 C 2796.257 557.263, 2802.661 553.917, 2806.525 551.512 C 2810.389 549.106, 2816.294 544.281, 2819.647 540.790 C 2823 537.298, 2826.876 532.204, 2828.260 529.470 C 2829.644 526.737, 2831.573 522.025, 2832.547 519 C 2834.034 514.376, 2834.386 508.582, 2834.756 482.620 C 2835.115 457.446, 2834.947 451.581, 2833.848 450.885 C 2833.107 450.415, 2817.875 450.090, 2800 450.162 C 2782.125 450.235, 2762.550 450.631, 2756.500 451.043 M 221.250 454.496 C 220.563 455.277, 220 457.060, 220 458.458 C 220 459.856, 219.550 461, 219 461 C 218.450 461, 218 462.800, 218 465 C 218 467.200, 217.550 469, 217 469 C 216.450 469, 216 471.250, 216 474 C 216 476.750, 215.550 479, 215 479 C 214.436 479, 214 481.833, 214 485.500 C 214 489.167, 213.564 492, 213 492 C 212.450 492, 212 493.350, 212 495 C 212 496.650, 211.550 498, 211 498 C 210.450 498, 210 500.250, 210 503 C 210 505.750, 209.550 508, 209 508 C 208.450 508, 208 509.800, 208 512 C 208 514.200, 207.550 516, 207 516 C 206.444 516, 206 518.667, 206 522 C 206 525.333, 205.556 528, 205 528 C 204.450 528, 204 529.800, 204 532 C 204 534.200, 203.550 536, 203 536 C 202.450 536, 202 538.025, 202 540.500 C 202 542.975, 201.550 545, 201 545 C 200.429 545, 200 548, 200 552 C 200 556, 199.571 559, 199 559 C 198.450 559, 198 559.900, 198 561 C 198 562.100, 197.550 563, 197 563 C 196.429 563, 196 566, 196 570 C 196 574, 195.571 577, 195 577 C 194.450 577, 194 578.350, 194 580 C 194 581.650, 193.550 583, 193 583 C 192.450 583, 192 585.475, 192 588.500 C 192 591.525, 191.550 594, 191 594 C 190.450 594, 190 595.350, 190 597 C 190 600, 190 600, 234.500 600 C 279 600, 279 600, 279 597 C 279 595.350, 278.550 594, 278 594 C 277.422 594, 277 590.833, 277 586.500 C 277 582.167, 276.578 579, 276 579 C 275.450 579, 275 578.138, 275 577.083 C 275 576.029, 275.563 574.904, 276.250 574.583 C 277.250 574.117, 277.250 573.883, 276.250 573.417 C 275.429 573.033, 275 570.489, 275 566 C 275 561.471, 274.579 558.996, 273.750 558.659 C 272.806 558.277, 272.867 557.870, 274 557 C 275.133 556.130, 275.194 555.723, 274.250 555.341 C 273.563 555.062, 273 553.521, 273 551.917 C 273 550.313, 272.550 549, 272 549 C 271.412 549, 271 545.500, 271 540.500 C 271 535.500, 270.588 532, 270 532 C 269.450 532, 269 529.750, 269 527 C 269 524.250, 268.550 522, 268 522 C 267.417 522, 267 518.667, 267 514 C 267 509.333, 266.583 506, 266 506 C 265.397 506, 265 501.833, 265 495.500 C 265 489.167, 264.603 485, 264 485 C 263.450 485, 263 483.650, 263 482 C 263 480.350, 262.550 479, 262 479 C 261.397 479, 261 474.818, 261 468.455 C 261 458.591, 260.841 457.750, 258.545 455.455 C 256.131 453.040, 255.818 453.001, 239.295 453.038 C 226.078 453.068, 222.234 453.379, 221.250 454.496" stroke="none" fill="#fffcfc" fill-rule="evenodd"/><path d="M 86 211 C 86 211.662, 132.833 212, 224.500 212 C 316.167 212, 363 211.662, 363 211 C 363 210.338, 316.167 210, 224.500 210 C 132.833 210, 86 210.338, 86 211 M 222 454 C 222 454.629, 228.500 455, 239.500 455 C 250.500 455, 257 454.629, 257 454 C 257 453.371, 250.500 453, 239.500 453 C 228.500 453, 222 453.371, 222 454" stroke="none" fill="#fcfcfc" fill-rule="evenodd"/></svg>